<?xml version="1.0" encoding="utf-8"?>
<!-- Generator: Adobe Illustrator 16.0.0, SVG Export Plug-In . SVG Version: 6.00 Build 0)  -->
<!DOCTYPE svg PUBLIC "-//W3C//DTD SVG 1.1//EN" "http://www.w3.org/Graphics/SVG/1.1/DTD/svg11.dtd">
<svg version="1.1" id="Layer_1" xmlns="http://www.w3.org/2000/svg" xmlns:xlink="http://www.w3.org/1999/xlink" x="0px" y="0px"
	 width="420px" height="325px" viewBox="-163.804 -110 420 325" enable-background="new -163.804 -110 420 325"
	 xml:space="preserve">
<g display="none">
	<path display="inline" fill="#3E253C" d="M54.984,87.401c-0.521-0.173-0.867-0.692-1.038-1.388c0-0.52,0.171-1.215,0.518-1.562
		c1.389-1.213,2.082-2.951,1.735-4.856c-0.174-1.734-1.386-3.121-2.948-3.989c-0.52-0.173-0.865-0.693-0.865-1.216
		c0-0.52,0.17-1.041,0.516-1.561c1.391-1.389,2.083-3.121,1.736-4.856c-0.346-2.949-3.12-5.032-6.072-4.513
		c-1.385,0.178-2.598,0.869-3.467,2.084c-0.521,0.694-1.561,0.867-2.429,0.346c-1.215-0.866-2.428-1.215-3.989-1.037
		c-1.391,0.171-2.604,0.867-3.473,2.078c-0.52,0.695-1.561,0.869-2.429,0.349c-1.215-0.868-2.43-1.215-3.989-1.041
		c-1.386,0.173-2.599,0.866-3.468,2.079c-0.521,0.696-1.561,0.87-2.429,0.347c-1.215-0.864-2.43-1.214-3.989-1.038
		c-1.391,0.174-2.605,1.038-3.471,2.082c-0.868,1.215-1.214,2.6-1.041,3.99c0.173,1.734,1.387,3.121,2.951,3.99
		c0.519,0.172,0.865,0.691,0.865,1.215c0,0.518-0.174,1.037-0.52,1.56c-0.346,0.346-0.695,0.692-0.868,1.215
		c-0.173,0.172-0.173,0.52-0.347,0.691c-0.176,0.521-0.346,1.215-0.346,1.736c0,0.346,0,0.692,0,1.039
		c0,0.176,0.17,0.521,0.17,0.694c0.176,0.523,0.35,0.869,0.522,1.215c0.522,0.869,1.388,1.732,2.429,2.256
		c0.52,0.174,0.868,0.691,1.042,1.389c0,0.518-0.174,1.212-0.522,1.56c-1.388,1.217-2.08,2.954-1.734,4.86
		c0.174,0.692,0.347,1.385,0.692,1.907c0.695,1.215,1.736,2.083,2.951,2.429c0.692,0.175,1.561,0.346,2.429,0.175
		c1.388-0.175,2.603-0.867,3.468-2.082c0.35-0.521,0.869-0.697,1.391-0.697c0.346,0,0.691,0.176,1.038,0.351
		c1.215,0.869,2.429,1.215,3.99,1.04c0.521,0,1.043-0.171,1.561-0.522c0.522-0.171,1.043-0.518,1.39-1.039
		c0.174-0.176,0.346-0.346,0.522-0.521c0.17-0.348,0.516-0.519,0.865-0.519c0.519-0.176,1.041-0.176,1.563,0.171
		c1.214,0.868,2.429,1.215,3.989,1.039c1.214-0.171,2.429-0.862,3.296-1.906c0.517-0.694,1.561-0.869,2.428-0.348
		c1.213,0.868,2.43,1.215,3.992,1.044c2.945-0.351,5.027-3.126,4.508-6.074C57.761,89.829,56.722,88.27,54.984,87.401z
		 M26.537,78.557c0-1.534,1.242-2.777,2.774-2.777c1.532,0,2.775,1.243,2.775,2.777c0,1.531-1.243,2.774-2.775,2.774
		C27.779,81.331,26.537,80.088,26.537,78.557z M31.219,91.74c-1.562,0.171-2.774-0.87-3.122-2.083c0-0.173,0-0.173,0-0.347
		c-0.176-1.561,0.869-2.947,2.43-3.297c1.561-0.174,2.95,0.867,3.296,2.429C33.822,90.002,32.779,91.566,31.219,91.74z
		 M39.197,76.648c0-1.537,1.245-2.777,2.777-2.777c1.532,0,2.778,1.24,2.778,2.777c0,1.53-1.246,2.773-2.778,2.773
		C40.442,79.421,39.197,78.179,39.197,76.648z M43.538,89.829c-1.535,0-2.777-1.239-2.777-2.774c0-1.535,1.242-2.774,2.777-2.774
		c1.533,0,2.775,1.239,2.775,2.774C46.313,88.59,45.071,89.829,43.538,89.829z"/>
	<path display="inline" fill="#3E253C" d="M39.373,104.751c-0.868,0-1.736-0.691-1.906-1.56c0-0.176,0-0.347-0.177-0.522
		c-0.868,0.522-1.735,0.87-2.774,0.87c-1.736,0.345-3.467,0-5.03-0.694c-1.215,1.215-2.948,1.906-4.685,2.254
		c-0.347,0-0.869,0.176-1.215,0.176c-1.215,0-2.429-0.353-3.468-0.698c-0.868,0.346-1.909,0.175-2.774-0.517
		c-0.695-0.698-1.045-1.561-0.869-2.604c-0.695-1.039-1.39-2.429-1.56-3.814c-0.35-2.259,0.17-4.511,1.384-6.247
		c-1.038-0.868-1.906-2.083-2.429-3.298c-0.17-0.172-0.17-0.521-0.346-0.694c-0.173,0.174-0.347,0.349-0.52,0.522
		c-1.042,1.387-1.561,3.12-1.042,4.857c0.174,0.519,0,1.042-0.346,1.563c-0.346,0.346-0.868,0.691-1.387,0.691
		c-1.734-0.175-3.471,0.522-4.513,1.908c-1.214,1.39-1.561,3.297-1.041,5.032c0.176,0.522,0,1.215-0.346,1.562
		c-0.347,0.521-1.039,0.691-1.562,0.691c-1.906-0.171-3.643,0.521-4.857,1.905c-0.868,1.045-1.388,2.43-1.214,3.995
		c0.176,1.385,0.868,2.771,1.909,3.639c1.042,0.867,2.427,1.391,3.816,1.215c0.868,0,1.733,0.697,1.907,1.565
		c0.173,1.385,0.868,2.6,1.909,3.467c1.042,0.868,2.427,1.385,3.816,1.215c0.868,0,1.733,0.693,1.906,1.562
		c0.174,1.389,0.869,2.604,1.907,3.467c0,0,0,0,0.176,0c1.039,0.868,2.253,1.214,3.468,1.214c-0.085,0-0.138,0-0.17,0
		c0.865,0,1.733,0.699,1.906,1.561c0.173,1.391,0.868,2.604,1.907,3.474c1.041,0.862,2.255,1.213,3.47,1.213
		c1.564,0,3.124-0.697,4.163-1.912c1.214-1.384,1.56-3.291,1.044-5.028c-0.177-0.521,0-1.214,0.346-1.561
		c0.347-0.345,0.869-0.698,1.385-0.698h0.176c1.907,0.177,3.644-0.515,4.857-1.906c1.039-1.385,1.562-3.12,1.039-4.856
		c-0.17-0.517,0-1.04,0.346-1.561c0.35-0.348,0.868-0.694,1.391-0.694c1.736,0.177,3.468-0.521,4.512-1.905
		c1.907-2.254,1.56-5.726-0.695-7.634C42.147,105.099,40.761,104.576,39.373,104.751z M14.565,111.863
		c-0.173,0.347-0.52,0.521-0.865,0.697c-1.041,0.341-2.256,0.341-3.124-0.351c-1.215-1.04-1.387-2.776-0.346-3.99
		c0.864-1.039,2.429-1.386,3.47-0.693c0.17,0.178,0.346,0.178,0.52,0.348C15.434,108.916,15.607,110.648,14.565,111.863z
		 M22.198,120.885c-1.532,0-2.775-1.242-2.775-2.774c0-1.532,1.243-2.78,2.775-2.78c1.535,0,2.778,1.248,2.778,2.78
		C24.976,119.643,23.733,120.885,22.198,120.885z M28.79,112.901c-1.533,0-2.775-1.236-2.775-2.771c0-1.537,1.242-2.78,2.775-2.78
		c1.535,0,2.774,1.243,2.774,2.78C31.564,111.665,30.325,112.901,28.79,112.901z"/>
	<path display="inline" fill="#3E253C" d="M8.496,124.699c-1.736-0.177-3.47-0.868-4.685-1.905
		c-1.388-1.215-2.255-2.606-2.777-4.336c-1.734-0.177-3.468-0.869-4.683-1.908c-1.736-1.565-2.951-3.648-3.121-6.078
		c-0.176-2.427,0.52-4.681,2.08-6.412c1.388-1.735,3.471-2.78,5.553-3.127c-0.176-2.253,0.52-4.336,2.08-6.071
		C4.331,93.13,6.24,92.085,8.32,91.74c0-2.083,0.695-4.165,2.082-5.9c0.869-1.041,1.734-1.733,2.949-2.255
		c0-0.346,0.173-0.869,0.173-1.215h-73.9v45.28h-0.345c0,6.071,4.856,10.924,10.928,10.924H2.77c5.205,0,9.54-3.638,10.582-8.318
		c-0.692-0.354-1.389-0.699-2.08-1.221C9.881,127.826,9.016,126.436,8.496,124.699z"/>
	<path display="inline" fill="#3E253C" d="M-81.712,106.489c0,5.721,4.685,10.406,10.409,10.406h7.287v-20.82h-7.287
		C-77.027,96.075-81.712,100.763-81.712,106.489z"/>
	<path display="inline" fill="#3E253C" d="M115.816,126.339c0,0,1.724,0,4.089,0c1.078,0,2.366,0,3.661,0
		c20.877-1.293,45.41-8.825,52.943-36.16H62.872C69.112,111.703,86.762,123.968,115.816,126.339z"/>
	<path display="inline" fill="#3E253C" d="M-161-110v325h420v-325H-161z M147.886,125.907l2.798,13.559
		c0.216,0.646,0,1.295-0.43,1.719c-0.431,0.648-1.077,0.864-1.725,0.864H90.85c-0.646,0-1.29-0.433-1.719-0.864
		c-0.432-0.424-0.646-1.072-0.432-1.719l2.798-13.559v-0.215c-15.392-5.57-25.786-15.24-31.126-29.065
		c-1.316,2.254-3.639,3.909-6.425,4.306c-1.737,0.347-3.473,0-5.033-0.691c-1.216,1.214-2.945,1.905-4.683,2.258
		c-0.176,0-0.522,0-0.692,0c0.517,0.346,1.215,0.692,1.731,1.04c3.819,3.12,4.339,8.671,1.214,12.489
		c-1.385,1.731-3.294,2.773-5.374,3.121c0,2.082-0.697,4.165-2.082,5.896c-1.391,1.735-3.473,2.78-5.551,3.128
		c0.171,2.252-0.521,4.335-2.082,6.065c-1.737,2.082-4.165,3.126-6.768,3.126c-2.08,0-3.989-0.698-5.723-2.082
		c-1.042-0.868-1.91-2.083-2.43-3.298c-1.909,5.896-7.285,10.063-13.705,10.063H-49.62c-7.98,0-14.397-6.419-14.397-14.398v-7.286
		h-7.287c-7.634,0-13.878-6.242-13.878-13.875c0-7.639,6.244-13.881,13.878-13.881h7.287V78.727H13.35
		c-1.042-1.215-1.734-2.775-2.08-4.336c-0.347-2.255,0.173-4.682,1.733-6.59c1.388-1.91,3.47-3.125,5.899-3.471
		c1.733-0.174,3.467,0,5.027,0.694c1.214-1.214,2.951-1.909,4.688-2.255c1.73-0.346,3.468,0,5.028,0.691
		c1.215-1.215,2.95-1.906,4.685-2.252c1.733-0.174,3.47,0,5.03,0.691c1.215-1.214,2.951-1.906,4.685-2.254
		c4.854-0.694,9.367,2.777,10.062,7.459c0.331,1.992-0.136,4.135-1.239,5.836c0.424-0.416,0.848-0.627,1.479-0.627H181.03
		c0.646,0,1.078,0.216,1.505,0.646c0.43,0.432,0.646,0.861,0.646,1.508C182.108,105.462,165.318,119.45,147.886,125.907z"/>
	<path display="inline" fill="#3E253C" d="M61.794,85.878H177.37c0.646-2.801,1.078-6.026,1.293-9.257H60.503
		C60.719,79.852,61.147,82.865,61.794,85.878z"/>
	<path display="inline" fill="#3E253C" d="M123.782,130.642c-1.511,0.215-2.799,0.215-4.093,0.215c-2.364,0-4.301-0.215-4.301-0.215
		c-7.32-0.433-13.776-1.721-19.803-3.446l-2.155,10.552h52.519l-2.368-10.552C136.691,129.354,129.593,130.209,123.782,130.642z"/>
</g>
<g>
	<path fill="#1B2631" d="M44.928,95.927c-0.984,0-1.969-0.889-2.162-2.004c0-0.229,0-0.447-0.199-0.675
		c-0.984,0.675-1.969,1.118-3.146,1.118c-1.969,0.445-3.932,0-5.705-0.891c-1.377,1.562-3.344,2.451-5.312,2.896
		c-0.396,0-0.985,0.229-1.378,0.229c-1.377,0-2.754-0.455-3.934-0.898c-0.984,0.443-2.166,0.225-3.148-0.664
		c-0.787-0.898-1.182-2.008-0.982-3.35c-0.789-1.336-1.576-3.123-1.772-4.902c-0.394-2.904,0.196-5.801,1.573-8.033
		c-1.178-1.116-2.162-2.678-2.754-4.238c-0.196-0.223-0.196-0.672-0.393-0.895c-0.198,0.223-0.393,0.449-0.59,0.672
		c-1.18,1.783-1.77,4.012-1.18,6.246c0.194,0.668,0,1.337-0.395,2.008c-0.395,0.446-0.982,0.891-1.574,0.891
		c-1.967-0.225-3.934,0.672-5.115,2.451c-1.377,1.789-1.771,4.24-1.18,6.473c0.195,0.67,0,1.562-0.393,2.006
		c-0.395,0.672-1.182,0.893-1.771,0.893c-2.164-0.221-4.132,0.668-5.51,2.448c-0.983,1.344-1.573,3.122-1.377,5.134
		c0.198,1.781,0.983,3.562,2.166,4.68c1.179,1.115,2.753,1.789,4.326,1.561c0.984,0,1.968,0.896,2.166,2.015
		c0.195,1.778,0.982,3.341,2.164,4.456c1.179,1.117,2.752,1.781,4.326,1.562c0.984,0,1.968,0.893,2.166,2.006
		c0.194,1.789,0.982,3.348,2.162,4.459c0,0,0,0,0.197,0c1.18,1.115,2.557,1.561,3.936,1.561c-0.099,0-0.16,0-0.197,0
		c0.982,0,1.967,0.896,2.164,2.006c0.195,1.787,0.984,3.35,2.164,4.463c1.179,1.109,2.557,1.564,3.934,1.564
		c1.773,0,3.543-0.896,4.721-2.457c1.379-1.783,1.771-4.234,1.186-6.469c-0.201-0.668,0-1.561,0.391-2.004
		c0.393-0.445,0.986-0.896,1.572-0.896h0.197c2.162,0.225,4.133-0.664,5.51-2.453c1.178-1.779,1.77-4.012,1.178-6.244
		c-0.193-0.664,0-1.337,0.393-2.006c0.396-0.445,0.984-0.891,1.576-0.891c1.969,0.225,3.934-0.672,5.117-2.452
		c2.162-2.897,1.77-7.362-0.789-9.813C48.077,96.372,46.502,95.702,44.928,95.927z M16.172,104.756
		c-0.195,0.447-0.59,0.672-0.983,0.899c-1.18,0.437-2.556,0.437-3.542-0.452c-1.377-1.336-1.573-3.567-0.393-5.131
		c0.983-1.333,2.755-1.779,3.935-0.887c0.196,0.223,0.394,0.223,0.591,0.441C17.157,100.971,17.354,103.196,16.172,104.756z
		 M27.32,117.604c-1.737,0-3.147-1.6-3.147-3.567s1.41-3.575,3.147-3.575c1.74,0,3.149,1.607,3.149,3.575
		S29.06,117.604,27.32,117.604z M36.353,106.092c-1.738,0-3.147-1.589-3.147-3.562c0-1.975,1.409-3.572,3.147-3.572
		c1.742,0,3.148,1.598,3.148,3.572C39.501,104.503,38.095,106.092,36.353,106.092z"/>
	<path fill="#1B2631" d="M9.911,121.571c-1.967-0.225-3.935-1.115-5.312-2.451c-1.575-1.561-2.558-3.35-3.148-5.572
		c-1.969-0.227-3.936-1.117-5.313-2.452c-1.966-2.015-3.343-4.692-3.54-7.815c-0.196-3.12,0.59-6.018,2.36-8.242
		c1.573-2.232,3.934-3.574,6.296-4.021c-0.196-2.895,0.59-5.573,2.36-7.805c1.575-2.227,3.739-3.568,6.099-4.015
		c0-2.677,0.787-5.354,2.361-7.583c0.982-1.34,1.966-2.229,3.343-2.9c0-0.444,0.198-1.115,0.198-1.561h-83.81v58.213h-0.392
		c0,7.807,5.508,14.043,12.394,14.043h59.61c5.902,0,10.82-4.676,11.999-10.693c-0.785-0.455-1.571-0.896-2.36-1.57
		C11.484,125.591,10.5,123.804,9.911,121.571z"/>
	<path fill="#1B2631" d="M-92.392,98.161c0,7.354,5.313,13.377,11.806,13.377h8.263V84.773h-8.263
		C-87.079,84.773-92.392,90.799-92.392,98.161z"/>
	<path fill="#1B2631" d="M62.633,73.62c-0.588-0.223-0.984-0.889-1.176-1.783c0-0.668,0.191-1.562,0.588-2.008
		c1.572-1.56,2.357-3.793,1.965-6.244c-0.195-2.229-1.57-4.013-3.342-5.129c-0.59-0.223-0.982-0.891-0.982-1.561
		c0-0.668,0.193-1.339,0.586-2.007c1.578-1.784,2.361-4.013,1.969-6.245c-0.391-3.791-3.539-6.468-6.885-5.8
		c-1.572,0.226-2.949,1.116-3.934,2.677c-0.592,0.893-1.77,1.116-2.754,0.445c-1.377-1.113-2.754-1.562-4.525-1.336
		c-1.576,0.223-2.953,1.118-3.938,2.675c-0.59,0.894-1.771,1.116-2.754,0.449c-1.377-1.116-2.754-1.561-4.525-1.339
		c-1.57,0.223-2.947,1.113-3.932,2.675c-0.591,0.892-1.77,1.115-2.756,0.444c-1.377-1.113-2.754-1.562-4.523-1.335
		c-1.574,0.223-2.953,1.335-3.936,2.677c-0.984,1.562-1.377,3.342-1.18,5.129c0.195,2.229,1.572,4.014,3.344,5.129
		c0.59,0.223,0.982,0.891,0.982,1.561c0,0.668-0.195,1.336-0.588,2.006c-0.395,0.446-0.789,0.891-0.984,1.562
		c-0.197,0.224-0.197,0.669-0.393,0.892c-0.199,0.67-0.395,1.561-0.395,2.232c0,0.443,0,0.889,0,1.336
		c0,0.225,0.195,0.67,0.195,0.893c0.199,0.671,0.395,1.117,0.591,1.562c0.591,1.116,1.573,2.229,2.755,2.899
		c0.59,0.223,0.984,0.891,1.181,1.783c0,0.669-0.196,1.561-0.591,2.006c-1.573,1.566-2.359,3.799-1.967,6.25
		c0.195,0.891,0.394,1.781,0.787,2.451c0.785,1.562,1.967,2.679,3.344,3.123c0.787,0.227,1.772,0.447,2.756,0.227
		c1.573-0.227,2.95-1.116,3.932-2.677c0.396-0.673,0.984-0.897,1.576-0.897c0.393,0,0.785,0.225,1.18,0.45
		c1.375,1.116,2.754,1.562,4.521,1.337c0.594,0,1.186-0.221,1.771-0.673c0.592-0.217,1.184-0.664,1.576-1.333
		c0.197-0.227,0.393-0.445,0.592-0.672c0.193-0.445,0.586-0.664,0.982-0.664c0.588-0.225,1.18-0.225,1.771,0.219
		c1.377,1.117,2.756,1.561,4.525,1.336c1.377-0.219,2.754-1.109,3.738-2.453c0.586-0.89,1.771-1.114,2.752-0.444
		c1.377,1.118,2.756,1.562,4.527,1.343c3.34-0.454,5.703-4.021,5.113-7.811C65.78,76.743,64.604,74.737,62.633,73.62z
		 M28.813,61.315c0-1.974,1.41-3.571,3.146-3.571c1.738,0,3.148,1.598,3.148,3.571c0,1.97-1.41,3.567-3.148,3.567
		C30.224,64.883,28.813,63.285,28.813,61.315z M34.434,80.132c-1.77,0.222-3.146-1.115-3.539-2.677c0-0.223,0-0.223,0-0.445
		c-0.199-2.006,0.984-3.79,2.754-4.238c1.771-0.223,3.348,1.115,3.74,3.123C37.389,77.9,36.205,79.91,34.434,80.132z M45.352,59.795
		c0-1.974,1.412-3.567,3.15-3.567s3.15,1.594,3.15,3.567c0,1.97-1.412,3.567-3.15,3.567S45.352,61.765,45.352,59.795z
		 M50.587,78.301c-1.742,0-3.15-1.595-3.15-3.567c0-1.974,1.408-3.567,3.15-3.567c1.738,0,3.146,1.594,3.146,3.567
		C53.734,76.706,52.326,78.301,50.587,78.301z"/>
	<path fill="#1B2631" d="M131.622,123.679c0,0,1.955,0,4.639,0c1.223,0,2.682,0,4.15,0c23.678-1.66,51.498-11.344,60.043-46.488
		H71.579C78.657,104.862,98.67,120.63,131.622,123.679z"/>
	<path fill="#1B2631" d="M140.655,129.21c-1.713,0.277-3.172,0.277-4.641,0.277c-2.684,0-4.879-0.277-4.879-0.277
		c-8.303-0.555-15.621-2.211-22.457-4.426l-2.443,13.561h59.561l-2.686-13.561C155.295,127.556,147.245,128.655,140.655,129.21z"/>
	<path fill="#1B2631" d="M70.356,71.662h131.072c0.733-3.601,1.223-7.749,1.469-11.899H68.891
		C69.137,63.913,69.622,67.786,70.356,71.662z"/>
</g>
<path fill="none" d="M44.196,40.698v-0.789c-0.149,0.012-0.298,0.021-0.448,0.038c-1.967,0.445-3.936,1.335-5.314,2.897
	c-1.768-0.891-3.736-1.335-5.701-0.891c-1.969,0.446-3.938,1.339-5.314,2.9c-1.77-0.893-3.737-1.116-5.703-0.893
	c-2.754,0.445-5.115,2.006-6.689,4.461c-1.77,2.455-2.361,5.574-1.969,8.475c0.395,2.006,1.182,4.012,2.36,5.574h-87.741v17.844
	h-8.263c-8.659,0-15.739,8.027-15.739,17.848c0,9.812,7.081,17.836,15.739,17.836h8.263v9.369c0,10.256,7.277,18.51,16.33,18.51
	H3.418c7.278,0,13.377-5.359,15.543-12.936c0.588,1.561,1.572,3.123,2.754,4.238c1.966,1.779,4.131,2.68,6.49,2.68
	c2.951,0,5.705-1.346,7.674-4.021c1.771-2.229,2.555-4.904,2.363-7.801c2.355-0.445,4.717-1.789,6.293-4.018
	c1.57-2.227,2.361-4.904,2.361-7.582c2.359-0.443,4.525-1.787,6.096-4.012c3.543-4.91,2.955-12.046-1.377-16.059
	c-0.586-0.443-1.377-0.891-1.963-1.336c0.193,0,0.586,0,0.785,0c1.969-0.45,3.932-1.342,5.309-2.902
	c1.77,0.889,3.74,1.336,5.711,0.889c3.158-0.51,5.792-2.638,7.284-5.535c6.057,17.774,17.845,30.206,35.3,37.367v0.279
	l-3.174,17.428c-0.242,0.832,0,1.664,0.49,2.211c0.486,0.555,1.217,1.109,1.949,1.109h65.414c0.732,0,1.469-0.277,1.957-1.109
	c0.486-0.547,0.729-1.379,0.486-2.211l-3.174-17.428c19.77-8.304,38.813-26.287,40.028-66.134c0-0.829-0.244-1.384-0.73-1.938
	c-0.484-0.555-0.975-0.832-1.707-0.832H66.45c-0.716,0-1.196,0.271-1.677,0.804c1.25-2.185,1.78-4.941,1.403-7.5
	c-0.789-6.019-5.904-10.48-11.41-9.586c-1.967,0.445-3.936,1.335-5.312,2.896c-0.409-0.206-0.83-0.372-1.257-0.509v0.37H44.196z"/>
<path fill="none" stroke="#FFFFFF" stroke-width="4" stroke-miterlimit="10" d="M46.196-11.015"/>
<path fill="none" stroke="#FFFFFF" stroke-width="4" stroke-miterlimit="10" d="M46.196-110"/>
<g>
	<path fill="#3E253C" d="M256.196-110h-208V40.328c0.428,0.137,0.849,0.304,1.257,0.509c1.377-1.561,3.346-2.451,5.312-2.896
		c5.506-0.894,10.621,3.567,11.41,9.586c0.377,2.559-0.154,5.315-1.403,7.5c0.481-0.534,0.96-0.804,1.677-0.804h139.131
		c0.732,0,1.223,0.277,1.707,0.832c0.486,0.555,0.73,1.109,0.73,1.938c-1.215,39.847-20.258,57.83-40.028,66.134l3.174,17.428
		c0.242,0.832,0,1.664-0.486,2.211c-0.488,0.832-1.225,1.109-1.957,1.109h-65.414c-0.732,0-1.463-0.555-1.949-1.109
		c-0.49-0.547-0.732-1.379-0.49-2.211l3.174-17.428v-0.279c-17.455-7.161-29.243-19.593-35.3-37.367
		c-1.492,2.897-4.126,5.025-7.284,5.535c-1.971,0.447-3.941,0-5.711-0.889c-1.377,1.561-3.34,2.452-5.309,2.902
		c-0.199,0-0.592,0-0.785,0c0.586,0.445,1.377,0.893,1.963,1.336c4.332,4.013,4.92,11.148,1.377,16.059
		c-1.57,2.225-3.736,3.568-6.096,4.012c0,2.678-0.791,5.355-2.361,7.582c-1.576,2.229-3.938,3.572-6.293,4.018
		c0.191,2.896-0.592,5.572-2.363,7.801c-1.969,2.676-4.723,4.021-7.674,4.021c-2.359,0-4.524-0.9-6.49-2.68
		c-1.182-1.115-2.166-2.678-2.754-4.238c-2.166,7.576-8.265,12.936-15.543,12.936h-59.412c-9.053,0-16.33-8.254-16.33-18.51v-9.369
		h-8.263c-8.659,0-15.739-8.023-15.739-17.836c0-9.82,7.081-17.848,15.739-17.848h8.263V62.47h87.741
		c-1.179-1.562-1.966-3.568-2.36-5.574c-0.393-2.9,0.199-6.02,1.969-8.475c1.574-2.455,3.936-4.016,6.689-4.461
		c1.966-0.223,3.934,0,5.703,0.893c1.377-1.561,3.346-2.454,5.314-2.9c1.965-0.445,3.934,0,5.701,0.891
		c1.379-1.562,3.348-2.452,5.314-2.897c0.149-0.017,0.298-0.026,0.448-0.038V-110h-208v325h208v-54.068h4V215h208V-110z"/>
</g>
<path fill="#C06C69" d="M133.449-13.659c-5.23,3.139-13.599,12.554-7.671,25.458c2.442,5.581,6.626,8.719,10.113,11.507
	c6.277,4.883,9.416,7.323,2.79,18.832c-1.045,1.744-0.348,3.836,1.396,4.883c0.696,0.349,1.046,0.349,1.743,0.349
	c1.395,0,2.441-0.696,3.138-1.743c9.416-16.738,2.094-22.668-4.533-27.899c-3.138-2.44-6.276-4.883-8.021-8.717
	c-4.883-10.115,3.836-16.043,4.883-16.739c1.395-1.047,2.092-3.138,1.046-4.883C137.287-14.007,135.195-14.703,133.449-13.659z"/>
<path fill="#C06C69" d="M153.329-49.229c-0.347-2.091-2.441-3.137-4.184-2.44c-5.579,1.744-16.39,8.719-13.949,22.668
	c0.696,5.929,3.834,10.112,6.625,13.599c4.882,6.278,7.323,9.415-2.093,18.832c-1.395,1.396-1.395,3.487,0,4.883
	c0.697,0.698,1.395,1.045,2.441,1.045c0.697,0,1.743-0.347,2.441-1.045c13.6-13.6,7.671-21.274,2.789-27.898
	c-2.441-3.138-4.883-6.278-5.579-10.461c-2.093-11.508,8.719-14.998,9.066-14.998C152.631-45.742,153.677-47.833,153.329-49.229z"/>
<path fill="#C06C69" d="M199.737,139.348c-1.858-1.11-4.09-0.742-5.2,1.117l-7.801,12.256h-277.06l-6.314-12.628
	c-0.743-1.855-2.972-2.601-4.829-1.487c-1.857,0.742-2.6,2.977-1.486,4.832l7.429,14.855c0.744,1.111,1.857,2.227,3.344,2.227
	h281.143c1.111,0,2.603-0.742,2.975-1.859l8.91-13.74C201.964,142.692,201.592,140.465,199.737,139.348z"/>
</svg>
