<?xml version="1.0" encoding="utf-8"?>
<!-- Generator: Adobe Illustrator 16.0.0, SVG Export Plug-In . SVG Version: 6.00 Build 0)  -->
<!DOCTYPE svg PUBLIC "-//W3C//DTD SVG 1.1//EN" "http://www.w3.org/Graphics/SVG/1.1/DTD/svg11.dtd">
<svg version="1.1" id="Layer_1" xmlns="http://www.w3.org/2000/svg" xmlns:xlink="http://www.w3.org/1999/xlink" x="0px" y="0px"
	 width="420px" height="325px" viewBox="0 0 420 325" enable-background="new 0 0 420 325" xml:space="preserve">
<path fill="none" stroke="#FFFFFF" stroke-width="4" stroke-miterlimit="10" d="M210,98.985"/>
<path fill="none" stroke="#FFFFFF" stroke-width="4" stroke-miterlimit="10" d="M210,0"/>
<path fill="none" d="M109.636,162.634h17.454l-5.368-8.729c-1.004-1.677-0.668-3.693,1.005-4.699
	c1.682-1.007,3.694-0.671,4.699,1.006l7.722,12.421h14.435l3.022-18.462c0.336-1.679,2.345-3.021,4.027-2.687
	c1.676,0.337,3.018,2.351,2.682,4.03l-3.018,17.452h10.403c3.694-8.726,10.071-30.88,4.031-40.613
	c-1.682-3.02-4.699-4.7-9.063-5.034c-4.362-0.673-7.39,0.333-9.399,2.684c-2.354,2.686-2.686,6.713-2.354,10.405
	c1.008,2.686,1.345,5.037,1.008,6.713c0,1.677-1.34,3.02-3.018,3.02c-1.345,0.336-3.022-0.67-3.358-2.35c0,0-0.668-2.347-1.004-5.37
	c-1.345-2.687-4.363-5.706-11.417-6.712c-3.018-0.337-5.368,0-7.044,1.679c-3.695,3.691-4.027,11.746-3.695,14.433
	c0.336,1.343-0.668,3.02-2.35,3.356c-1.677,0.67-3.354-0.336-4.026-1.68c-0.337-1.007-2.351-3.691-4.7-4.027
	c-1.677,0-4.363,1.343-6.713,4.699c-3.022,3.691-4.363,7.384-3.359,10.406C101.583,158.941,106.955,162.298,109.636,162.634z"/>
<path fill="none" d="M200.936,160.955c0.672-1.006,1.682-2.013,2.686-3.02c-1.676-1.681-6.712-4.7-11.749-7.386
	c-1.677-0.671-2.35-2.687-1.346-4.363c0.673-1.677,2.689-2.35,4.368-1.343c6.04,3.356,10.067,6.042,12.753,8.393
	c7.386-9.063,16.112-21.819,15.103-30.211c-1.005-8.053-6.709-13.089-11.408-14.766c-4.7-1.679-9.063-1.343-11.754,1.341
	c-2.345,2.014-5.03,5.036-7.38,8.392c10.071,2.35,17.789,11.413,18.124,11.746c1.347,1.344,1.01,3.694-0.335,4.7
	c-0.674,0.336-1.347,0.672-2.015,0.672c-1.004,0-2.014-0.672-2.685-1.343c-0.337,0-8.391-9.732-17.454-9.732
	c-4.364,6.713-7.716,12.419-7.716,12.753l-0.337,0.336c-0.336,10.069-3.695,20.812-5.708,26.181h25.842
	C199.927,162.298,200.263,161.625,200.936,160.955z"/>
<path fill="none" d="M160.995,228.754c-2.687-6.371-3.023-12.416-0.672-17.789c3.689-9.396,9.735-14.096,18.46-14.096
	c5.708,0,12.754,2.016,20.807,6.379c3.695,2.012,8.395,3.355,13.762,4.363c8.061-8.727,13.428-20.812,14.771-37.594h-119.16v0.336
	H87.148c2.354,35.244,24.506,55.047,65.793,58.4C152.941,228.754,156.968,228.754,160.995,228.754z"/>
<path fill="none" d="M297.608,189.486c-2.02-1.008-4.031-1.68-6.044-1.68c-6.379,0-13.762,5.705-21.144,11.412
	c-8.395,6.379-17.791,13.428-29.207,14.77c0,0-7.045,1.34-16.107,1.34c-3.358,0-6.718-0.336-9.735-0.668
	c-3.021-0.672-5.708-1.008-8.39-1.676c-4.032-1.01-7.721-2.355-11.08-4.027c-7.045-3.697-13.09-5.709-17.453-5.709
	c-6.044,0-9.735,3.018-12.417,9.736c-2.019,5.367-0.673,10.404,1.003,13.762c0.337,0.336,0.337,0.668,0.673,1.004
	c1.341,2.014,3.023,4.027,4.696,6.041c3.026,3.021,6.717,6.039,11.079,8.059c2.351,1.008,4.7,2.012,7.045,2.68
	c1.683,0.674,3.359,1.01,5.036,1.346c11.752,2.688,23.161,3.354,30.883,3.354c4.701,0,9.396-0.336,13.764-0.666
	c7.383-0.674,33.228-4.701,54.375-22.49c7.386-6.043,11.75-15.781,11.075-24.168C305.324,198.211,303.648,192.842,297.608,189.486z"
	/>
<path fill="none" d="M163.008,235.137c-1.341,0-3.359,0-4.7,0c-3.022,0-5.367,0-5.367,0c-8.73-0.674-16.453-2.02-23.498-4.029
	l-2.353,11.078v0.336h44.645c-2.35-2.354-4.701-4.705-6.713-7.385C164.349,235.137,163.676,235.137,163.008,235.137z"/>
<g>
	<path fill="none" d="M214.169,156.593c0.672-1.006,1.682-2.013,2.686-3.02c-1.676-1.681-6.712-4.7-11.749-7.386
		c-1.677-0.671-2.35-2.687-1.346-4.363c0.673-1.677,2.689-2.35,4.368-1.343c6.041,3.356,10.067,6.042,12.753,8.393
		c7.387-9.063,16.111-21.819,15.104-30.211c-1.006-8.053-6.709-13.089-11.408-14.766c-4.7-1.679-9.063-1.343-11.754,1.341
		c-2.345,2.014-5.031,5.036-7.38,8.392c10.071,2.35,17.789,11.413,18.125,11.746c1.346,1.344,1.01,3.694-0.336,4.7
		c-0.674,0.336-1.346,0.672-2.014,0.672c-1.005,0-2.014-0.672-2.686-1.343c-0.337,0-8.39-9.732-17.454-9.732
		c-4.364,6.713-7.716,12.419-7.716,12.753l-0.337,0.336c-0.336,10.069-3.695,20.812-5.708,26.181h25.842
		C213.16,157.937,213.496,157.263,214.169,156.593z"/>
	<path fill="none" d="M122.869,158.272h17.454l-5.368-8.729c-1.004-1.677-0.668-3.693,1.005-4.699
		c1.682-1.007,3.694-0.671,4.699,1.006l7.722,12.421h14.435l3.022-18.462c0.336-1.679,2.345-3.021,4.027-2.687
		c1.676,0.337,3.018,2.351,2.682,4.03l-3.018,17.452h10.403c3.694-8.726,10.071-30.88,4.031-40.613
		c-1.682-3.02-4.699-4.7-9.063-5.034c-4.362-0.673-7.39,0.333-9.399,2.684c-2.354,2.686-2.686,6.713-2.354,10.405
		c1.008,2.686,1.345,5.037,1.008,6.713c0,1.677-1.34,3.02-3.018,3.02c-1.345,0.336-3.022-0.67-3.358-2.35
		c0,0-0.668-2.347-1.004-5.37c-1.345-2.687-4.363-5.706-11.417-6.712c-3.018-0.337-5.368,0-7.044,1.679
		c-3.695,3.691-4.027,11.746-3.695,14.433c0.336,1.343-0.668,3.02-2.35,3.356c-1.677,0.67-3.354-0.336-4.026-1.68
		c-0.337-1.007-2.351-3.691-4.7-4.027c-1.677,0-4.363,1.343-6.713,4.699c-3.022,3.691-4.363,7.384-3.359,10.406
		C114.816,154.58,120.188,157.937,122.869,158.272z"/>
	<path fill="none" d="M174.228,224.393c-2.687-6.371-3.023-12.416-0.672-17.789c3.689-9.396,9.735-14.096,18.46-14.096
		c5.708,0,12.754,2.016,20.808,6.379c3.695,2.012,8.395,3.355,13.762,4.363c8.061-8.727,13.428-20.812,14.771-37.594H122.196v0.336
		h-21.815c2.354,35.244,24.506,55.047,65.793,58.4C166.174,224.393,170.201,224.393,174.228,224.393z"/>
	<path fill="none" d="M176.241,230.775c-1.341,0-3.359,0-4.7,0c-3.022,0-5.367,0-5.367,0c-8.73-0.674-16.453-2.02-23.498-4.029
		l-2.353,11.078v0.336h44.645c-2.35-2.354-4.701-4.705-6.713-7.385C177.582,230.775,176.909,230.775,176.241,230.775z"/>
	<path fill="none" d="M310.841,185.125c-2.02-1.008-4.031-1.68-6.045-1.68c-6.379,0-13.762,5.705-21.143,11.412
		c-8.395,6.379-17.791,13.428-29.207,14.77c0,0-7.045,1.34-16.107,1.34c-3.359,0-6.719-0.336-9.736-0.668
		c-3.021-0.672-5.707-1.008-8.39-1.676c-4.032-1.01-7.722-2.355-11.08-4.027c-7.045-3.697-13.09-5.709-17.453-5.709
		c-6.044,0-9.735,3.018-12.417,9.736c-2.019,5.367-0.673,10.404,1.003,13.762c0.337,0.336,0.337,0.668,0.673,1.004
		c1.341,2.014,3.023,4.027,4.696,6.041c3.026,3.021,6.717,6.039,11.079,8.059c2.351,1.008,4.7,2.012,7.045,2.68
		c1.683,0.674,3.359,1.01,5.036,1.346c11.752,2.688,23.162,3.354,30.882,3.354c4.701,0,9.396-0.336,13.764-0.666
		c7.383-0.674,33.229-4.701,54.375-22.49c7.387-6.043,11.75-15.781,11.076-24.168C318.556,193.85,316.88,188.48,310.841,185.125z"/>
	<g>
		<path fill="#3E253C" d="M176.241,232.021c-1.341,0-3.359,0-4.7,0c-3.022,0-5.367,0-5.367,0c-8.73-0.674-16.453-2.02-23.498-4.029
			l-2.353,11.078v0.336h44.645c-2.35-2.354-4.701-4.705-6.713-7.385C177.582,232.021,176.909,232.021,176.241,232.021z"/>
		<path fill="#1B2631" d="M220.213,209.869c-4.032-1.01-7.722-2.355-11.08-4.027c-7.045-3.697-13.09-5.709-17.453-5.709
			c-6.044,0-9.735,3.018-12.417,9.736c-2.019,5.367-0.673,10.404,1.003,13.762c0.337,0.336,0.337,0.668,0.673,1.004
			c1.341,2.014,3.023,4.027,4.696,6.041c3.026,3.021,6.717,6.039,11.079,8.059c2.351,1.008,4.7,2.012,7.045,2.68
			c1.683,0.674,3.359,1.01,5.036,1.346c11.752,2.688,23.162,3.354,30.882,3.354c4.701,0,9.396-0.336,13.764-0.666
			c7.383-0.674,33.229-4.701,54.375-22.49c7.387-6.043,11.75-15.781,11.076-24.168c-0.338-3.693-2.014-9.062-8.053-12.418
			c-2.02-1.008-4.031-1.68-6.045-1.68c-6.379,0-13.762,5.705-21.143,11.412c-8.395,6.379-17.791,13.428-29.207,14.77
			c0,0-7.045,1.34-16.107,1.34c-3.359,0-6.719-0.336-9.736-0.668C225.582,210.873,222.896,210.537,220.213,209.869z"/>
		<path fill="#1B2631" d="M122.869,159.519h17.454l-5.368-8.729c-1.004-1.677-0.668-3.693,1.005-4.699
			c1.682-1.007,3.694-0.671,4.699,1.006l7.722,12.421h14.435l3.022-18.462c0.336-1.679,2.345-3.021,4.027-2.687
			c1.676,0.337,3.018,2.351,2.682,4.03l-3.018,17.452h10.403c3.694-8.726,10.071-30.88,4.031-40.613
			c-1.682-3.02-4.699-4.7-9.063-5.034c-4.362-0.673-7.39,0.333-9.399,2.684c-2.354,2.686-2.686,6.713-2.354,10.405
			c1.008,2.686,1.345,5.037,1.008,6.713c0,1.677-1.34,3.02-3.018,3.02c-1.345,0.336-3.022-0.67-3.358-2.35
			c0,0-0.668-2.347-1.004-5.37c-1.345-2.687-4.363-5.706-11.417-6.712c-3.018-0.337-5.368,0-7.044,1.679
			c-3.695,3.691-4.027,11.746-3.695,14.433c0.336,1.343-0.668,3.02-2.35,3.356c-1.677,0.67-3.354-0.336-4.026-1.68
			c-0.337-1.007-2.351-3.691-4.7-4.027c-1.677,0-4.363,1.343-6.713,4.699c-3.022,3.691-4.363,7.384-3.359,10.406
			C114.816,155.826,120.188,159.183,122.869,159.519z"/>
		<path fill="#1B2631" d="M122.196,167.238h-21.815c2.354,35.244,24.506,55.047,65.793,58.4c0,0,4.027,0,8.054,0
			c-2.687-6.371-3.023-12.416-0.672-17.789c3.689-9.396,9.735-14.096,18.46-14.096c5.708,0,12.754,2.016,20.808,6.379
			c3.695,2.012,8.395,3.355,13.762,4.363c8.061-8.727,13.428-20.812,14.771-37.594H122.196V167.238z"/>
		<path fill="#3E253C" d="M212,0v99.323c4.266-2.161,9.495-2.292,14.922-0.223c1.01,0.336,1.682,0.67,2.355,1.007l3.354-28.868
			c0.338-2.014,1.678-3.357,3.689-3.021c2.02,0.336,3.359,2.014,3.025,3.693l-2.688,24.167l7.049-9.735
			c1.006-1.343,3.357-1.677,4.701-0.671c1.34,1.007,1.676,3.356,0.668,4.7l-11.746,15.775c3.018,3.356,4.699,8.057,5.373,12.753
			c1.678,14.435-15.107,34.237-21.484,41.286h23.83c1.008,0,1.682,0.337,2.354,1.007c0.668,0.67,1.006,1.343,1.006,2.349
			c-0.676,18.462-5.705,31.889-13.428,41.959c1.34,0,3.023,0,4.365,0c8.725,0,15.102-1.344,15.102-1.344
			c9.4-1.01,17.453-7.383,25.51-13.426c8.395-6.714,16.449-12.756,25.176-12.756c3.354,0,6.377,1.006,9.4,2.686
			c6.711,3.693,10.74,10.07,11.406,17.789c0.674,10.406-4.695,22.486-13.426,29.877c-22.152,18.457-47.996,22.82-58.066,23.828
			c-4.699,0.338-9.398,0.674-14.434,0.674c-9.395,0-23.494-0.674-37.588-4.699c-2.354-0.672-4.7-1.346-6.717-2.355h-59.412
			c-1.005,0-2.009-0.668-2.682-1.34c-0.673-0.668-1.009-1.678-0.673-2.688l3.019-15.775c-27.189-10.066-41.283-30.879-41.956-61.422
			c0-0.67,0.336-1.68,1.005-2.351c0.673-0.67,1.345-1.006,2.354-1.006h14.099c-1.682-1.677-3.359-4.027-4.031-6.713
			c-1.677-5.035,0-10.742,4.368-16.447c4.027-5.371,8.39-7.72,12.753-7.384c1.34,0,2.681,0.671,4.027,1.343
			c0.672-4.029,2.013-8.727,5.372-11.749c2.009-2.014,6.04-4.363,12.417-3.356c4.7,0.67,8.054,2.013,10.745,4.029
			c0.668-2.687,1.672-5.036,3.354-7.05c3.354-4.029,8.39-5.706,15.102-5.37c6.713,0.334,11.413,3.021,14.435,8.055
			c1.004,2.016,1.677,4.028,2.351,6.378c4.245-6.532,10.079-15.598,15.646-20.721V0H0v325h208v-60.906h4V325h208V0H212z"/>
		<path fill="#1B2631" d="M223.568,126.622c1.346,1.344,1.01,3.694-0.336,4.7c-0.674,0.336-1.346,0.672-2.014,0.672
			c-1.005,0-2.014-0.672-2.686-1.343c-0.337,0-8.39-9.732-17.454-9.732c-4.364,6.713-7.716,12.419-7.716,12.753l-0.337,0.336
			c-0.336,10.069-3.695,20.812-5.708,26.181h25.842c0-1.006,0.336-1.679,1.01-2.349c0.672-1.006,1.682-2.013,2.686-3.02
			c-1.676-1.681-6.712-4.7-11.749-7.386c-1.677-0.671-2.35-2.687-1.346-4.363c0.673-1.677,2.689-2.35,4.368-1.343
			c6.041,3.356,10.067,6.042,12.753,8.393c7.387-9.063,16.111-21.819,15.104-30.211c-1.006-8.053-6.709-13.089-11.408-14.766
			c-4.7-1.679-9.063-1.343-11.754,1.341c-2.345,2.014-5.031,5.036-7.38,8.392C215.514,117.225,223.232,126.289,223.568,126.622z"/>
	</g>
</g>
<path fill="#C06C69" d="M354.623,244.197c-1.681-1.01-3.693-0.672-4.699,1.006l-7.727,11.748H76.024l-6.04-12.086
	c-0.673-1.678-2.686-2.344-4.363-1.34c-1.678,0.672-2.35,2.686-1.341,4.363l7.045,14.1c0.336,1.002,1.346,1.676,2.686,1.676h270.204
	c1.007,0,2.35-0.674,2.683-1.676l8.729-13.426C356.633,247.221,356.296,245.203,354.623,244.197z"/>
</svg>
