<?xml version="1.0" encoding="utf-8"?>
<!-- Generator: Adobe Illustrator 16.0.0, SVG Export Plug-In . SVG Version: 6.00 Build 0)  -->
<!DOCTYPE svg PUBLIC "-//W3C//DTD SVG 1.1//EN" "http://www.w3.org/Graphics/SVG/1.1/DTD/svg11.dtd">
<svg version="1.1" id="Layer_1" xmlns="http://www.w3.org/2000/svg" xmlns:xlink="http://www.w3.org/1999/xlink" x="0px" y="0px"
	 width="420px" height="325px" viewBox="-161 -110 420 325" enable-background="new -161 -110 420 325" xml:space="preserve">
<g display="none">
	<path display="inline" fill="#3E253C" d="M54.984,87.401c-0.521-0.173-0.867-0.692-1.038-1.388c0-0.52,0.171-1.215,0.518-1.562
		c1.389-1.213,2.082-2.951,1.735-4.856c-0.174-1.734-1.386-3.121-2.948-3.989c-0.52-0.173-0.865-0.693-0.865-1.216
		c0-0.52,0.17-1.041,0.516-1.561c1.391-1.389,2.083-3.121,1.736-4.856c-0.346-2.949-3.12-5.032-6.072-4.513
		c-1.385,0.178-2.598,0.869-3.467,2.084c-0.521,0.694-1.561,0.867-2.429,0.346c-1.215-0.866-2.428-1.215-3.989-1.037
		c-1.391,0.171-2.604,0.867-3.473,2.078c-0.52,0.695-1.561,0.869-2.429,0.349c-1.215-0.868-2.43-1.215-3.989-1.041
		c-1.386,0.173-2.599,0.866-3.468,2.079c-0.521,0.696-1.561,0.87-2.429,0.347c-1.215-0.864-2.43-1.214-3.989-1.038
		c-1.391,0.174-2.605,1.038-3.471,2.082c-0.868,1.215-1.214,2.6-1.041,3.99c0.173,1.734,1.387,3.121,2.951,3.99
		c0.519,0.172,0.865,0.691,0.865,1.215c0,0.518-0.174,1.037-0.52,1.56c-0.346,0.346-0.695,0.692-0.868,1.215
		c-0.173,0.172-0.173,0.52-0.347,0.691c-0.176,0.521-0.346,1.215-0.346,1.736c0,0.346,0,0.692,0,1.039
		c0,0.176,0.17,0.521,0.17,0.694c0.176,0.523,0.35,0.869,0.522,1.215c0.522,0.869,1.388,1.732,2.429,2.256
		c0.52,0.174,0.868,0.691,1.042,1.389c0,0.518-0.174,1.212-0.522,1.56c-1.388,1.217-2.08,2.954-1.734,4.86
		c0.174,0.692,0.347,1.385,0.692,1.907c0.695,1.215,1.736,2.083,2.951,2.429c0.692,0.175,1.561,0.346,2.429,0.175
		c1.388-0.175,2.603-0.867,3.468-2.082c0.35-0.521,0.869-0.697,1.391-0.697c0.346,0,0.691,0.176,1.038,0.351
		c1.215,0.869,2.429,1.215,3.99,1.04c0.521,0,1.043-0.171,1.561-0.522c0.522-0.171,1.043-0.518,1.39-1.039
		c0.174-0.176,0.346-0.346,0.522-0.521c0.17-0.348,0.516-0.519,0.865-0.519c0.519-0.176,1.041-0.176,1.563,0.171
		c1.214,0.868,2.429,1.215,3.989,1.039c1.214-0.171,2.429-0.862,3.296-1.906c0.517-0.694,1.561-0.869,2.428-0.348
		c1.213,0.868,2.43,1.215,3.992,1.044c2.945-0.351,5.027-3.126,4.508-6.074C57.761,89.829,56.722,88.27,54.984,87.401z
		 M26.537,78.557c0-1.534,1.242-2.777,2.774-2.777c1.532,0,2.775,1.243,2.775,2.777c0,1.531-1.243,2.774-2.775,2.774
		C27.779,81.331,26.537,80.088,26.537,78.557z M31.219,91.74c-1.562,0.171-2.774-0.87-3.122-2.083c0-0.173,0-0.173,0-0.347
		c-0.176-1.561,0.869-2.947,2.43-3.297c1.561-0.174,2.95,0.867,3.296,2.429C33.822,90.002,32.779,91.566,31.219,91.74z
		 M39.197,76.648c0-1.537,1.245-2.777,2.777-2.777c1.532,0,2.778,1.24,2.778,2.777c0,1.53-1.246,2.773-2.778,2.773
		C40.442,79.421,39.197,78.179,39.197,76.648z M43.538,89.829c-1.535,0-2.777-1.239-2.777-2.774c0-1.535,1.242-2.774,2.777-2.774
		c1.533,0,2.775,1.239,2.775,2.774C46.313,88.59,45.071,89.829,43.538,89.829z"/>
	<path display="inline" fill="#3E253C" d="M39.373,104.751c-0.868,0-1.736-0.691-1.906-1.56c0-0.176,0-0.347-0.177-0.522
		c-0.868,0.522-1.735,0.87-2.774,0.87c-1.736,0.345-3.467,0-5.03-0.694c-1.215,1.215-2.948,1.906-4.685,2.254
		c-0.347,0-0.869,0.176-1.215,0.176c-1.215,0-2.429-0.353-3.468-0.698c-0.868,0.346-1.909,0.175-2.774-0.517
		c-0.695-0.698-1.045-1.561-0.869-2.604c-0.695-1.039-1.39-2.429-1.56-3.814c-0.35-2.259,0.17-4.511,1.384-6.247
		c-1.038-0.868-1.906-2.083-2.429-3.298c-0.17-0.172-0.17-0.521-0.346-0.694c-0.173,0.174-0.347,0.349-0.52,0.522
		c-1.042,1.387-1.561,3.12-1.042,4.857c0.174,0.519,0,1.042-0.346,1.563c-0.346,0.346-0.868,0.691-1.387,0.691
		c-1.734-0.175-3.471,0.522-4.513,1.908c-1.214,1.39-1.561,3.297-1.041,5.032c0.176,0.522,0,1.215-0.346,1.562
		c-0.347,0.521-1.039,0.691-1.562,0.691c-1.906-0.171-3.643,0.521-4.857,1.905c-0.868,1.045-1.388,2.43-1.214,3.995
		c0.176,1.385,0.868,2.771,1.909,3.639c1.042,0.867,2.427,1.391,3.816,1.215c0.868,0,1.733,0.697,1.907,1.565
		c0.173,1.385,0.868,2.6,1.909,3.467c1.042,0.868,2.427,1.385,3.816,1.215c0.868,0,1.733,0.693,1.906,1.562
		c0.174,1.389,0.869,2.604,1.907,3.467c0,0,0,0,0.176,0c1.039,0.868,2.253,1.214,3.468,1.214c-0.085,0-0.138,0-0.17,0
		c0.865,0,1.733,0.699,1.906,1.561c0.173,1.391,0.868,2.604,1.907,3.474c1.041,0.862,2.255,1.213,3.47,1.213
		c1.564,0,3.124-0.697,4.163-1.912c1.214-1.384,1.56-3.291,1.044-5.028c-0.177-0.521,0-1.214,0.346-1.561
		c0.347-0.345,0.869-0.698,1.385-0.698h0.176c1.907,0.177,3.644-0.515,4.857-1.906c1.039-1.385,1.562-3.12,1.039-4.856
		c-0.17-0.517,0-1.04,0.346-1.561c0.35-0.348,0.868-0.694,1.391-0.694c1.736,0.177,3.468-0.521,4.512-1.905
		c1.907-2.254,1.56-5.726-0.695-7.634C42.147,105.099,40.761,104.576,39.373,104.751z M14.565,111.863
		c-0.173,0.347-0.52,0.521-0.865,0.697c-1.041,0.341-2.256,0.341-3.124-0.351c-1.215-1.04-1.387-2.776-0.346-3.99
		c0.864-1.039,2.429-1.386,3.47-0.693c0.17,0.178,0.346,0.178,0.52,0.348C15.434,108.916,15.607,110.648,14.565,111.863z
		 M22.198,120.885c-1.532,0-2.775-1.242-2.775-2.774c0-1.532,1.243-2.78,2.775-2.78c1.535,0,2.778,1.248,2.778,2.78
		C24.976,119.643,23.733,120.885,22.198,120.885z M28.79,112.901c-1.533,0-2.775-1.236-2.775-2.771c0-1.537,1.242-2.78,2.775-2.78
		c1.535,0,2.774,1.243,2.774,2.78C31.564,111.665,30.325,112.901,28.79,112.901z"/>
	<path display="inline" fill="#3E253C" d="M8.496,124.699c-1.736-0.177-3.47-0.868-4.685-1.905
		c-1.388-1.215-2.255-2.606-2.777-4.336c-1.734-0.177-3.468-0.869-4.683-1.908c-1.736-1.565-2.951-3.648-3.121-6.078
		c-0.176-2.427,0.52-4.681,2.08-6.412c1.388-1.735,3.471-2.78,5.553-3.127c-0.176-2.253,0.52-4.336,2.08-6.071
		C4.331,93.13,6.24,92.085,8.32,91.74c0-2.083,0.695-4.165,2.082-5.9c0.869-1.041,1.734-1.733,2.949-2.255
		c0-0.346,0.173-0.869,0.173-1.215h-73.9v45.28h-0.345c0,6.071,4.856,10.924,10.928,10.924H2.77c5.205,0,9.54-3.638,10.582-8.318
		c-0.692-0.354-1.389-0.699-2.08-1.221C9.881,127.826,9.016,126.436,8.496,124.699z"/>
	<path display="inline" fill="#3E253C" d="M-81.712,106.489c0,5.721,4.685,10.406,10.409,10.406h7.287v-20.82h-7.287
		C-77.027,96.075-81.712,100.763-81.712,106.489z"/>
	<path display="inline" fill="#3E253C" d="M115.816,126.339c0,0,1.724,0,4.089,0c1.078,0,2.366,0,3.661,0
		c20.877-1.293,45.41-8.825,52.943-36.16H62.872C69.112,111.703,86.762,123.968,115.816,126.339z"/>
	<path display="inline" fill="#3E253C" d="M-161-110v325h420v-325H-161z M147.886,125.907l2.798,13.559
		c0.216,0.646,0,1.295-0.43,1.719c-0.431,0.648-1.077,0.864-1.725,0.864H90.85c-0.646,0-1.29-0.433-1.719-0.864
		c-0.432-0.424-0.646-1.072-0.432-1.719l2.798-13.559v-0.215c-15.392-5.57-25.786-15.24-31.126-29.065
		c-1.316,2.254-3.639,3.909-6.425,4.306c-1.737,0.347-3.473,0-5.033-0.691c-1.216,1.214-2.945,1.905-4.683,2.258
		c-0.176,0-0.522,0-0.692,0c0.517,0.346,1.215,0.692,1.731,1.04c3.819,3.12,4.339,8.671,1.214,12.489
		c-1.385,1.731-3.294,2.773-5.374,3.121c0,2.082-0.697,4.165-2.082,5.896c-1.391,1.735-3.473,2.78-5.551,3.128
		c0.171,2.252-0.521,4.335-2.082,6.065c-1.737,2.082-4.165,3.126-6.768,3.126c-2.08,0-3.989-0.698-5.723-2.082
		c-1.042-0.868-1.91-2.083-2.43-3.298c-1.909,5.896-7.285,10.063-13.705,10.063H-49.62c-7.98,0-14.397-6.419-14.397-14.398v-7.286
		h-7.287c-7.634,0-13.878-6.242-13.878-13.875c0-7.639,6.244-13.881,13.878-13.881h7.287V78.727H13.35
		c-1.042-1.215-1.734-2.775-2.08-4.336c-0.347-2.255,0.173-4.682,1.733-6.59c1.388-1.91,3.47-3.125,5.899-3.471
		c1.733-0.174,3.467,0,5.027,0.694c1.214-1.214,2.951-1.909,4.688-2.255c1.73-0.346,3.468,0,5.028,0.691
		c1.215-1.215,2.95-1.906,4.685-2.252c1.733-0.174,3.47,0,5.03,0.691c1.215-1.214,2.951-1.906,4.685-2.254
		c4.854-0.694,9.367,2.777,10.062,7.459c0.331,1.992-0.136,4.135-1.239,5.836c0.424-0.416,0.848-0.627,1.479-0.627H181.03
		c0.646,0,1.078,0.216,1.505,0.646c0.43,0.432,0.646,0.861,0.646,1.508C182.108,105.462,165.318,119.45,147.886,125.907z"/>
	<path display="inline" fill="#3E253C" d="M61.794,85.878H177.37c0.646-2.801,1.078-6.026,1.293-9.257H60.503
		C60.719,79.852,61.147,82.865,61.794,85.878z"/>
	<path display="inline" fill="#3E253C" d="M123.782,130.642c-1.511,0.215-2.799,0.215-4.093,0.215c-2.364,0-4.301-0.215-4.301-0.215
		c-7.32-0.433-13.776-1.721-19.803-3.446l-2.155,10.552h52.519l-2.368-10.552C136.691,129.354,129.593,130.209,123.782,130.642z"/>
</g>
<g>
	<path fill="#3E253C" d="M8.856,123.266c-1.966-0.198-3.935-0.983-5.312-2.162c-1.575-1.377-2.558-2.954-3.148-4.915
		c-1.969-0.2-3.936-0.985-5.313-2.163c-1.966-1.777-3.343-4.139-3.54-6.895c-0.196-2.752,0.59-5.309,2.36-7.271
		c1.573-1.97,3.934-3.153,6.296-3.547c-0.196-2.554,0.59-4.917,2.36-6.886c1.575-1.964,3.739-3.147,6.099-3.541
		c0-2.361,0.787-4.723,2.36-6.689c0.983-1.182,1.966-1.966,3.343-2.559c0-0.392,0.198-0.984,0.198-1.376h-83.81v51.351h-0.392
		c0,6.887,5.508,12.389,12.394,12.389h59.61c5.903,0,10.82-4.125,11.999-9.434c-0.785-0.4-1.571-0.791-2.36-1.385
		C10.43,126.812,9.447,125.236,8.856,123.266z"/>
	<path fill="#3E253C" d="M-93.446,102.615c0,6.486,5.313,11.801,11.806,11.801h8.263v-23.61h-8.263
		C-88.133,90.806-93.446,96.121-93.446,102.615z"/>
	<path fill="#3E253C" d="M139.601,130.004c-1.713,0.246-3.172,0.246-4.641,0.246c-2.684,0-4.879-0.246-4.879-0.246
		c-8.303-0.488-15.621-1.949-22.457-3.904l-2.443,11.963h59.561l-2.686-11.963C154.242,128.545,146.191,129.516,139.601,130.004z"/>
	<path fill="#3E253C" d="M69.301,79.24h131.073c0.732-3.176,1.223-6.836,1.469-10.497H67.837
		C68.083,72.404,68.568,75.821,69.301,79.24z"/>
	<path fill="#3E253C" d="M130.568,125.126c0,0,1.955,0,4.639,0c1.223,0,2.682,0,4.15,0c23.678-1.466,51.498-10.008,60.043-41.009
		H70.525C77.602,108.527,97.617,122.436,130.568,125.126z"/>
</g>
<g>
	<path fill="none" d="M204.527,63.857H65.396c-0.716,0-1.196,0.239-1.677,0.709c1.25-1.928,1.78-4.359,1.403-6.617
		c-0.789-5.31-5.904-9.245-11.41-8.457c-1.967,0.393-3.936,1.178-5.312,2.555c-1.771-0.786-3.74-0.981-5.706-0.786
		c-1.966,0.393-3.935,1.178-5.313,2.556c-1.769-0.786-3.737-1.178-5.702-0.786c-1.968,0.393-3.937,1.181-5.314,2.558
		c-1.77-0.788-3.737-0.984-5.704-0.788c-2.754,0.393-5.114,1.77-6.689,3.936c-1.77,2.165-2.361,4.917-1.968,7.475
		c0.394,1.77,1.181,3.54,2.36,4.917h-87.741v15.742h-8.263c-8.659,0-15.739,7.081-15.739,15.743c0,8.656,7.081,15.734,15.739,15.734
		h8.263v8.264c0,9.047,7.277,16.328,16.33,16.328H2.364c7.278,0,13.377-4.727,15.542-11.41c0.589,1.377,1.573,2.754,2.754,3.738
		c1.966,1.57,4.132,2.363,6.49,2.363c2.952,0,5.706-1.186,7.675-3.547c1.771-1.965,2.555-4.326,2.362-6.881
		c2.355-0.393,4.718-1.578,6.294-3.545c1.57-1.964,2.361-4.326,2.361-6.688c2.359-0.392,4.525-1.577,6.096-3.539
		c3.543-4.332,2.954-10.626-1.377-14.166c-0.586-0.391-1.377-0.785-1.963-1.179c0.193,0,0.586,0,0.785,0
		c1.969-0.396,3.932-1.183,5.309-2.56c1.77,0.784,3.74,1.178,5.71,0.784c3.159-0.45,5.793-2.328,7.285-4.884
		c6.056,15.68,17.845,26.646,35.3,32.963v0.246l-3.174,15.375c-0.243,0.732,0,1.467,0.49,1.949c0.486,0.49,1.217,0.979,1.949,0.979
		h65.414c0.732,0,1.469-0.244,1.957-0.979c0.486-0.482,0.729-1.217,0.486-1.949l-3.174-15.375
		c19.77-7.324,38.812-23.188,40.027-58.338c0-0.731-0.244-1.22-0.73-1.709C205.75,64.102,205.259,63.857,204.527,63.857z
		 M15.741,108.708c-0.195,0.394-0.589,0.593-0.983,0.793c-1.18,0.386-2.556,0.386-3.542-0.399c-1.377-1.178-1.574-3.146-0.393-4.525
		c0.983-1.176,2.754-1.569,3.934-0.782c0.196,0.196,0.394,0.196,0.591,0.39C16.725,105.368,16.923,107.332,15.741,108.708z
		 M32.464,67.787c1.737,0,3.147,1.409,3.147,3.15c0,1.738-1.41,3.147-3.147,3.147s-3.147-1.41-3.147-3.147
		C29.317,69.196,30.727,67.787,32.464,67.787z M24.396,118.942c-1.737,0-3.147-1.411-3.147-3.147s1.41-3.153,3.147-3.153
		c1.74,0,3.15,1.417,3.15,3.153S26.137,118.942,24.396,118.942z M31.873,109.887c-1.739,0-3.148-1.402-3.148-3.143
		c0-1.742,1.409-3.151,3.148-3.151c1.741,0,3.147,1.409,3.147,3.151C35.02,108.484,33.614,109.887,31.873,109.887z M34.626,85.887
		c-1.77,0.196-3.147-0.984-3.54-2.361c0-0.196,0-0.196,0-0.392c-0.2-1.77,0.984-3.344,2.754-3.739
		c1.771-0.196,3.347,0.984,3.739,2.755C37.581,83.918,36.397,85.691,34.626,85.887z M43.675,68.771c0-1.741,1.412-3.147,3.15-3.147
		s3.15,1.406,3.15,3.147c0,1.737-1.412,3.147-3.15,3.147S43.675,70.509,43.675,68.771z M48.599,83.722
		c-1.742,0-3.15-1.407-3.15-3.147c0-1.742,1.408-3.147,3.15-3.147c1.738,0,3.146,1.405,3.146,3.147
		C51.746,82.315,50.337,83.722,48.599,83.722z"/>
	<g>
		<path fill="none" d="M204.527,63.857H65.396c-0.716,0-1.196,0.239-1.677,0.709c1.25-1.928,1.78-4.359,1.403-6.617
			c-0.789-5.31-5.904-9.245-11.41-8.457c-1.967,0.393-3.936,1.178-5.312,2.555c-1.771-0.786-3.74-0.981-5.706-0.786
			c-1.966,0.393-3.935,1.178-5.313,2.556c-1.769-0.786-3.737-1.178-5.702-0.786c-1.968,0.393-3.937,1.181-5.314,2.558
			c-1.77-0.788-3.737-0.984-5.704-0.788c-2.754,0.393-5.114,1.77-6.689,3.936c-1.77,2.165-2.361,4.917-1.968,7.475
			c0.394,1.77,1.181,3.54,2.36,4.917h-87.741v15.742h-8.263c-8.659,0-15.739,7.081-15.739,15.743
			c0,8.656,7.081,15.734,15.739,15.734h8.263v8.264c0,9.047,7.277,16.328,16.33,16.328H2.364c7.278,0,13.377-4.727,15.542-11.41
			c0.589,1.377,1.573,2.754,2.754,3.738c1.966,1.57,4.132,2.363,6.49,2.363c2.952,0,5.706-1.186,7.675-3.547
			c1.771-1.965,2.555-4.326,2.362-6.881c2.355-0.393,4.718-1.578,6.294-3.545c1.57-1.964,2.361-4.326,2.361-6.688
			c2.359-0.392,4.525-1.577,6.096-3.539c3.543-4.332,2.954-10.626-1.377-14.166c-0.586-0.391-1.377-0.785-1.963-1.179
			c0.193,0,0.586,0,0.785,0c1.969-0.396,3.932-1.183,5.309-2.56c1.77,0.784,3.74,1.178,5.71,0.784
			c3.159-0.45,5.793-2.328,7.285-4.884c6.056,15.68,17.845,26.646,35.3,32.963v0.246l-3.174,15.375c-0.243,0.732,0,1.467,0.49,1.949
			c0.486,0.49,1.217,0.979,1.949,0.979h65.414c0.732,0,1.469-0.244,1.957-0.979c0.486-0.482,0.729-1.217,0.486-1.949l-3.174-15.375
			c19.77-7.324,38.812-23.188,40.027-58.338c0-0.731-0.244-1.22-0.73-1.709C205.75,64.102,205.259,63.857,204.527,63.857z
			 M15.741,108.708c-0.195,0.394-0.589,0.593-0.983,0.793c-1.18,0.386-2.556,0.386-3.542-0.399
			c-1.377-1.178-1.574-3.146-0.393-4.525c0.983-1.176,2.754-1.569,3.934-0.782c0.196,0.196,0.394,0.196,0.591,0.39
			C16.725,105.368,16.923,107.332,15.741,108.708z M32.464,67.787c1.737,0,3.147,1.409,3.147,3.15c0,1.738-1.41,3.147-3.147,3.147
			s-3.147-1.41-3.147-3.147C29.317,69.196,30.727,67.787,32.464,67.787z M24.396,118.942c-1.737,0-3.147-1.411-3.147-3.147
			s1.41-3.153,3.147-3.153c1.74,0,3.15,1.417,3.15,3.153S26.137,118.942,24.396,118.942z M31.873,109.887
			c-1.739,0-3.148-1.402-3.148-3.143c0-1.742,1.409-3.151,3.148-3.151c1.741,0,3.147,1.409,3.147,3.151
			C35.02,108.484,33.614,109.887,31.873,109.887z M34.626,85.887c-1.77,0.196-3.147-0.984-3.54-2.361c0-0.196,0-0.196,0-0.392
			c-0.2-1.77,0.984-3.344,2.754-3.739c1.771-0.196,3.347,0.984,3.739,2.755C37.581,83.918,36.397,85.691,34.626,85.887z
			 M43.675,68.771c0-1.741,1.412-3.147,3.15-3.147s3.15,1.406,3.15,3.147c0,1.737-1.412,3.147-3.15,3.147
			S43.675,70.509,43.675,68.771z M48.599,83.722c-1.742,0-3.15-1.407-3.15-3.147c0-1.742,1.408-3.147,3.15-3.147
			c1.738,0,3.146,1.405,3.146,3.147C51.746,82.315,50.337,83.722,48.599,83.722z"/>
		<g>
			<path fill="none" d="M204.527,63.857H65.396c-0.716,0-1.196,0.239-1.677,0.709c1.25-1.928,1.78-4.359,1.403-6.617
				c-0.789-5.31-5.904-9.245-11.41-8.457c-1.967,0.393-3.936,1.178-5.312,2.555c-1.771-0.786-3.74-0.981-5.706-0.786
				c-1.966,0.393-3.935,1.178-5.313,2.556c-1.769-0.786-3.737-1.178-5.702-0.786c-1.968,0.393-3.937,1.181-5.314,2.558
				c-1.77-0.788-3.737-0.984-5.704-0.788c-2.754,0.393-5.114,1.77-6.689,3.936c-1.77,2.165-2.361,4.917-1.968,7.475
				c0.394,1.77,1.181,3.54,2.36,4.917h-87.741v15.742h-8.263c-8.659,0-15.739,7.081-15.739,15.743
				c0,8.656,7.081,15.734,15.739,15.734h8.263v8.264c0,9.047,7.277,16.328,16.33,16.328H2.364c7.278,0,13.377-4.727,15.542-11.41
				c0.589,1.377,1.573,2.754,2.754,3.738c1.966,1.57,4.132,2.363,6.49,2.363c2.952,0,5.706-1.186,7.675-3.547
				c1.771-1.965,2.555-4.326,2.362-6.881c2.355-0.393,4.718-1.578,6.294-3.545c1.57-1.964,2.361-4.326,2.361-6.688
				c2.359-0.392,4.525-1.577,6.096-3.539c3.543-4.332,2.954-10.626-1.377-14.166c-0.586-0.391-1.377-0.785-1.963-1.179
				c0.193,0,0.586,0,0.785,0c1.969-0.396,3.932-1.183,5.309-2.56c1.77,0.784,3.74,1.178,5.71,0.784
				c3.159-0.45,5.793-2.328,7.285-4.884c6.056,15.68,17.845,26.646,35.3,32.963v0.246l-3.174,15.375
				c-0.243,0.732,0,1.467,0.49,1.949c0.486,0.49,1.217,0.979,1.949,0.979h65.414c0.732,0,1.469-0.244,1.957-0.979
				c0.486-0.482,0.729-1.217,0.486-1.949l-3.174-15.375c19.77-7.324,38.812-23.188,40.027-58.338c0-0.731-0.244-1.22-0.73-1.709
				C205.75,64.102,205.259,63.857,204.527,63.857z M15.741,108.708c-0.195,0.394-0.589,0.593-0.983,0.793
				c-1.18,0.386-2.556,0.386-3.542-0.399c-1.377-1.178-1.574-3.146-0.393-4.525c0.983-1.176,2.754-1.569,3.934-0.782
				c0.196,0.196,0.394,0.196,0.591,0.39C16.725,105.368,16.923,107.332,15.741,108.708z M32.464,67.787
				c1.737,0,3.147,1.409,3.147,3.15c0,1.738-1.41,3.147-3.147,3.147s-3.147-1.41-3.147-3.147
				C29.317,69.196,30.727,67.787,32.464,67.787z M24.396,118.942c-1.737,0-3.147-1.411-3.147-3.147s1.41-3.153,3.147-3.153
				c1.74,0,3.15,1.417,3.15,3.153S26.137,118.942,24.396,118.942z M31.873,109.887c-1.739,0-3.148-1.402-3.148-3.143
				c0-1.742,1.409-3.151,3.148-3.151c1.741,0,3.147,1.409,3.147,3.151C35.02,108.484,33.614,109.887,31.873,109.887z M34.626,85.887
				c-1.77,0.196-3.147-0.984-3.54-2.361c0-0.196,0-0.196,0-0.392c-0.2-1.77,0.984-3.344,2.754-3.739
				c1.771-0.196,3.347,0.984,3.739,2.755C37.581,83.918,36.397,85.691,34.626,85.887z M43.675,68.771
				c0-1.741,1.412-3.147,3.15-3.147s3.15,1.406,3.15,3.147c0,1.737-1.412,3.147-3.15,3.147S43.675,70.509,43.675,68.771z
				 M48.599,83.722c-1.742,0-3.15-1.407-3.15-3.147c0-1.742,1.408-3.147,3.15-3.147c1.738,0,3.146,1.405,3.146,3.147
				C51.746,82.315,50.337,83.722,48.599,83.722z"/>
			<g>
				<path fill="none" d="M204.527,63.857H65.396c-0.716,0-1.196,0.239-1.677,0.709c1.25-1.928,1.78-4.359,1.403-6.617
					c-0.789-5.31-5.904-9.245-11.41-8.457c-1.967,0.393-3.936,1.178-5.312,2.555c-1.771-0.786-3.74-0.981-5.706-0.786
					c-1.966,0.393-3.935,1.178-5.313,2.556c-1.769-0.786-3.737-1.178-5.702-0.786c-1.968,0.393-3.937,1.181-5.314,2.558
					c-1.77-0.788-3.737-0.984-5.704-0.788c-2.754,0.393-5.114,1.77-6.689,3.936c-1.77,2.165-2.361,4.917-1.968,7.475
					c0.394,1.77,1.181,3.54,2.36,4.917h-87.741v15.742h-8.263c-8.659,0-15.739,7.081-15.739,15.743
					c0,8.656,7.081,15.734,15.739,15.734h8.263v8.264c0,9.047,7.277,16.328,16.33,16.328H2.364c7.278,0,13.377-4.727,15.542-11.41
					c0.589,1.377,1.573,2.754,2.754,3.738c1.966,1.57,4.132,2.363,6.49,2.363c2.952,0,5.706-1.186,7.675-3.547
					c1.771-1.965,2.555-4.326,2.362-6.881c2.355-0.393,4.718-1.578,6.294-3.545c1.57-1.964,2.361-4.326,2.361-6.688
					c2.359-0.392,4.525-1.577,6.096-3.539c3.543-4.332,2.954-10.626-1.377-14.166c-0.586-0.391-1.377-0.785-1.963-1.179
					c0.193,0,0.586,0,0.785,0c1.969-0.396,3.932-1.183,5.309-2.56c1.77,0.784,3.74,1.178,5.71,0.784
					c3.159-0.45,5.793-2.328,7.285-4.884c6.056,15.68,17.845,26.646,35.3,32.963v0.246l-3.174,15.375
					c-0.243,0.732,0,1.467,0.49,1.949c0.486,0.49,1.217,0.979,1.949,0.979h65.414c0.732,0,1.469-0.244,1.957-0.979
					c0.486-0.482,0.729-1.217,0.486-1.949l-3.174-15.375c19.77-7.324,38.812-23.188,40.027-58.338c0-0.731-0.244-1.22-0.73-1.709
					C205.75,64.102,205.259,63.857,204.527,63.857z M15.741,108.708c-0.195,0.394-0.589,0.593-0.983,0.793
					c-1.18,0.386-2.556,0.386-3.542-0.399c-1.377-1.178-1.574-3.146-0.393-4.525c0.983-1.176,2.754-1.569,3.934-0.782
					c0.196,0.196,0.394,0.196,0.591,0.39C16.725,105.368,16.923,107.332,15.741,108.708z M32.464,67.787
					c1.737,0,3.147,1.409,3.147,3.15c0,1.738-1.41,3.147-3.147,3.147s-3.147-1.41-3.147-3.147
					C29.317,69.196,30.727,67.787,32.464,67.787z M24.396,118.942c-1.737,0-3.147-1.411-3.147-3.147s1.41-3.153,3.147-3.153
					c1.74,0,3.15,1.417,3.15,3.153S26.137,118.942,24.396,118.942z M31.873,109.887c-1.739,0-3.148-1.402-3.148-3.143
					c0-1.742,1.409-3.151,3.148-3.151c1.741,0,3.147,1.409,3.147,3.151C35.02,108.484,33.614,109.887,31.873,109.887z
					 M34.626,85.887c-1.77,0.196-3.147-0.984-3.54-2.361c0-0.196,0-0.196,0-0.392c-0.2-1.77,0.984-3.344,2.754-3.739
					c1.771-0.196,3.347,0.984,3.739,2.755C37.581,83.918,36.397,85.691,34.626,85.887z M43.675,68.771
					c0-1.741,1.412-3.147,3.15-3.147s3.15,1.406,3.15,3.147c0,1.737-1.412,3.147-3.15,3.147S43.675,70.509,43.675,68.771z
					 M48.599,83.722c-1.742,0-3.15-1.407-3.15-3.147c0-1.742,1.408-3.147,3.15-3.147c1.738,0,3.146,1.405,3.146,3.147
					C51.746,82.315,50.337,83.722,48.599,83.722z"/>
				<path fill="#3E253C" d="M-161-110v325h420v-325H-161z M166.937,124.639l3.174,15.375c0.242,0.732,0,1.467-0.486,1.949
					c-0.488,0.734-1.225,0.979-1.957,0.979h-65.414c-0.732,0-1.463-0.488-1.949-0.979c-0.49-0.482-0.733-1.217-0.49-1.949
					l3.174-15.375v-0.246c-17.455-6.317-29.244-17.283-35.3-32.963c-1.492,2.556-4.126,4.434-7.285,4.884
					c-1.97,0.394-3.94,0-5.71-0.784c-1.377,1.377-3.34,2.163-5.309,2.56c-0.199,0-0.592,0-0.785,0
					c0.586,0.394,1.377,0.788,1.963,1.179c4.331,3.54,4.92,9.834,1.377,14.166c-1.57,1.962-3.736,3.147-6.096,3.539
					c0,2.361-0.791,4.724-2.361,6.688c-1.576,1.967-3.938,3.152-6.294,3.545c0.192,2.555-0.592,4.916-2.362,6.881
					c-1.969,2.361-4.723,3.547-7.675,3.547c-2.358,0-4.524-0.793-6.49-2.363c-1.181-0.984-2.165-2.361-2.754-3.738
					c-2.166,6.684-8.264,11.41-15.542,11.41h-59.412c-9.053,0-16.33-7.281-16.33-16.328v-8.264h-8.263
					c-8.659,0-15.739-7.078-15.739-15.734c0-8.662,7.081-15.743,15.739-15.743h8.263V71.13h87.741
					c-1.179-1.377-1.966-3.147-2.36-4.917c-0.393-2.559,0.198-5.31,1.968-7.475c1.575-2.166,3.936-3.543,6.689-3.936
					c1.966-0.196,3.934,0,5.704,0.788c1.377-1.377,3.346-2.165,5.314-2.558c1.965-0.393,3.934,0,5.702,0.786
					c1.379-1.378,3.348-2.163,5.313-2.556c1.966-0.196,3.936,0,5.706,0.786c1.377-1.377,3.346-2.162,5.312-2.555
					c5.506-0.788,10.621,3.147,11.41,8.457c0.376,2.258-0.154,4.689-1.403,6.617c0.48-0.471,0.96-0.709,1.677-0.709h139.131
					c0.732,0,1.223,0.245,1.707,0.734c0.486,0.489,0.73,0.979,0.73,1.709C205.75,101.45,186.707,117.314,166.937,124.639z"/>
				<g>
					<path fill="#3E253C" d="M65.123,85.691c-0.396-1.969-1.572-3.739-3.543-4.724c-0.589-0.197-0.984-0.785-1.177-1.573
						c0-0.59,0.192-1.378,0.588-1.771c1.573-1.376,2.358-3.346,1.966-5.508c-0.195-1.966-1.57-3.54-3.342-4.524
						c-0.591-0.196-0.982-0.786-0.982-1.377c0-0.589,0.193-1.181,0.586-1.77c1.577-1.574,2.361-3.54,1.969-5.509
						c-0.392-3.344-3.539-5.706-6.886-5.116c-1.571,0.199-2.948,0.984-3.933,2.362c-0.592,0.788-1.77,0.984-2.754,0.393
						c-1.378-0.982-2.755-1.377-4.525-1.179c-1.576,0.197-2.953,0.986-3.938,2.359c-0.589,0.788-1.771,0.985-2.754,0.396
						c-1.377-0.985-2.754-1.377-4.524-1.182c-1.571,0.197-2.948,0.982-3.933,2.36c-0.59,0.787-1.77,0.984-2.755,0.392
						c-1.377-0.981-2.754-1.377-4.524-1.178c-1.574,0.197-2.952,1.178-3.936,2.362c-0.984,1.378-1.376,2.948-1.179,4.525
						c0.195,1.966,1.572,3.54,3.343,4.524c0.59,0.197,0.983,0.786,0.983,1.377c0,0.589-0.196,1.178-0.589,1.77
						c-0.394,0.393-0.788,0.786-0.983,1.377c-0.197,0.197-0.197,0.59-0.394,0.787c-0.198,0.591-0.395,1.376-0.395,1.969
						c0,0.392,0,0.785,0,1.178c0,0.199,0.196,0.591,0.196,0.788c0.198,0.592,0.395,0.985,0.59,1.377
						c0.591,0.984,1.574,1.966,2.755,2.558c0.589,0.196,0.984,0.785,1.181,1.573c0,0.59-0.197,1.377-0.591,1.77
						c-1.573,1.381-2.359,3.351-1.967,5.513c0.196,0.786,0.394,1.571,0.787,2.162c0.786,1.379,1.967,2.363,3.344,2.756
						c0.787,0.199,1.772,0.394,2.755,0.199c1.574-0.199,2.951-0.984,3.932-2.361c0.396-0.594,0.985-0.791,1.577-0.791
						c0.393,0,0.786,0.197,1.179,0.396c1.376,0.985,2.754,1.378,4.522,1.18c0.593,0,1.186-0.194,1.771-0.594
						c0.593-0.191,1.185-0.586,1.577-1.176c0.196-0.2,0.393-0.394,0.592-0.593c0.193-0.393,0.586-0.586,0.981-0.586
						c0.589-0.198,1.181-0.198,1.772,0.193c1.377,0.985,2.755,1.376,4.525,1.179c1.377-0.193,2.754-0.979,3.738-2.164
						c0.586-0.785,1.771-0.983,2.752-0.393c1.377,0.986,2.755,1.378,4.527,1.185C63.349,92.181,65.711,89.034,65.123,85.691z
						 M29.317,70.937c0-1.741,1.41-3.15,3.147-3.15s3.147,1.409,3.147,3.15c0,1.738-1.41,3.147-3.147,3.147
						S29.317,72.675,29.317,70.937z M34.626,85.887c-1.77,0.196-3.147-0.984-3.54-2.361c0-0.196,0-0.196,0-0.392
						c-0.2-1.77,0.984-3.344,2.754-3.739c1.771-0.196,3.347,0.984,3.739,2.755C37.581,83.918,36.397,85.691,34.626,85.887z
						 M43.675,68.771c0-1.741,1.412-3.147,3.15-3.147s3.15,1.406,3.15,3.147c0,1.737-1.412,3.147-3.15,3.147
						S43.675,70.509,43.675,68.771z M48.599,83.722c-1.742,0-3.15-1.407-3.15-3.147c0-1.742,1.408-3.147,3.15-3.147
						c1.738,0,3.146,1.405,3.146,3.147C51.746,82.315,50.337,83.722,48.599,83.722z"/>
					<path fill="#3E253C" d="M48.203,102.021c-1.181-0.984-2.754-1.575-4.328-1.377c-0.984,0-1.969-0.784-2.162-1.768
						c0-0.202,0-0.395-0.199-0.596c-0.984,0.596-1.97,0.986-3.147,0.986c-1.969,0.394-3.932,0-5.705-0.785
						c-1.377,1.378-3.343,2.162-5.311,2.555c-0.395,0-0.985,0.201-1.378,0.201c-1.377,0-2.754-0.4-3.934-0.792
						c-0.984,0.392-2.165,0.198-3.148-0.586c-0.787-0.792-1.181-1.771-0.983-2.954c-0.789-1.179-1.575-2.756-1.772-4.325
						c-0.394-2.562,0.197-5.117,1.574-7.086c-1.179-0.985-2.162-2.362-2.755-3.739c-0.196-0.197-0.196-0.592-0.392-0.789
						c-0.198,0.196-0.393,0.396-0.59,0.592c-1.179,1.574-1.77,3.54-1.179,5.51c0.194,0.589,0,1.18-0.395,1.771
						c-0.394,0.394-0.982,0.786-1.573,0.786c-1.967-0.199-3.934,0.592-5.116,2.162c-1.377,1.577-1.77,3.74-1.18,5.709
						c0.196,0.591,0,1.379-0.393,1.77c-0.394,0.593-1.181,0.787-1.771,0.787c-2.164-0.194-4.132,0.59-5.51,2.16
						c-0.983,1.186-1.573,2.754-1.377,4.529c0.198,1.571,0.983,3.143,2.166,4.127c1.179,0.984,2.753,1.578,4.327,1.377
						c0.984,0,1.967,0.791,2.165,1.777c0.195,1.569,0.983,2.947,2.164,3.931c1.179,0.986,2.752,1.571,4.327,1.378
						c0.984,0,1.968,0.787,2.166,1.77c0.194,1.578,0.983,2.954,2.162,3.934c0,0,0,0,0.198,0c1.18,0.984,2.557,1.377,3.935,1.377
						c-0.098,0-0.16,0-0.197,0c0.983,0,1.967,0.791,2.164,1.77c0.196,1.576,0.984,2.955,2.164,3.938
						c1.179,0.979,2.557,1.379,3.934,1.379c1.774,0,3.543-0.791,4.722-2.168c1.378-1.572,1.771-3.734,1.185-5.705
						c-0.2-0.59,0-1.377,0.392-1.768c0.393-0.393,0.985-0.792,1.571-0.792h0.198c2.162,0.198,4.133-0.585,5.51-2.163
						c1.178-1.57,1.77-3.539,1.178-5.509c-0.193-0.586,0-1.179,0.393-1.769c0.396-0.394,0.984-0.786,1.576-0.786
						c1.969,0.198,3.933-0.593,5.117-2.163C51.154,108.122,50.761,104.184,48.203,102.021z M15.741,108.708
						c-0.195,0.394-0.589,0.593-0.983,0.793c-1.18,0.386-2.556,0.386-3.542-0.399c-1.377-1.178-1.574-3.146-0.393-4.525
						c0.983-1.176,2.754-1.569,3.934-0.782c0.196,0.196,0.394,0.196,0.591,0.39C16.725,105.368,16.923,107.332,15.741,108.708z
						 M24.396,118.942c-1.737,0-3.147-1.411-3.147-3.147s1.41-3.153,3.147-3.153c1.74,0,3.15,1.417,3.15,3.153
						S26.137,118.942,24.396,118.942z M31.873,109.887c-1.739,0-3.148-1.402-3.148-3.143c0-1.742,1.409-3.151,3.148-3.151
						c1.741,0,3.147,1.409,3.147,3.151C35.02,108.484,33.614,109.887,31.873,109.887z"/>
				</g>
			</g>
		</g>
	</g>
	<path fill="#F4BD89" d="M138.134-0.822c-0.732,1.219-0.246,2.683,0.732,3.417c0.49,0.245,9.764,6.101,5.127,16.598
		c-1.711,3.907-4.881,6.345-7.812,8.541c-6.102,4.884-12.447,9.763-4.148,24.899c0.49,0.731,1.223,1.22,2.197,1.22
		c0.486,0,0.73,0,1.221-0.244c1.219-0.73,1.709-2.198,0.979-3.417c-6.348-11.472-2.932-14.156,2.928-18.796
		c3.172-2.683,7.078-5.612,9.273-10.494c5.127-11.472-2.195-20.015-6.834-22.946C140.332-2.286,138.625-2.044,138.134-0.822z"/>
	<path fill="#F4BD89" d="M125.685-32.797c0.49,0.244,10.984,3.417,9.275,14.888c-0.73,4.15-2.928,7.324-5.367,10.251
		c-4.639,6.347-9.518,12.692,2.439,25.143c0.49,0.485,1.223,0.73,1.707,0.73c0.732,0,1.221-0.245,1.711-0.73
		c0.979-0.975,0.979-2.442,0-3.418c-9.275-9.521-6.59-12.936-2.195-18.796c2.439-3.418,5.369-7.079,6.102-12.446
		c1.949-12.449-7.324-18.796-12.691-20.261c-1.223-0.487-2.688,0.245-2.932,1.709C123.734-34.506,124.464-33.041,125.685-32.797z"/>
	<g>
		<path fill="#F4BD89" d="M199.737,139.348c-1.858-1.11-4.09-0.742-5.2,1.117l-7.801,12.256h-277.06l-6.314-12.628
			c-0.743-1.855-2.972-2.601-4.829-1.487c-1.857,0.742-2.6,2.977-1.486,4.832l7.429,14.855c0.744,1.111,1.857,2.227,3.344,2.227
			h281.143c1.111,0,2.603-0.742,2.975-1.859l8.91-13.74C201.964,142.692,201.592,140.465,199.737,139.348z"/>
	</g>
</g>
</svg>
