<?xml version="1.0" encoding="utf-8"?>
<!-- Generator: Adobe Illustrator 16.0.0, SVG Export Plug-In . SVG Version: 6.00 Build 0)  -->
<!DOCTYPE svg PUBLIC "-//W3C//DTD SVG 1.1//EN" "http://www.w3.org/Graphics/SVG/1.1/DTD/svg11.dtd">
<svg version="1.1" id="Layer_1" xmlns="http://www.w3.org/2000/svg" xmlns:xlink="http://www.w3.org/1999/xlink" x="0px" y="0px"
	 width="420px" height="325px" viewBox="0 0 420 325" enable-background="new 0 0 420 325" xml:space="preserve">
<g id="APP_DESIGN">
</g>
<g id="ECOMMERCE">
</g>
<g id="WORDPRESS">
</g>
<g>
	<path fill="#1B2631" d="M237.802,195.971c-4.462,0-8.924,0.346-13.047,0.346c-4.118,0.345-8.241,0.345-11.672,0.345l12.699,7.549
		L237.802,195.971z"/>
	<path fill="#1B2631" d="M272.812,202.154l-8.236-5.838c-0.346,0-0.346-0.346-0.688-0.689c-2.404,0-4.807,0-7.205,0
		c-2.063,0-4.468,0-6.869,0l-8.926,6.184c9.27,0,19.568,0.345,29.183,0.345L272.812,202.154L272.812,202.154z"/>
	<path fill="#1B2631" d="M301.994,196.66c-3.436,0-7.555-0.344-11.678-0.344c-4.461,0-9.269-0.346-14.414-0.346l12.705,8.926
		L301.994,196.66z"/>
	<path fill="#1B2631" d="M195.92,201.465c0.344,0,0.686,0,1.03,0c1.374,0,3.433,0,5.836,0c1.373,0,3.089,0,5.147,0
		c1.032,0,1.72,0,2.408-0.344l-6.87-2.746l-0.686-0.344l-3.089-1.715c-0.688,0-1.374,0-2.059,0c-0.688,0-1.032,0-1.718,0
		c-2.403,0-4.462,0-6.18-0.346c0,1.377,0,2.403,0.688,3.432C191.458,200.777,193.861,201.465,195.92,201.465z"/>
	<path fill="#1B2631" d="M323.617,205.584c-0.344-0.688-1.027-1.031-1.371-1.721c-3.779,3.436-8.585,5.15-15.104,5.15
		c-2.75,0-7.553,0-13.729,0l-3.778,2.407c-0.345,0.34-1.027,0.34-1.716,0.34s-1.376-0.34-2.063-0.684l-3.431-2.408h-13.043
		c-12.698,0-27.116-0.344-38.45-0.344l-3.43,2.407c-0.688,0.345-1.376,0.688-2.061,0.688c-0.688,0-1.03,0-1.715-0.344l-4.463-2.752
		c-6.524,0-12.703,0-17.165,0c-2.061,0-3.776,0-4.806,0c-1.029,0-1.717-0.341-2.403-0.341c-2.403-0.344-4.462-0.688-6.18-1.715
		c0,0.345-0.341,0.345-0.341,0.685c-0.344,0.344-0.688,1.03-0.688,1.371c0.344,0,0.688,1.377,5.492,2.752
		c1.718,0.685,4.121,1.026,7.209,1.715c5.15,1.026,12.356,1.715,22.657,2.403c8.581,0.688,19.568,1.027,33.3,1.027
		c65.563,0,68.654-7.555,68.654-8.238c0-0.344-0.345-1.03-0.688-1.37C323.961,206.271,323.617,205.928,323.617,205.584z"/>
	<path fill="#1B2631" d="M89.504,188.078h7.895v-23.688h-7.895c-6.523,0-11.671,5.489-12.016,11.668
		C77.488,182.584,82.98,188.078,89.504,188.078z"/>
	<path fill="#1B2631" d="M116.966,215.541h66.597c0.686,0,1.372-0.344,2.06-0.344c-2.403-1.033-3.433-2.404-4.121-3.775
		c-2.06-3.779,0.344-6.869,1.032-8.24c0.686-0.688,1.029-1.371,1.371-1.717c-1.029-2.406-1.029-4.805-0.686-6.869
		c-5.492-1.711-6.865-5.146-6.865-7.893c0-13.387,7.209-24.717,19.566-33.297v-11.672h-91.656v61.102
		C104.264,210.047,110.1,215.541,116.966,215.541z"/>
	<path fill="#1B2631" d="M183.219,186.703c0,1.031,2.059,1.715,3.777,2.059c0.686,0,1.374,0.344,2.403,0.344
		c1.715,0.345,3.774,0.685,6.521,0.685c2.059,0,4.462,0,6.866,0c0.344,0,1.029,0,1.373,0c1.716,0,3.431,0,5.15,0
		c4.46,0,9.612-0.34,15.102-0.34c9.612-0.345,20.596-0.688,32.271-0.688c12.355,0,23.685,0.344,33.635,0.688
		c7.559,0,14.076,0.34,19.914,0.34c5.149,0,9.269-0.34,12.016-0.685c1.027,0,1.715-0.344,2.402-0.344
		c3.774-0.684,4.807-1.715,4.807-2.746c0-16.135-14.418-29.865-37.074-36.729l6.866,10.986c0.683,1.715,0.344,3.777-1.372,4.809
		c-0.688,0.339-1.031,0.339-1.721,0.339c-1.37,0-2.397-0.684-3.086-1.716l-9.611-17.163c-8.237-1.717-17.166-2.747-26.773-2.747
		h-0.345l7.55,13.045c0.688,1.715,0.344,3.774-1.371,4.806c-0.688,0.342-1.033,0.342-1.716,0.342c-1.376,0-2.407-0.686-3.092-1.715
		l-9.269-16.134c-9.269,0.686-17.51,2.059-25.059,4.118l7.893,14.075c0.688,1.718,0.345,3.776-1.371,4.805
		c-0.688,0.345-1.026,0.345-1.715,0.345c-1.377,0-2.407-0.688-3.092-1.715l-8.584-15.105c-5.146,1.717-9.609,4.121-13.729,6.865
		c-2.403,1.374-4.807,3.089-6.866,4.806C188.025,169.197,183.219,177.436,183.219,186.703z"/>
	<path fill="#1B2631" d="M318.123,199.402c1.031-1.027,1.376-2.055,1.72-2.742c-1.376,0.344-3.086,0.344-4.806,0.344
		c0,0,0,0.344-0.346,0.344l-9.269,5.488c0.688,0,1.72,0,2.403,0C312.634,202.836,316.068,201.811,318.123,199.402z"/>
	<path fill="#BF69C0" d="M179.786,121.138c2.059,0,3.433-1.374,3.433-3.433V92.644c0-2.059-1.374-3.433-3.433-3.433
		s-3.433,1.374-3.433,3.433v25.061C176.354,119.42,178.068,121.138,179.786,121.138z"/>
	<path fill="#BF69C0" d="M149.921,120.794c2.059,0,3.433-1.374,3.433-3.433V92.303c0-2.062-1.374-3.435-3.433-3.435
		c-2.062,0-3.433,1.374-3.433,3.435v25.058C146.489,119.42,147.86,120.794,149.921,120.794z"/>
	<path fill="#BF69C0" d="M120.398,121.138c2.059,0,3.433-1.374,3.433-3.433V92.644c0-2.059-1.374-3.433-3.433-3.433
		s-3.433,1.374-3.433,3.433v25.061C116.966,119.42,118.339,121.138,120.398,121.138z"/>
	<path fill="#BF69C0" d="M354.857,216.568c-1.715-1.027-3.778-0.685-4.807,1.027l-7.554,11.676H76.115l-6.177-12.359
		c-0.688-1.715-2.747-2.404-4.462-1.371c-1.717,0.684-2.403,2.742-1.374,4.461l7.209,14.076c0.686,1.027,1.715,2.055,3.089,2.055
		h270.163c1.027,0,2.398-0.684,2.742-1.711l8.58-13.393C356.917,219.658,356.229,217.596,354.857,216.568z"/>
</g>
<g>
	<path fill="none" d="M179.787,121.139c2.059,0,3.433-1.375,3.433-3.434V92.645c0-2.061-1.374-3.434-3.433-3.434
		s-3.433,1.373-3.433,3.434v25.061C176.354,119.42,178.069,121.139,179.787,121.139z"/>
	<path fill="none" d="M149.922,120.793c2.059,0,3.433-1.373,3.433-3.432V92.303c0-2.061-1.374-3.436-3.433-3.436
		c-2.062,0-3.433,1.373-3.433,3.436v25.059C146.489,119.42,147.86,120.793,149.922,120.793z"/>
	<path fill="none" d="M120.399,121.139c2.059,0,3.433-1.375,3.433-3.434V92.645c0-2.061-1.374-3.434-3.433-3.434
		s-3.433,1.373-3.433,3.434v25.061C116.966,119.42,118.34,121.139,120.399,121.139z"/>
	<path fill="none" d="M336.32,186.359c0-28.49-33.639-49.085-79.981-49.085c-21.288,0-39.825,4.461-53.553,11.67v-10.984
		c0-2.061-1.374-3.434-3.433-3.434h-98.521c-2.059,0-3.433,1.373-3.433,3.434v19.564h-7.895c-10.298,0-18.881,8.24-18.881,18.88
		c0.344,10.301,8.583,18.537,18.881,18.537h7.895v7.896c0,10.639,8.583,19.562,19.567,19.562h66.253
		c4.119,0,8.239-1.371,11.328-3.771c10.298,2.4,28.837,4.463,61.792,4.463c60.757,0,72.085-6.178,74.832-11.668
		c2.06-3.779-0.34-7.213-1.371-8.586c-1.032-2.061-2.748-3.779-3.436-4.805c0.343-1.027,0.688-2.061,0.688-2.748
		C332.198,193.914,335.977,191.51,336.32,186.359z"/>
	<path fill="#3E253C" d="M212,0v88.75h38.949h3.551h0.449v48.511h-4V92.75H208v-0.5v-3.5V0H0v325h208v-88.867H74.4
		c-1.374,0-2.403-1.027-3.089-2.055l-7.209-14.076c-1.03-1.719-0.344-3.777,1.374-4.461c1.715-1.033,3.774-0.344,4.462,1.371
		l6.177,12.359h266.383l7.554-11.676c1.027-1.711,3.091-2.055,4.806-1.027c1.371,1.027,2.06,3.09,1.027,4.461l-8.58,13.393
		c-0.344,1.027-1.715,1.711-2.742,1.711H212V325h208V0H212z M176.354,92.645c0-2.061,1.374-3.434,3.433-3.434
		s3.433,1.373,3.433,3.434v25.061c0,2.059-1.374,3.434-3.433,3.434c-1.718,0-3.433-1.719-3.433-3.434V92.645z M146.489,92.303
		c0-2.062,1.371-3.436,3.433-3.436c2.059,0,3.433,1.375,3.433,3.436v25.059c0,2.059-1.374,3.432-3.433,3.432
		c-2.062,0-3.433-1.373-3.433-3.432V92.303z M116.966,92.645c0-2.061,1.374-3.434,3.433-3.434s3.433,1.373,3.433,3.434v25.061
		c0,2.059-1.374,3.434-3.433,3.434s-3.433-1.719-3.433-3.434V92.645z M327.052,195.285c0,0.688-0.345,1.721-0.688,2.748
		c0.688,1.025,2.403,2.744,3.436,4.805c1.031,1.373,3.431,4.807,1.371,8.586c-2.747,5.49-14.075,11.668-74.832,11.668
		c-32.955,0-51.494-2.062-61.792-4.463c-3.089,2.4-7.209,3.771-11.328,3.771h-66.253c-10.984,0-19.567-8.924-19.567-19.562v-7.896
		h-7.895c-10.298,0-18.537-8.236-18.881-18.537c0-10.641,8.583-18.88,18.881-18.88h7.895v-19.564c0-2.061,1.374-3.434,3.433-3.434
		h98.521c2.059,0,3.433,1.373,3.433,3.434v10.984c13.728-7.209,32.265-11.67,53.553-11.67c46.343,0,79.981,20.596,79.981,49.085
		C335.977,191.51,332.198,193.914,327.052,195.285z"/>
</g>
</svg>
