<?xml version="1.0" encoding="utf-8"?>
<!-- Generator: Adobe Illustrator 16.0.0, SVG Export Plug-In . SVG Version: 6.00 Build 0)  -->
<!DOCTYPE svg PUBLIC "-//W3C//DTD SVG 1.1//EN" "http://www.w3.org/Graphics/SVG/1.1/DTD/svg11.dtd">
<svg version="1.1" id="Layer_1" xmlns="http://www.w3.org/2000/svg" xmlns:xlink="http://www.w3.org/1999/xlink" x="0px" y="0px"
	 width="420px" height="325px" viewBox="0 0.001 420 325" enable-background="new 0 0.001 420 325" xml:space="preserve">
<path fill="none" d="M290.857,107.797L290.857,107.797c2.442-3.356,5.147-6.445,7.425-8.801
	C296.006,101.352,293.301,104.441,290.857,107.797z"/>
<path fill="none" d="M286.325,114.078c10.459,0,19.524,10.809,19.524,10.809c0.699,0.698,1.748,1.396,2.795,1.396
	c0.693,0,1.394-0.348,2.088-0.698c0.699-0.523,1.137-1.397,1.224-2.314c-0.087,0.915-0.524,1.786-1.224,2.308
	c-0.694,0.351-1.395,0.693-2.088,0.693c-1.047,0-2.096-0.71-2.795-1.408c0,0-9.065-10.831-19.524-10.831
	c-4.886,7.321-8.724,13.903-8.724,13.903l-0.344,0.258l0.344-0.167C277.604,128.026,281.439,121.399,286.325,114.078z"/>
<path fill="none" d="M326.432,97.942c0.012,0.014,0.022,0.029,0.035,0.043l13.215-17.737c0.397-0.529,0.592-1.208,0.605-1.906
	c-0.021,0.68-0.217,1.341-0.605,1.86L326.432,97.942z"/>
<path fill="none" d="M325.029,87.217L325.029,87.217l3.142-27.891c0.044-0.218,0.062-0.437,0.052-0.652
	c0.01,0.214-0.008,0.432-0.052,0.649L325.029,87.217z"/>
<polygon fill="none" points="292.805,237.367 291.555,231 291.552,231 "/>
<path fill="none" d="M211.984,133.646c-0.03-0.479-0.049-1.042-0.045-1.664C211.938,132.605,211.954,133.167,211.984,133.646z"/>
<path fill="none" d="M293.997,138.126c-1.746-1.045-3.832-0.359-4.533,1.384c-0.394,0.654-0.541,1.355-0.479,2.012
	c-0.055-0.652,0.092-1.344,0.479-1.989c0.701-1.743,2.787-2.44,4.533-1.396c4.883,2.791,10.812,6.278,14.301,9.417
	c7.845-9.482,16.919-22.949,17.157-32.355c-0.24,9.405-9.312,22.868-17.157,32.349C304.809,144.41,298.88,140.917,293.997,138.126z"
	/>
<path fill="none" d="M300.971,155.742c1.047-1.047,2.096-1.911,3.145-3.305c-0.014-0.012-0.029-0.026-0.042-0.039
	C303.037,153.762,302.003,154.709,300.971,155.742z"/>
<path fill="none" d="M167.058,161.395c0,0.022,0.002,0.044,0.002,0.065c0.002-0.302,0.079-0.696,0.209-1.101
	C167.136,160.728,167.058,161.09,167.058,161.395z"/>
<path fill="none" d="M182.052,149.812c-0.435-1.393-0.652-2.84-0.659-4.324C181.398,146.969,181.616,148.415,182.052,149.812z"/>
<path fill="none" d="M338.979,161.759c0-0.91-0.279-1.621-0.806-2.25c0.521,0.639,0.798,1.402,0.804,2.299
	C338.979,161.792,338.979,161.776,338.979,161.759z"/>
<path fill="none" d="M295.18,249.768c0.006,0.414-0.096,0.806-0.271,1.162C295.088,250.573,295.189,250.184,295.18,249.768z"/>
<path fill="none" d="M210.677,249.037l3.519-17.787c-0.002-0.001-0.002-0.001-0.004-0.002l-3.543,17.732
	c-0.344,1.045,0,2.035,0.701,2.731c0.692,0.699,1.741,1.287,2.791,1.287c-1.05,0-2.084-0.588-2.777-1.287
	C210.663,251.016,210.333,250.082,210.677,249.037z"/>
<path fill="none" d="M243.777,122.074c-0.064-0.782-0.104-1.589-0.109-2.403c0.004,0.821,0.045,1.636,0.109,2.426
	c0.783,2.089,1.176,3.983,1.177,5.682C244.955,126.073,244.562,124.169,243.777,122.074z"/>
<path fill="none" d="M203.121,217.663c10.889,6.86,26.07,11.257,44.381,12.896c0,0,2.395,0.166,5.598,0.153
	c-3.193,0.009-5.598-0.155-5.598-0.155C229.191,228.918,214.01,224.523,203.121,217.663z"/>
<path fill="none" d="M57.079,249.898c-0.062,0.67,0.085,1.381,0.478,2.035l5.109,10.295l-5.109-10.354
	C57.168,251.229,57.023,250.543,57.079,249.898z"/>
<path fill="none" d="M251.452,134.559c1.521,0.306,2.772,1.866,2.836,3.417C254.247,136.419,252.986,134.868,251.452,134.559z"/>
<path fill="none" d="M58.952,247.395c1.034-0.621,2.183-0.58,3.098-0.092c-0.915-0.511-2.064-0.576-3.098,0.043
	c-0.812,0.325-1.384,0.971-1.672,1.737C57.567,248.341,58.14,247.719,58.952,247.395z"/>
<path fill="none" d="M362.854,250.167c0.049,0.235,0.078,0.478,0.08,0.724C362.936,250.645,362.904,250.402,362.854,250.167z"/>
<path fill="none" d="M213.091,148.07l6.279,9.93l-6.279-9.976c-0.391-0.649-0.585-1.327-0.589-1.977
	C212.499,146.715,212.693,147.41,213.091,148.07z"/>
<path fill="none" d="M214.141,143.28c1.741-1.047,3.834-0.791,4.883,0.954L227.391,158l-8.367-13.812
	C217.975,142.443,215.882,142.233,214.141,143.28z"/>
<path fill="#1B2631" d="M267.843,112.499c-2.092-3.487-5.582-5.049-10.461-5.396c-5.229-0.349-8.721,0.696-10.812,3.138
	c-2.264,2.262-2.92,5.902-2.901,9.43c0.005,0.814,0.045,1.621,0.11,2.403c0.783,2.095,1.177,3.999,1.176,5.705
	c0,0.569-0.043,1.117-0.131,1.643c0,1.741-1.393,3.137-3.137,3.137c-1.396,0.351-3.14-0.698-3.484-2.44
	c0-0.349-0.697-2.791-1.049-6.278c-1.396-2.788-4.881-6.624-12.9-7.671c-3.488-0.699-6.279,0-8.021,1.743
	c-3.403,3.4-4.272,10.023-4.291,14.07c-0.004,0.623,0.015,1.185,0.045,1.664c0.017,0.24,0.035,0.459,0.058,0.655
	c0.351,1.396-0.692,3.14-2.437,3.489c-1.747,0.347-3.49-0.349-4.186-1.745c-0.699-1.396-2.791-4.532-5.581-4.883
	c-2.789-0.349-5.579,2.791-7.671,5.233c-3.487,4.532-4.882,8.186-3.836,11.673c1.745,5.579,8.719,8.93,11.161,9.93h19.879
	l-6.279-9.93c-0.396-0.66-0.592-1.355-0.589-2.022c-0.005-1.096,0.54-2.111,1.638-2.768c1.742-1.047,3.834-0.836,4.883,0.908
	L227.391,158h16.389l3.492-20.787c0.348-1.744,2.436-3.002,4.182-2.654c1.535,0.309,2.795,1.86,2.836,3.417
	c0.009,0.228-0.006,0.455-0.051,0.678L251.104,158h12.203C267.146,149,274.816,123.657,267.843,112.499z"/>
<path fill="#1B2631" d="M299.925,158c0,0,0.351-1.561,1.046-2.258c1.032-1.033,2.066-1.98,3.103-3.344
	c-1.796-1.758-7.677-5.213-13.214-8.331c-1.098-0.439-1.779-1.434-1.873-2.545c-0.062-0.657,0.084-1.357,0.479-2.012
	c0.701-1.743,2.787-2.429,4.533-1.384c4.883,2.791,10.811,6.284,14.301,9.422c7.844-9.481,16.917-22.944,17.157-32.349
	c0.017-0.626-0.008-1.234-0.073-1.822c-1.045-9.066-7.67-14.646-12.9-16.739c-4.577-1.832-8.891-1.525-11.996,0.447
	c-0.443,0.282-0.863,0.598-1.256,0.946c-0.306,0.305-0.621,0.627-0.946,0.963c-2.276,2.356-4.981,5.445-7.423,8.801
	c11.156,2.092,19.873,12.552,20.224,12.901c0.699,0.698,0.961,1.656,0.873,2.571c-0.087,0.917-0.522,1.791-1.224,2.314
	c-0.694,0.351-1.395,0.698-2.088,0.698c-1.047,0-2.096-0.698-2.795-1.396c0,0-9.065-10.809-19.524-10.809
	c-4.886,7.322-8.724,13.949-8.724,13.949l-0.344,0.167c-0.699,11.857-4.539,23.81-6.626,29.81H299.925z"/>
<path fill="#1B2631" d="M258.077,238c-1.742,0-3.488,0-5.231,0c-3.488,0-5.927,0-5.927,0c-9.414-1-18.133-2.624-26.153-4.718
	L218.323,246h68.696l-2.789-12.718C275.167,236.07,265.751,237,258.077,238z"/>
<path fill="#1B2631" d="M118.584,247h63.121c6.625,0,12.295-4.939,12.295-11.566v-14.992v-9.414V177h-18.573h-6.974H107v58.434
	C107,242.061,111.958,247,118.584,247z"/>
<path fill="#1B2631" d="M92.43,221H100v-22h-7.57c-5.928,0-11.16,4.723-11.16,10.999C81.27,216.277,86.153,221,92.43,221z"/>
<path fill="#1B2631" d="M201,173.711v42.547c0.688,0.479,1.395,0.947,2.121,1.405c10.889,6.86,26.07,11.255,44.381,12.894
	c0,0,2.402,0.164,5.598,0.155c1.43-0.005,3.018-0.046,4.629-0.151c31.735-1.748,70.1-14.561,73.582-65.561H198.445H174c0,2,0,3,0,5
	h23.05C199.141,170,201,171.615,201,173.711z"/>
<g>
	<path fill="none" d="M148.574,98.385c-1.046,1.745-0.349,3.837,1.046,4.883c1.047,0.697,9.766,6.624,4.883,16.739
		c-1.745,3.834-4.883,6.277-8.021,8.717c-6.627,5.231-13.949,11.161-4.533,27.899c0.698,1.047,1.743,1.743,3.138,1.743
		c0.697,0,1.047,0,1.743-0.349c1.745-1.047,2.441-3.139,1.396-4.883c-6.626-11.509-3.487-13.949,2.79-18.832
		c3.488-2.788,7.672-5.926,10.113-11.507c5.929-12.904-2.441-22.319-7.672-25.456C151.712,96.293,149.62,96.989,148.574,98.385z"/>
	<path fill="none" d="M136.024,65.951c0.347,0,11.159,3.49,9.066,14.998c-0.696,4.183-3.138,7.323-5.579,10.461
		c-4.882,6.624-10.811,14.298,2.789,27.898c0.698,0.698,1.744,1.045,2.441,1.045c1.045,0,1.744-0.347,2.441-1.045
		c1.395-1.396,1.395-3.487,0-4.883c-9.416-9.417-6.975-12.554-2.093-18.832c2.791-3.487,5.928-7.67,6.625-13.599
		c2.441-13.949-8.37-20.924-13.949-22.668c-1.743-0.698-3.837,0.348-4.184,2.44C133.231,63.162,134.277,65.253,136.024,65.951z"/>
	<line fill="none" x1="194" y1="72.5" x2="305" y2="72.5"/>
	<path fill="none" d="M92.43,228H100v7.434c0,10.465,8.122,18.566,18.584,18.57h63.471c10.462,0,18.945-8.102,18.945-18.566v-10.459
		c3.998,2.437,8.309,4.531,13.191,6.273l-3.543,17.732c-0.343,1.045,0,2.035,0.701,2.731c0.692,0.699,1.741,1.287,2.791,1.287
		h77.407c1.05,0,2.099-0.237,2.798-1.287c0.231-0.231,0.418-0.497,0.56-0.782c0.18-0.356,0.282-0.746,0.271-1.162
		c-0.003-0.256-0.045-0.519-0.133-0.787l-2.24-11.393l-1.25-6.367c23.367-8.718,46.031-27.884,47.424-69.385
		c0-0.009-0.002-0.018-0.002-0.028c0-0.016,0.002-0.032,0.002-0.049c0-0.91-0.281-1.621-0.806-2.25
		c-0.077-0.096-0.146-0.197-0.235-0.287c-0.694-0.699-1.392-1.223-2.44-1.223h-27.199c6.968-7,26.149-29.808,24.412-45.85
		c-0.696-5.211-2.781-10.332-6.243-14.165l13.215-17.737c0.397-0.529,0.592-1.209,0.605-1.906c0.033-1.145-0.432-2.341-1.309-2.999
		c-1.393-1.046-3.832-0.686-4.881,0.71l-9.066,11.162l3.14-27.89c0.044-0.218,0.062-0.437,0.052-0.652
		c-0.058-1.507-1.355-2.881-3.191-3.187c-1.736-0.347-3.482,1.047-3.834,3.141l-3.484,32.084c-1.047-0.35-1.746-1.048-2.791-1.395
		c-7.672-2.79-15.34-1.744-20.223,2.789c-6.284,5.928-13.604,16.39-18.139,23.715c-0.088-0.349-0.175-0.693-0.263-1.031
		c-0.616-2.371-1.305-4.505-2.528-6.642c-3.484-5.581-8.717-8.369-15.691-9.068c-7.324-0.696-12.904,1.396-16.74,5.581
		c-2.09,2.442-3.135,5.23-3.832,8.021c-2.791-2.092-6.98-3.836-12.207-4.534c-5.576-0.698-10.115,0.347-13.605,3.834
		c-3.833,3.487-5.227,8.719-5.924,13.253c-1.393-0.697-3.139-1.396-4.883-1.743c-4.88-0.349-9.416,2.091-13.949,8.021
		c-3.664,4.71-5.56,9.513-5.542,13.974c0.005,1.481,0.223,2.927,0.659,4.324c1.049,3.14,2.791,6.188,4.883,8.188h-16.391
		c-1.045,0-1.741,0.182-2.441,0.879c-0.393,0.395-0.663,0.946-0.834,1.48c-0.132,0.368-0.211,0.731-0.211,1.035
		c0,0.022,0.002,0.044,0.002,0.065c0,0.006-0.002,0.013-0.002,0.018c0,2.792,0.349,5.522,0.699,8.522h-64.515
		c-2.095,0-3.242,0.917-3.242,3.014V192h-7.57c-10.114,0-18.135,7.884-18.135,18.001C74.295,219.766,82.665,228,92.43,228z"/>
</g>
<path fill="#F4BD89" d="M362.854,250.165c-0.187-0.874-0.701-1.663-1.552-2.175c-1.393-1.049-3.84-0.145-4.881,1.252L348.396,262
	H69.762l-6.277-13.105c-0.284-0.711-0.806-1.254-1.435-1.592c-0.915-0.488-2.064-0.529-3.098,0.092
	c-0.812,0.324-1.384,0.946-1.672,1.688c-0.102,0.261-0.176,0.531-0.201,0.815c-0.056,0.645,0.09,1.33,0.478,1.977l5.109,10.354
	l2.214,4.486c0.35,1.396,1.396,2.284,2.791,2.284H208.25v-0.501h3.5v0.501h138.746c1.047,0,2.434-0.913,2.783-1.962l9.068-14.057
	c0.396-0.662,0.59-1.388,0.586-2.092C362.932,250.643,362.902,250.402,362.854,250.165z"/>
<rect x="208.25" y="268.498" fill="#C06C69" width="3.5" height="0.501"/>
<path fill="#F4BD89" d="M136.022,65.95c0.347,0,11.159,3.49,9.066,14.998c-0.696,4.183-3.138,7.323-5.579,10.461
	c-4.882,6.624-10.811,14.298,2.789,27.898c0.698,0.698,1.744,1.045,2.441,1.045c1.046,0,1.744-0.347,2.441-1.045
	c1.395-1.396,1.395-3.487,0-4.883c-9.416-9.417-6.975-12.554-2.093-18.832c2.791-3.487,5.929-7.67,6.625-13.599
	c2.441-13.949-8.37-20.924-13.949-22.668c-1.743-0.697-3.837,0.349-4.184,2.44C133.231,63.162,134.277,65.253,136.022,65.95z"/>
<path fill="#F4BD89" d="M148.575,98.384c-1.046,1.745-0.349,3.836,1.046,4.883c1.047,0.696,9.766,6.624,4.883,16.739
	c-1.745,3.834-4.883,6.277-8.021,8.717c-6.627,5.231-13.949,11.161-4.533,27.899c0.697,1.047,1.743,1.743,3.138,1.743
	c0.697,0,1.047,0,1.743-0.349c1.744-1.047,2.441-3.139,1.396-4.883c-6.626-11.509-3.487-13.949,2.79-18.832
	c3.487-2.788,7.671-5.926,10.113-11.507c5.928-12.904-2.441-22.319-7.671-25.458C151.713,96.292,149.621,96.988,148.575,98.384z"/>
<path fill="none" stroke="#F4BD89" stroke-width="4" stroke-miterlimit="10" d="M208,93"/>
<g>
	<path fill="none" d="M148.574,98.385c-1.046,1.745-0.349,3.837,1.046,4.883c1.047,0.697,9.766,6.624,4.883,16.739
		c-1.745,3.834-4.883,6.277-8.021,8.717c-6.627,5.231-13.949,11.161-4.533,27.899c0.698,1.047,1.743,1.743,3.138,1.743
		c0.697,0,1.047,0,1.743-0.349c1.745-1.047,2.441-3.139,1.396-4.883c-6.626-11.509-3.487-13.949,2.79-18.832
		c3.488-2.788,7.672-5.926,10.113-11.507c5.929-12.904-2.441-22.319-7.672-25.456C151.712,96.293,149.62,96.989,148.574,98.385z"/>
	<path fill="none" d="M136.024,65.951c0.347,0,11.159,3.49,9.066,14.998c-0.696,4.183-3.138,7.323-5.579,10.461
		c-4.882,6.624-10.811,14.298,2.789,27.898c0.698,0.698,1.744,1.045,2.441,1.045c1.045,0,1.744-0.347,2.441-1.045
		c1.395-1.396,1.395-3.487,0-4.883c-9.416-9.417-6.975-12.554-2.093-18.832c2.791-3.487,5.928-7.67,6.625-13.599
		c2.441-13.949-8.37-20.924-13.949-22.668c-1.743-0.698-3.837,0.348-4.184,2.44C133.231,63.162,134.277,65.253,136.024,65.951z"/>
	<path fill="none" d="M362.852,250.167c-0.186-0.876-0.699-1.665-1.551-2.177c-1.393-1.049-3.84-0.145-4.881,1.252L348.396,262
		H69.762l-6.278-13.104c-0.284-0.713-0.806-1.256-1.435-1.592c-0.915-0.512-2.064-0.578-3.098,0.043
		c-0.812,0.324-1.384,0.969-1.672,1.736c-0.101,0.26-0.176,0.531-0.201,0.816c-0.061,0.67,0.085,1.379,0.478,2.033l5.109,10.297
		l2.214,4.485c0.35,1.396,1.395,2.284,2.791,2.284h140.58v-0.502h3.5V269h138.746c1.047,0,2.434-0.913,2.783-1.962l9.068-14.056
		c0.395-0.662,0.59-1.387,0.584-2.092C362.934,250.645,362.905,250.402,362.852,250.167z"/>
	<rect x="208.25" y="268.498" fill="none" width="3.5" height="0.502"/>
	<path fill="none" d="M92.43,228H100v7.434c0,10.465,8.122,18.566,18.584,18.57h63.471c10.462,0,18.945-8.102,18.945-18.566v-10.459
		c3.998,2.437,8.309,4.531,13.191,6.273l-3.543,17.732c-0.343,1.045,0,2.035,0.701,2.731c0.692,0.699,1.741,1.287,2.791,1.287
		h77.407c1.05,0,2.099-0.237,2.798-1.287c0.231-0.231,0.418-0.497,0.56-0.782c0.18-0.356,0.282-0.746,0.271-1.162
		c-0.003-0.256-0.045-0.519-0.133-0.787l-2.24-11.393l-1.25-6.367c23.367-8.718,46.031-27.884,47.424-69.385
		c0-0.009-0.002-0.018-0.002-0.028c0-0.016,0.002-0.032,0.002-0.049c0-0.91-0.281-1.621-0.806-2.25
		c-0.077-0.096-0.146-0.197-0.235-0.287c-0.694-0.699-1.392-1.223-2.44-1.223h-27.199c6.968-7,26.149-29.808,24.412-45.85
		c-0.696-5.211-2.781-10.332-6.243-14.165l13.215-17.737c0.397-0.529,0.592-1.209,0.605-1.906c0.033-1.145-0.432-2.341-1.309-2.999
		c-1.393-1.046-3.832-0.686-4.881,0.71l-9.066,11.162l3.14-27.89c0.044-0.218,0.062-0.437,0.052-0.652
		c-0.058-1.507-1.355-2.881-3.191-3.187c-1.736-0.347-3.482,1.047-3.834,3.141l-3.484,32.084c-1.047-0.35-1.746-1.048-2.791-1.395
		c-7.672-2.79-15.34-1.744-20.223,2.789c-6.284,5.928-13.604,16.39-18.139,23.715c-0.088-0.349-0.175-0.693-0.263-1.031
		c-0.616-2.371-1.305-4.505-2.528-6.642c-3.484-5.581-8.717-8.369-15.691-9.068c-7.324-0.696-12.904,1.396-16.74,5.581
		c-2.09,2.442-3.135,5.23-3.832,8.021c-2.791-2.092-6.98-3.836-12.207-4.534c-5.576-0.698-10.115,0.347-13.605,3.834
		c-3.833,3.487-5.227,8.719-5.924,13.253c-1.393-0.697-3.139-1.396-4.883-1.743c-4.88-0.349-9.416,2.091-13.949,8.021
		c-3.664,4.71-5.56,9.513-5.542,13.974c0.005,1.481,0.223,2.927,0.659,4.324c1.049,3.14,2.791,6.188,4.883,8.188h-16.391
		c-1.045,0-1.741,0.182-2.441,0.879c-0.393,0.395-0.663,0.946-0.834,1.48c-0.132,0.368-0.211,0.731-0.211,1.035
		c0,0.022,0.002,0.044,0.002,0.065c0,0.006-0.002,0.013-0.002,0.018c0,2.792,0.349,5.522,0.699,8.522h-64.515
		c-2.095,0-3.242,0.917-3.242,3.014V192h-7.57c-10.114,0-18.135,7.884-18.135,18.001C74.295,219.766,82.665,228,92.43,228z"/>
</g>
<g>
	<path fill="none" d="M148.574,98.386c-1.046,1.745-0.349,3.838,1.046,4.883c1.047,0.697,9.766,6.625,4.883,16.739
		c-1.745,3.834-4.883,6.277-8.021,8.718c-6.627,5.23-13.949,11.16-4.533,27.898c0.698,1.047,1.743,1.743,3.138,1.743
		c0.697,0,1.047,0,1.743-0.349c1.745-1.047,2.441-3.14,1.396-4.884c-6.626-11.509-3.487-13.948,2.79-18.832
		c3.488-2.788,7.672-5.926,10.113-11.507c5.929-12.904-2.441-22.318-7.672-25.456C151.712,96.294,149.62,96.989,148.574,98.386z"/>
	<path fill="none" d="M92.43,228.001H100v7.434c0,10.465,8.122,18.566,18.584,18.57h63.471c10.463,0,18.945-8.102,18.945-18.566
		v-10.459c3.998,2.437,8.309,4.531,13.191,6.273l-3.543,17.732c-0.344,1.045,0,2.035,0.701,2.731
		c0.692,0.699,1.741,1.287,2.791,1.287h77.407c1.05,0,2.099-0.237,2.798-1.287c0.231-0.231,0.418-0.497,0.56-0.782
		c0.18-0.356,0.282-0.746,0.271-1.162c-0.003-0.256-0.045-0.519-0.133-0.787l-2.24-11.393l-1.25-6.367
		c23.367-8.718,46.031-27.884,47.424-69.385c0-0.009-0.002-0.018-0.002-0.027c0-0.017,0.002-0.033,0.002-0.049
		c0-0.91-0.281-1.621-0.806-2.25c-0.077-0.097-0.146-0.197-0.235-0.287c-0.694-0.699-1.392-1.224-2.44-1.224h-27.199
		c6.968-7,26.149-29.808,24.412-45.851c-0.696-5.211-2.781-10.332-6.243-14.164l13.215-17.737c0.397-0.528,0.592-1.209,0.605-1.906
		c0.033-1.145-0.432-2.341-1.309-2.999c-1.393-1.046-3.832-0.686-4.881,0.711l-9.066,11.161l3.14-27.89
		c0.044-0.219,0.062-0.438,0.052-0.652c-0.058-1.507-1.355-2.881-3.191-3.188c-1.736-0.346-3.482,1.048-3.834,3.142l-3.484,32.084
		c-1.047-0.351-1.746-1.048-2.791-1.396c-7.672-2.789-15.34-1.743-20.223,2.789c-6.284,5.929-13.604,16.391-18.139,23.715
		c-0.088-0.348-0.175-0.692-0.263-1.03c-0.616-2.371-1.305-4.505-2.528-6.642c-3.484-5.582-8.717-8.369-15.691-9.068
		c-7.324-0.696-12.904,1.396-16.74,5.581c-2.09,2.442-3.135,5.229-3.832,8.021c-2.791-2.092-6.98-3.836-12.207-4.533
		c-5.576-0.698-10.115,0.347-13.605,3.834c-3.834,3.486-5.227,8.719-5.924,13.252c-1.394-0.696-3.14-1.396-4.884-1.742
		c-4.88-0.35-9.416,2.091-13.948,8.021c-3.664,4.709-5.561,9.512-5.543,13.973c0.006,1.481,0.224,2.928,0.659,4.324
		c1.05,3.141,2.791,6.188,4.884,8.188h-16.392c-1.045,0-1.741,0.183-2.441,0.879c-0.393,0.396-0.663,0.946-0.834,1.479
		c-0.132,0.369-0.211,0.731-0.211,1.035c0,0.022,0.002,0.045,0.002,0.065c0,0.006-0.002,0.013-0.002,0.019
		c0,2.791,0.349,5.521,0.699,8.521h-64.515c-2.095,0-3.242,0.917-3.242,3.014v18.986h-7.57c-10.114,0-18.135,7.884-18.135,18.001
		C74.295,219.767,82.665,228.001,92.43,228.001z"/>
	<path fill="none" d="M136.024,65.952c0.347,0,11.159,3.49,9.066,14.998c-0.696,4.183-3.138,7.322-5.579,10.461
		c-4.882,6.624-10.811,14.298,2.789,27.898c0.698,0.697,1.744,1.045,2.441,1.045c1.045,0,1.744-0.348,2.441-1.045
		c1.395-1.396,1.395-3.488,0-4.884c-9.416-9.417-6.975-12.554-2.093-18.832c2.791-3.487,5.928-7.67,6.625-13.599
		c2.441-13.949-8.37-20.924-13.949-22.668c-1.743-0.698-3.837,0.348-4.184,2.439C133.231,63.163,134.277,65.254,136.024,65.952z"/>
	<path fill="none" d="M362.852,250.168c-0.186-0.876-0.699-1.665-1.551-2.177c-1.393-1.049-3.84-0.145-4.881,1.252l-8.023,12.758
		H69.762l-6.278-13.104c-0.284-0.713-0.806-1.256-1.435-1.592c-0.915-0.512-2.064-0.578-3.098,0.043
		c-0.812,0.324-1.384,0.969-1.672,1.736c-0.101,0.26-0.176,0.531-0.201,0.816c-0.061,0.67,0.085,1.379,0.478,2.033l5.109,10.297
		l2.214,4.485c0.35,1.396,1.395,2.284,2.791,2.284h140.58v-0.503h3.5v0.503h138.746c1.047,0,2.434-0.913,2.783-1.962l9.068-14.056
		c0.395-0.662,0.59-1.387,0.584-2.092C362.934,250.646,362.905,250.403,362.852,250.168z"/>
	<rect x="208.25" y="268.498" fill="none" width="3.5" height="0.503"/>
</g>
<g>
	<path fill="none" d="M148.574,98.386c-1.046,1.745-0.349,3.838,1.046,4.883c1.047,0.697,9.766,6.625,4.883,16.739
		c-1.745,3.834-4.883,6.277-8.021,8.718c-6.627,5.23-13.949,11.16-4.533,27.898c0.698,1.047,1.743,1.743,3.138,1.743
		c0.697,0,1.047,0,1.743-0.349c1.745-1.047,2.441-3.14,1.396-4.884c-6.626-11.509-3.487-13.948,2.79-18.832
		c3.488-2.788,7.672-5.926,10.113-11.507c5.929-12.904-2.441-22.318-7.672-25.456C151.712,96.294,149.62,96.989,148.574,98.386z"/>
	<path fill="none" d="M320.25,71.499h-0.452l-2.087,19.216c-1.047-0.351-1.746-1.048-2.791-1.396
		c-7.672-2.789-15.34-1.743-20.223,2.789c-6.284,5.929-13.604,16.391-18.139,23.715c-0.088-0.348-0.175-0.692-0.263-1.03
		c-0.616-2.371-1.305-4.505-2.528-6.642c-3.484-5.582-8.717-8.369-15.691-9.068c-7.324-0.696-12.904,1.396-16.74,5.581
		c-2.09,2.442-3.135,5.229-3.832,8.021c-2.791-2.092-6.98-3.836-12.207-4.533c-5.576-0.698-10.115,0.347-13.605,3.834
		c-3.834,3.486-5.227,8.719-5.924,13.252c-1.394-0.696-3.14-1.396-4.884-1.742c-4.88-0.35-9.416,2.091-13.948,8.021
		c-3.664,4.709-5.561,9.512-5.543,13.973c0.006,1.481,0.224,2.928,0.659,4.324c1.05,3.141,2.791,6.188,4.884,8.188h-16.392
		c-1.045,0-1.741,0.183-2.441,0.879c-0.393,0.396-0.663,0.946-0.834,1.479c-0.132,0.369-0.211,0.731-0.211,1.035
		c0,0.022,0.002,0.045,0.002,0.065c0,0.006-0.002,0.013-0.002,0.019c0,2.791,0.349,5.521,0.699,8.521h-64.515
		c-2.095,0-3.242,0.917-3.242,3.014v18.986h-7.57c-10.114,0-18.135,7.884-18.135,18.001c0,9.765,8.37,17.999,18.135,17.999H100
		v7.434c0,10.465,8.122,18.566,18.584,18.57h63.471c10.463,0,18.945-8.102,18.945-18.566v-10.459
		c3.998,2.437,8.309,4.531,13.191,6.273l-3.543,17.732c-0.344,1.045,0,2.035,0.701,2.731c0.692,0.699,1.741,1.287,2.791,1.287
		h77.407c1.05,0,2.099-0.237,2.798-1.287c0.231-0.231,0.418-0.497,0.56-0.782c0.18-0.356,0.282-0.746,0.271-1.162
		c-0.003-0.256-0.045-0.519-0.133-0.787l-2.24-11.393l-1.25-6.367c23.367-8.718,46.031-27.884,47.424-69.385
		c0-0.009-0.002-0.018-0.002-0.027c0-0.017,0.002-0.033,0.002-0.049c0-0.91-0.281-1.621-0.806-2.25
		c-0.077-0.097-0.146-0.197-0.235-0.287c-0.694-0.699-1.392-1.224-2.44-1.224h-27.199c6.968-7,26.149-29.808,24.412-45.851
		c-0.696-5.211-2.781-10.332-6.243-14.164l13.215-17.737c0.397-0.528,0.592-1.209,0.605-1.906c0.033-1.145-0.432-2.341-1.309-2.999
		c-1.393-1.046-3.832-0.686-4.881,0.711l-9.066,11.161l3.14-27.89c0.044-0.219,0.062-0.438,0.052-0.652
		c-0.058-1.507-1.355-2.881-3.191-3.188c-1.736-0.346-3.482,1.048-3.834,3.142l-0.963,8.868h0.018V71.499z"/>
	<path fill="none" d="M136.024,65.952c0.347,0,11.159,3.49,9.066,14.998c-0.696,4.183-3.138,7.322-5.579,10.461
		c-4.882,6.624-10.811,14.298,2.789,27.898c0.698,0.697,1.744,1.045,2.441,1.045c1.045,0,1.744-0.348,2.441-1.045
		c1.395-1.396,1.395-3.488,0-4.884c-9.416-9.417-6.975-12.554-2.093-18.832c2.791-3.487,5.928-7.67,6.625-13.599
		c2.441-13.949-8.37-20.924-13.949-22.668c-1.743-0.698-3.837,0.348-4.184,2.439C133.231,63.163,134.277,65.254,136.024,65.952z"/>
	<path fill="#3E253C" d="M212,0.001v67.498h108.232l0.963-8.868c0.352-2.094,2.098-3.487,3.834-3.142
		c1.836,0.307,3.134,1.681,3.191,3.188c0.01,0.215-0.008,0.434-0.052,0.652l-3.14,27.89l9.066-11.161
		c1.049-1.396,3.488-1.757,4.881-0.711c0.877,0.658,1.342,1.854,1.309,2.999c-0.014,0.697-0.208,1.378-0.605,1.906l-13.215,17.737
		c3.462,3.832,5.547,8.953,6.243,14.164c1.737,16.043-17.444,38.851-24.412,45.851h27.199c1.049,0,1.746,0.524,2.44,1.224
		c0.09,0.09,0.158,0.19,0.235,0.287c0.524,0.629,0.806,1.34,0.806,2.25c0,0.016-0.002,0.032-0.002,0.049
		c0,0.01,0.002,0.019,0.002,0.027c-1.393,41.501-24.057,60.667-47.424,69.385l1.25,6.367l2.24,11.393
		c0.088,0.269,0.13,0.531,0.133,0.787c0.012,0.416-0.091,0.806-0.271,1.162c-0.142,0.285-0.328,0.551-0.56,0.782
		c-0.699,1.05-1.748,1.287-2.798,1.287h-77.407c-1.05,0-2.099-0.588-2.791-1.287c-0.701-0.696-1.045-1.687-0.701-2.731l3.543-17.732
		c-4.883-1.742-9.193-3.837-13.191-6.273v10.459c0,10.465-8.482,18.566-18.945,18.566h-63.471
		c-10.462-0.004-18.584-8.105-18.584-18.57v-7.434h-7.57c-9.765,0-18.135-8.234-18.135-17.999c0-10.117,8.021-18.001,18.135-18.001
		H100v-18.986c0-2.097,1.147-3.014,3.242-3.014h64.515c-0.35-3-0.699-5.73-0.699-8.521c0-0.006,0.002-0.013,0.002-0.019
		c0-0.021-0.002-0.043-0.002-0.065c0-0.304,0.079-0.666,0.211-1.035c0.171-0.533,0.441-1.084,0.834-1.479
		c0.7-0.696,1.396-0.879,2.441-0.879h16.392c-2.093-2-3.834-5.048-4.884-8.188c-0.436-1.396-0.653-2.843-0.659-4.324
		c-0.018-4.461,1.879-9.264,5.543-13.973c4.532-5.931,9.068-8.371,13.948-8.021c1.744,0.347,3.49,1.046,4.884,1.742
		c0.697-4.533,2.09-9.766,5.924-13.252c3.49-3.487,8.029-4.532,13.605-3.834c5.227,0.697,9.416,2.441,12.207,4.533
		c0.697-2.791,1.742-5.578,3.832-8.021c3.836-4.185,9.416-6.277,16.74-5.581c6.975,0.699,12.207,3.486,15.691,9.068
		c1.224,2.137,1.912,4.271,2.528,6.642c0.088,0.338,0.175,0.683,0.263,1.03c4.534-7.324,11.854-17.786,18.139-23.715
		c4.883-4.532,12.551-5.578,20.223-2.789c1.045,0.348,1.744,1.045,2.791,1.396l2.087-19.216H208v-0.886v-3.114V0.001H0v325h208.25
		v-56H67.67c-1.396,0-2.441-0.889-2.791-2.284l-2.214-4.485l-5.109-10.297c-0.393-0.654-0.539-1.363-0.478-2.033
		c0.025-0.285,0.1-0.557,0.201-0.816c0.288-0.768,0.86-1.412,1.672-1.736c1.034-0.621,2.183-0.555,3.098-0.043
		c0.629,0.336,1.151,0.879,1.435,1.592l6.278,13.104h278.634l8.023-12.758c1.041-1.396,3.488-2.301,4.881-1.252
		c0.852,0.512,1.365,1.301,1.551,2.177c0.054,0.235,0.082,0.478,0.08,0.724c0.006,0.705-0.189,1.43-0.584,2.092l-9.068,14.056
		c-0.35,1.049-1.736,1.962-2.783,1.962H211.75v56H420v-325H212z M161.129,122.796c-2.441,5.581-6.625,8.719-10.113,11.507
		c-6.277,4.884-9.416,7.323-2.79,18.832c1.045,1.744,0.349,3.837-1.396,4.884c-0.696,0.349-1.046,0.349-1.743,0.349
		c-1.395,0-2.44-0.696-3.138-1.743c-9.416-16.738-2.094-22.668,4.533-27.898c3.138-2.44,6.276-4.884,8.021-8.718
		c4.883-10.114-3.836-16.042-4.883-16.739c-1.395-1.045-2.092-3.138-1.046-4.883c1.046-1.396,3.138-2.092,4.883-1.046
		C158.688,100.478,167.058,109.892,161.129,122.796z M133.581,61.767c0.347-2.092,2.441-3.138,4.184-2.439
		c5.579,1.744,16.39,8.719,13.949,22.668c-0.697,5.929-3.834,10.111-6.625,13.599c-4.882,6.278-7.323,9.415,2.093,18.832
		c1.395,1.396,1.395,3.487,0,4.884c-0.697,0.697-1.396,1.045-2.441,1.045c-0.697,0-1.743-0.348-2.441-1.045
		c-13.6-13.601-7.671-21.274-2.789-27.898c2.441-3.139,4.883-6.278,5.579-10.461c2.093-11.508-8.719-14.998-9.066-14.998
		C134.277,65.254,133.231,63.163,133.581,61.767z"/>
</g>
</svg>
