<?xml version="1.0" encoding="utf-8"?>
<!-- Generator: Adobe Illustrator 16.0.0, SVG Export Plug-In . SVG Version: 6.00 Build 0)  -->
<!DOCTYPE svg PUBLIC "-//W3C//DTD SVG 1.1//EN" "http://www.w3.org/Graphics/SVG/1.1/DTD/svg11.dtd">
<svg version="1.1" id="Layer_1" xmlns="http://www.w3.org/2000/svg" xmlns:xlink="http://www.w3.org/1999/xlink" x="0px" y="0px"
	 width="508.161px" height="336.741px" viewBox="0 0 508.161 336.741" enable-background="new 0 0 508.161 336.741"
	 xml:space="preserve">
<g>
	<defs>
		<rect id="SVGID_1_" x="-104.313" y="-31.06" width="688.517" height="384.95"/>
	</defs>
	<clipPath id="SVGID_2_">
		<use xlink:href="#SVGID_1_"  overflow="visible"/>
	</clipPath>
	<g clip-path="url(#SVGID_2_)">
		<text transform="matrix(1 0 0 1 401.1465 287.6353)"><tspan x="0" y="0" fill="#699EC0" font-family="'MyriadPro-Bold'" font-size="8">INNER SUBURB</tspan><tspan x="57.431" y="0" fill="#699EC0" font-family="'MyriadPro-Bold'" font-size="8">S</tspan></text>
	</g>
	<g clip-path="url(#SVGID_2_)">
		<text transform="matrix(1 0 0 1 401.1465 298.6353)"><tspan x="0" y="0" fill="#699EC0" font-family="'MyriadPro-Bold'" font-size="8">E</tspan><tspan x="4.544" y="0" fill="#699EC0" font-family="'MyriadPro-Bold'" font-size="8">t</tspan><tspan x="7.76" y="0" fill="#699EC0" font-family="'MyriadPro-Bold'" font-size="8">obi</tspan><tspan x="20.312" y="0" fill="#699EC0" font-family="'MyriadPro-Bold'" font-size="8">c</tspan><tspan x="24.151" y="0" fill="#699EC0" font-family="'MyriadPro-Bold'" font-size="8">o</tspan><tspan x="29.088" y="0" fill="#699EC0" font-family="'MyriadPro-Bold'" font-size="8">k</tspan><tspan x="33.632" y="0" fill="#699EC0" font-family="'MyriadPro-Bold'" font-size="8">e</tspan><tspan x="38.048" y="0" fill="#699EC0" font-family="'MyriadPro-Bold'" font-size="8">, </tspan><tspan x="42.384" y="0" fill="#699EC0" font-family="'MyriadPro-Bold'" font-size="8">N</tspan><tspan x="48.199" y="0" fill="#699EC0" font-family="'MyriadPro-Bold'" font-size="8">o</tspan><tspan x="53.136" y="0" fill="#699EC0" font-family="'MyriadPro-Bold'" font-size="8">r</tspan><tspan x="56.663" y="0" fill="#699EC0" font-family="'MyriadPro-Bold'" font-size="8">th</tspan><tspan x="64.927" y="0" fill="#699EC0" font-family="'MyriadPro-Bold'" font-size="8"> </tspan><tspan x="66.543" y="0" fill="#699EC0" font-family="'MyriadPro-Bold'" font-size="8">Y</tspan><tspan x="70.823" y="0" fill="#699EC0" font-family="'MyriadPro-Bold'" font-size="8">o</tspan><tspan x="75.759" y="0" fill="#699EC0" font-family="'MyriadPro-Bold'" font-size="8">r</tspan><tspan x="79.095" y="0" fill="#699EC0" font-family="'MyriadPro-Bold'" font-size="8">k</tspan><tspan x="83.783" y="0" fill="#699EC0" font-family="'MyriadPro-Bold'" font-size="8">, </tspan></text>
	</g>
	<g clip-path="url(#SVGID_2_)">
		<text transform="matrix(1 0 0 1 401.1465 309.6353)"><tspan x="0" y="0" fill="#699EC0" font-family="'MyriadPro-Bold'" font-size="8">and </tspan><tspan x="16.576" y="0" fill="#699EC0" font-family="'MyriadPro-Bold'" font-size="8">S</tspan><tspan x="21.264" y="0" fill="#699EC0" font-family="'MyriadPro-Bold'" font-size="8">c</tspan><tspan x="25.224" y="0" fill="#699EC0" font-family="'MyriadPro-Bold'" font-size="8">a</tspan><tspan x="29.768" y="0" fill="#699EC0" font-family="'MyriadPro-Bold'" font-size="8">r</tspan><tspan x="33.104" y="0" fill="#699EC0" font-family="'MyriadPro-Bold'" font-size="8">b</tspan><tspan x="38.231" y="0" fill="#699EC0" font-family="'MyriadPro-Bold'" font-size="8">o</tspan><tspan x="43.168" y="0" fill="#699EC0" font-family="'MyriadPro-Bold'" font-size="8">r</tspan><tspan x="46.464" y="0" fill="#699EC0" font-family="'MyriadPro-Bold'" font-size="8">oug</tspan><tspan x="61.384" y="0" fill="#699EC0" font-family="'MyriadPro-Bold'" font-size="8">h</tspan></text>
	</g>
	<g clip-path="url(#SVGID_2_)">
		<text transform="matrix(1 0 0 1 401.1465 259.1226)"><tspan x="0" y="0" fill="#3E253C" font-family="'MyriadPro-Bold'" font-size="8">CI</tspan><tspan x="7.68" y="0" fill="#3E253C" font-family="'MyriadPro-Bold'" font-size="8">T</tspan><tspan x="12.439" y="0" fill="#3E253C" font-family="'MyriadPro-Bold'" font-size="8">Y </tspan><tspan x="19.521" y="0" fill="#3E253C" font-family="'MyriadPro-Bold'" font-size="8">C</tspan><tspan x="24.36" y="0" fill="#3E253C" font-family="'MyriadPro-Bold'" font-size="8">O</tspan><tspan x="30.408" y="0" fill="#3E253C" font-family="'MyriadPro-Bold'" font-size="8">R</tspan><tspan x="35.473" y="0" fill="#3E253C" font-family="'MyriadPro-Bold'" font-size="8">E</tspan><tspan x="39.744" y="0" fill="#BE4A47" font-family="'MyriadPro-Bold'" font-size="8"> </tspan></text>
	</g>
	<g clip-path="url(#SVGID_2_)">
		<text transform="matrix(1 0 0 1 401.1465 270.1226)"><tspan x="0" y="0" fill="#3E253C" font-family="'MyriadPro-Bold'" font-size="8">T</tspan><tspan x="4.063" y="0" fill="#3E253C" font-family="'MyriadPro-Bold'" font-size="8">o</tspan><tspan x="9" y="0" fill="#3E253C" font-family="'MyriadPro-Bold'" font-size="8">r</tspan><tspan x="12.296" y="0" fill="#3E253C" font-family="'MyriadPro-Bold'" font-size="8">o</tspan><tspan x="17.232" y="0" fill="#3E253C" font-family="'MyriadPro-Bold'" font-size="8">n</tspan><tspan x="22.192" y="0" fill="#3E253C" font-family="'MyriadPro-Bold'" font-size="8">t</tspan><tspan x="25.408" y="0" fill="#3E253C" font-family="'MyriadPro-Bold'" font-size="8">o</tspan><tspan x="30.072" y="0" fill="#3E253C" font-family="'MyriadPro-Bold'" font-size="8">,</tspan><tspan x="32.465" y="0" fill="#3E253C" font-family="'MyriadPro-Bold'" font-size="8"> East</tspan><tspan x="50.583" y="0" fill="#3E253C" font-family="'MyriadPro-Bold'" font-size="8"> </tspan><tspan x="52.199" y="0" fill="#3E253C" font-family="'MyriadPro-Bold'" font-size="8">Y</tspan><tspan x="56.472" y="0" fill="#3E253C" font-family="'MyriadPro-Bold'" font-size="8">o</tspan><tspan x="61.408" y="0" fill="#3E253C" font-family="'MyriadPro-Bold'" font-size="8">r</tspan><tspan x="64.744" y="0" fill="#3E253C" font-family="'MyriadPro-Bold'" font-size="8">k</tspan><tspan x="69.432" y="0" fill="#3E253C" font-family="'MyriadPro-Bold'" font-size="8">,</tspan><tspan x="71.824" y="0" fill="#3E253C" font-family="'MyriadPro-Bold'" font-size="8"> and</tspan><tspan x="88.399" y="0" fill="#3E253C" font-family="'MyriadPro-Bold'" font-size="8"> </tspan><tspan x="90.016" y="0" fill="#3E253C" font-family="'MyriadPro-Bold'" font-size="8">Y</tspan><tspan x="94.288" y="0" fill="#3E253C" font-family="'MyriadPro-Bold'" font-size="8">o</tspan><tspan x="99.225" y="0" fill="#3E253C" font-family="'MyriadPro-Bold'" font-size="8">r</tspan><tspan x="102.561" y="0" fill="#3E253C" font-family="'MyriadPro-Bold'" font-size="8">k</tspan></text>
	</g>
	<g clip-path="url(#SVGID_2_)">
		<text transform="matrix(1 0 0 1 401.1465 228.1714)"><tspan x="0" y="0" fill="#C06C69" font-family="'MyriadPro-Bold'" font-size="8">90</tspan><tspan x="9.52" y="0" fill="#C06C69" font-family="'MyriadPro-Bold'" font-size="8">5 </tspan></text>
	</g>
	<g clip-path="url(#SVGID_2_)">
		<text transform="matrix(1 0 0 1 401.1465 239.1714)"><tspan x="0" y="0" fill="#C06C69" font-family="'MyriadPro-Bold'" font-size="8">P</tspan><tspan x="4.768" y="0" fill="#C06C69" font-family="'MyriadPro-Bold'" font-size="8">ee</tspan><tspan x="13.854" y="0" fill="#C06C69" font-family="'MyriadPro-Bold'" font-size="8">l</tspan><tspan x="16.295" y="0" fill="#C06C69" font-family="'MyriadPro-Bold'" font-size="8">, </tspan><tspan x="20.631" y="0" fill="#C06C69" font-family="'MyriadPro-Bold'" font-size="8">D</tspan><tspan x="26.552" y="0" fill="#C06C69" font-family="'MyriadPro-Bold'" font-size="8">u</tspan><tspan x="31.535" y="0" fill="#C06C69" font-family="'MyriadPro-Bold'" font-size="8">r</tspan><tspan x="34.872" y="0" fill="#C06C69" font-family="'MyriadPro-Bold'" font-size="8">h</tspan><tspan x="39.88" y="0" fill="#C06C69" font-family="'MyriadPro-Bold'" font-size="8">a</tspan><tspan x="44.416" y="0" fill="#C06C69" font-family="'MyriadPro-Bold'" font-size="8">m, and</tspan><tspan x="70.591" y="0" fill="#C06C69" font-family="'MyriadPro-Bold'" font-size="8"> </tspan><tspan x="72.207" y="0" fill="#C06C69" font-family="'MyriadPro-Bold'" font-size="8">Y</tspan><tspan x="76.479" y="0" fill="#C06C69" font-family="'MyriadPro-Bold'" font-size="8">o</tspan><tspan x="81.415" y="0" fill="#C06C69" font-family="'MyriadPro-Bold'" font-size="8">r</tspan><tspan x="84.751" y="0" fill="#C06C69" font-family="'MyriadPro-Bold'" font-size="8">k</tspan></text>
	</g>
	<g clip-path="url(#SVGID_2_)">
		<defs>
			<rect id="SVGID_3_" x="-104.313" y="-31.06" width="688.517" height="384.95"/>
		</defs>
		<clipPath id="SVGID_4_">
			<use xlink:href="#SVGID_3_"  overflow="visible"/>
		</clipPath>
		<path clip-path="url(#SVGID_4_)" fill="none" stroke="#C04A48" stroke-miterlimit="10" d="M188.811,336.241
			c7.939,0,14.377-6.438,14.377-14.377c0-7.94-6.438-14.377-14.377-14.377c-7.94,0-14.378,6.437-14.378,14.377
			C174.433,329.803,180.87,336.241,188.811,336.241"/>
		<path clip-path="url(#SVGID_4_)" fill="#FFFFFF" d="M188.094,332.318l0.82-8.285l0.819,8.285 M191.179,332.218l-0.354-10.061
			l0.12-3.893l0.484,5.015c0.031,0.317,0.301,0.553,0.614,0.553c0.021,0,0.043,0,0.066-0.003c0.34-0.033,0.587-0.339,0.55-0.68
			c0,0-0.476-5.771-0.701-6.232c-0.451-0.923-1.151-1.483-2.869-1.483h-0.176h-0.177c-1.719,0-2.417,0.561-2.869,1.483
			c-0.227,0.462-0.701,6.232-0.701,6.232c-0.036,0.341,0.21,0.646,0.55,0.68c0.023,0.003,0.044,0.003,0.067,0.003
			c0.312,0,0.582-0.235,0.612-0.553l0.485-5.015l0.12,3.893l-0.354,10.061"/>
	</g>
	<g clip-path="url(#SVGID_2_)">
		<text transform="matrix(1 0 0 1 103.127 300.6987)"><tspan x="0" y="0" fill="#FFFFFF" font-family="'MyriadPro-Bold'" font-size="8">6</tspan><tspan x="4.761" y="0" fill="#FFFFFF" font-family="'MyriadPro-Bold'" font-size="8">0</tspan><tspan x="9.512" y="0" fill="#FFFFFF" font-family="'MyriadPro-Bold'" font-size="8">% </tspan></text>
	</g>
	<g clip-path="url(#SVGID_2_)">
		<text transform="matrix(1 0 0 1 87.0532 308.6987)"><tspan x="0" y="0" fill="#FFFFFF" font-family="'MyriadPro-Bold'" font-size="6">N</tspan><tspan x="4.362" y="0" fill="#FFFFFF" font-family="'MyriadPro-Bold'" font-size="6">ot </tspan><tspan x="11.958" y="0" fill="#FFFFFF" font-family="'MyriadPro-Bold'" font-size="6">b</tspan><tspan x="15.804" y="0" fill="#FFFFFF" font-family="'MyriadPro-Bold'" font-size="6">or</tspan><tspan x="22.026" y="0" fill="#FFFFFF" font-family="'MyriadPro-Bold'" font-size="6">n</tspan><tspan x="25.776" y="0" fill="#FFFFFF" font-family="'MyriadPro-Bold'" font-size="6"> i</tspan><tspan x="29.111" y="0" fill="#FFFFFF" font-family="'MyriadPro-Bold'" font-size="6">n </tspan></text>
	</g>
	<g clip-path="url(#SVGID_2_)">
		<text transform="matrix(1 0 0 1 98.3809 316.6968)"><tspan x="0" y="0" fill="#FFFFFF" font-family="'MyriadPro-Bold'" font-size="6">C</tspan><tspan x="3.75" y="0" fill="#FFFFFF" font-family="'MyriadPro-Bold'" font-size="6">a</tspan><tspan x="7.152" y="0" fill="#FFFFFF" font-family="'MyriadPro-Bold'" font-size="6">n</tspan><tspan x="10.908" y="0" fill="#FFFFFF" font-family="'MyriadPro-Bold'" font-size="6">a</tspan><tspan x="14.31" y="0" fill="#FFFFFF" font-family="'MyriadPro-Bold'" font-size="6">d</tspan><tspan x="18.126" y="0" fill="#FFFFFF" font-family="'MyriadPro-Bold'" font-size="6">a</tspan></text>
	</g>
	<g clip-path="url(#SVGID_2_)">
		<text transform="matrix(1 0 0 1 155.127 321.9897)"><tspan x="0" y="0" fill="#FFFFFF" font-family="'MyriadPro-Bold'" font-size="8">59</tspan><tspan x="9.52" y="0" fill="#FFFFFF" font-family="'MyriadPro-Bold'" font-size="8">% </tspan></text>
	</g>
	<g clip-path="url(#SVGID_2_)">
		<text transform="matrix(1 0 0 1 150.915 329.9897)"><tspan x="0" y="0" fill="#FFFFFF" font-family="'MyriadPro-Bold'" font-size="6">Sin</tspan><tspan x="9.107" y="0" fill="#FFFFFF" font-family="'MyriadPro-Bold'" font-size="6">gl</tspan><tspan x="14.748" y="0" fill="#FFFFFF" font-family="'MyriadPro-Bold'" font-size="6">e</tspan><tspan x="18.149" y="0" fill="#FFFFFF" font-family="'MyriadPro-Bold'" font-size="6">s</tspan></text>
	</g>
	<g clip-path="url(#SVGID_2_)">
		<text transform="matrix(1 0 0 1 255.0137 308.853)"><tspan x="0" y="0" fill="#FFFFFF" font-family="'MyriadPro-Bold'" font-size="8">55</tspan><tspan x="9.52" y="0" fill="#FFFFFF" font-family="'MyriadPro-Bold'" font-size="8">% </tspan></text>
	</g>
	<g clip-path="url(#SVGID_2_)">
		<text transform="matrix(1 0 0 1 255.0137 316.853)"><tspan x="0" y="0" fill="#FFFFFF" font-family="'MyriadPro-Bold'" font-size="6">D</tspan><tspan x="4.439" y="0" fill="#FFFFFF" font-family="'MyriadPro-Bold'" font-size="6">isabili</tspan><tspan x="22.061" y="0" fill="#FFFFFF" font-family="'MyriadPro-Bold'" font-size="6">t</tspan><tspan x="24.532" y="0" fill="#FFFFFF" font-family="'MyriadPro-Bold'" font-size="6">y</tspan></text>
	</g>
	<path clip-path="url(#SVGID_2_)" fill="none" stroke="#78A12F" stroke-width="2" d="M0.986,236.041"/>
	<path clip-path="url(#SVGID_2_)" fill="none" stroke="#78A12F" stroke-width="2" d="M4.486,215.041"/>
	<g clip-path="url(#SVGID_2_)">
		<defs>
			<rect id="SVGID_5_" x="-104.313" y="-31.06" width="688.517" height="384.95"/>
		</defs>
		<clipPath id="SVGID_6_">
			<use xlink:href="#SVGID_5_"  overflow="visible"/>
		</clipPath>
		<g opacity="0.23" clip-path="url(#SVGID_6_)">
			<g>
				<defs>
					<rect id="SVGID_7_" x="52.486" y="178.24" width="76.601" height="107.4"/>
				</defs>
				<clipPath id="SVGID_8_">
					<use xlink:href="#SVGID_7_"  overflow="visible"/>
				</clipPath>
			</g>
		</g>
	</g>
	<polygon clip-path="url(#SVGID_2_)" fill="#C06C69" points="114.633,161.016 123.791,160.394 138.769,160.177 152.167,160.674 
		165.686,158.517 181.445,157.2 202.785,154.719 217.484,152.915 238.517,150.749 248.604,149.833 259.855,151.742 267.794,150.749 
		288.854,149.235 303.486,150.72 314.2,150.305 316.924,156.208 320.982,166.371 328.923,179.312 337.132,187.23 339.547,191.362 
		341.366,186.839 349.486,186.12 349.187,188.862 354.541,187.435 366.679,186.72 371.32,185.292 371.606,182.64 372.486,178.681 
		372.034,172.083 371.019,162.163 370.606,157.445 365.965,153.875 366.551,148.267 370.025,139.831 370.521,134.372 
		369.893,132.812 365.063,128.417 363.824,125.672 368.04,125.438 373.106,126.744 386.897,124.446 392.606,124.201 397.886,121.92 
		397.816,119.979 397.816,101.123 394.883,75.692 390.868,73.828 371.019,75.813 352.757,76.406 337.272,76.31 328.339,77.303 
		318.484,75.333 314.914,76.048 317.422,81.769 316.699,88.186 317.055,89.972 313.451,89.708 307.992,88.22 303.133,89.614 
		297.57,89.212 288.143,90.204 282.188,89.708 273.144,90.686 269.283,89.708 261.839,88.716 257.437,87.83 254.58,88.9 
		250.296,88.9 250.296,59.981 225.117,61.422 214.696,60.429 208.883,59.625 205.763,83.258 204.598,79.975 194.844,81.271 
		182.438,81.271 167.055,81.271 157.625,81.769 142.123,83.188 130.331,84.746 122.392,84.746 111.472,85.738 103.037,84.249 
		105.517,93.182 102.852,92.827 88.149,107.574 64.586,125.94 49.936,138.837 42.875,140.666 33.593,139.238 28.952,150.305 
		27.108,153.229 22.526,154.946 19.669,157.803 1.462,170.655 28.101,219.728 18.956,227.776 30.086,250.993 36.537,261.414 
		42.988,272.333 47.951,280.273 52.514,282.398 56.884,284.243 61.35,281.761 62.867,282.041 66.313,284.243 68.298,289.205 
		72.268,296.154 73.757,300.62 78.986,304.141 84.674,299.13 87.858,297.748 87.858,295.25 91.071,292.394 97.496,284.184 
		102.044,278.784 107.493,273.115 109.201,271.675 113.338,269.283 116.448,266.889 119.252,264.975 121.234,263.709 
		123.08,262.308 127.388,261.043 128.892,260.975 125.165,252.216 124.105,250.301 122.192,248.114 121.234,246.335 
		121.575,243.396 123.662,241.311 125.302,239.875 126.567,238.85 126.465,235.018 124.277,233.581 123.252,232.283 
		121.782,231.496 119.936,230.262 117.371,228.895 116.038,227.254 114.158,226.159 112.791,223.798 112.073,220.552 
		111.97,217.612 113.508,215.455 115.046,213.404 116.654,212.343 118.772,205.23 118.431,202.495 119.799,198.151 119.73,195.69 
		118.807,189.396 118.534,187.48 117.919,185.634 116.619,183.034 115.321,179.957 114.604,178.111 113.474,170.484 
		113.679,168.876 114.192,164.087 114.192,162.105 	"/>
	<polygon clip-path="url(#SVGID_2_)" fill="#3E253C" points="194.292,203.562 194.519,207.275 191.398,211.428 189.555,212.848 
		192.939,217.218 192.939,222.9 192.038,224.758 178.271,224.646 176.692,233.935 176.692,243.218 182.107,245.513 191.398,249.994 
		193.841,254.255 195.647,259.28 198.45,263.975 204.674,263.975 214.715,257.749 225.247,253.38 233.894,248.899 262.103,232.295 
		258.491,214.032 247.433,213.502 236.15,216.307 231.865,211.976 228.592,215.909 219.793,215.469 220.887,208.14 219.396,204.656 
		209.907,204.48 210.09,204.656 202.303,204.656 196.438,201.49 	"/>
	<polygon clip-path="url(#SVGID_2_)" fill="#699EC0" points="266.986,149.4 217.998,153.718 181.929,156.355 124.306,161.197 
		111.986,162.736 111.986,172.634 118.144,192.432 119.024,207.391 115.945,213.112 111.986,217.731 112.867,226.31 117.703,229.83 
		126.942,236.428 120.784,245.228 126.063,255.788 129.142,260.628 134.501,261.443 150.258,254.907 164.772,248.75 
		175.328,245.228 178.587,244.44 177.64,237.309 178.347,229.98 178.85,225.429 179.667,224.94 191.973,224.551 194.127,222.9 
		193.887,217.86 192.485,215.752 190.727,212.671 191.986,211.8 194.366,209.28 194.667,206.041 196.236,201.12 199.424,202.043 
		199.303,203.067 204.627,204.66 210.3,204.313 215.799,205.632 218.906,205.14 221.236,207.36 219.264,214.431 221.299,215.899 
		226.796,216.193 228.556,216.193 229.436,213.993 231.195,212.671 235.157,217.731 238.673,215.752 244.887,213.84 
		253.191,214.066 257.593,214.431 260.89,233.35 273.425,225.87 283.981,221.031 291.458,216.63 302.46,210.031 318.732,199.912 
		335.45,190.234 337.646,188.035 329.438,180.115 321.372,169.556 317.854,162.736 316.093,155.477 315.486,152.16 	"/>
	<g clip-path="url(#SVGID_2_)">
		<defs>
			<rect id="SVGID_9_" x="-104.313" y="-31.06" width="688.517" height="384.95"/>
		</defs>
		<clipPath id="SVGID_10_">
			<use xlink:href="#SVGID_9_"  overflow="visible"/>
		</clipPath>
		<path clip-path="url(#SVGID_10_)" fill="#FFFFFF" d="M396.312,121.745h1.071c-0.722,1.659-3.153,1.608-4.285,2.855
			c-5.558,0.36-12.999,2.61-19.991,2.144c-2.99-0.201-5.843-1.559-8.212,0c-0.353,2.548,4.108,3.227,6.069,4.64
			c3.116,9.576-10.403,19.593-0.357,26.061c1.973,4.139,0.787,9.667,1.428,14.638c0.236,1.822,1.448,3.668,1.072,6.782
			c-0.127,1.043-0.867,1.941-1.072,2.857c-0.286,1.285,0.501,4.58-0.908,5.238c-2.778-1.689,1.36-6.139,0.908-8.096
			c0.363-2.395-0.77-4.193-1.07-6.782c-0.447-3.851,0.414-7.896-0.357-11.425c-0.866-1.206-1.368-2.432-2.142-3.569
			c-0.745-1.096-2.107-1.974-2.5-3.213c-2.491-7.899,6.608-13.507,3.928-21.064c-2.346-1.928-8.373-2.8-6.068-7.14
			c2.777-1.185,6.633-1.178,8.924,0.358C380.504,124.501,390.628,125.343,396.312,121.745"/>
		<path clip-path="url(#SVGID_10_)" fill="#FFFFFF" d="M205.312,263.119h0.714v-0.714h-0.714V263.119z M223.521,252.766
			c0.535-0.535,1.067-1.074,1.428-1.785C224.154,251.048,222.447,252.012,223.521,252.766 M164.972,246.696
			c-4.125,1.589-7.985,3.44-11.067,6.07C157.688,250.838,161.807,249.243,164.972,246.696 M33.95,254.194
			c0.218-0.02,0.423-0.054,0.357-0.355c-2.478-3.83-4.449-8.165-7.14-11.783C28.715,246.814,31.603,250.235,33.95,254.194
			 M278.142,222.421c2.427-1.146,4.931-2.21,7.141-3.571C281.636,218.774,280.06,220.768,278.142,222.421 M25.738,213.138
			c-0.341-0.326-1.621-2.463-1.071-1.428C24.476,212.539,25.246,214.171,25.738,213.138 M22.887,208.5
			c0.054-0.888,0.525,0.301-0.004-0.004C22.829,209.384,22.357,208.196,22.887,208.5 M21.812,208.854
			c0.378-0.905,0.495-0.778,0.175,0.186C22.811,208.931,21.138,208.815,21.812,208.854 M191.39,213.138
			c3.363,1.274,4.375,9.224,1.786,12.138c-1.617-0.759-3.373,0.624-5.356,0.714c-2.918,0.136-5.835-1.315-8.211-0.714
			c-1.813,5.684-1.52,13.809-0.356,18.922c6.374,1.123,11.032,3.961,16.421,6.069c-0.47,3.64,2.66,6.785,3.57,11.781
			c9.633,0.757,15.945-4.712,22.135-8.568c1.185-4.171,6.392-4.319,9.64-6.426c8.442-0.967,14.248-6.858,19.992-9.997
			c3.247-1.772,6.785-2.384,8.925-4.283c-0.354-1.601-0.459-1.595-0.713-2.855c1.545-4.061-1.31-9.543-1.072-14.638
			c-7.595-1.171-17.324-1.299-22.848,2.142c-1.739-1.237-2.293-3.658-3.928-4.998c-1.46,1.041-1.076,3.921-3.213,4.284
			c-2.549-1.571-6.568,0.515-8.925-1.071c-1.789-2.969,3.549-6.988,0-9.996c-1.739-0.312-2.369,0.489-3.571,0.714
			c-3.538-2.796-8.715-1.537-13.209-0.714c-1.815-1.516-3.422-3.242-6.067-3.927C195.81,207.227,194.923,211.266,191.39,213.138
			 M16.1,196.716c0.783,1.396,0.628,3.326,2.499,3.927c-3.184-5.266-5.545-11.354-9.282-16.065
			C10.754,189.218,13.877,192.753,16.1,196.716 M117.847,263.833c3.7-0.466,5.369-2.962,9.281-3.214
			c-1.586-6.268-5.292-10.417-9.281-14.279c1.672-4.397,5.837-6.302,7.498-10.711c-2.324-2.319-5.736-3.548-9.641-4.283
			c-2.659-4.633-8.066-11.809-4.642-17.137c1.012-0.061,1.489-0.654,2.499-0.715c1.572-2.984,3.849-4.713,4.285-8.211
			c0.188-1.523-0.406-3.164-0.358-4.641c0.021-0.582,0.641-0.857,0.716-1.428c0.636-4.873-2.168-8.13-3.214-11.067
			c-1.92-5.391-3.125-15.178-4.284-20.706c-4.688,3.87-10.263,7.218-14.279,11.781c-1.438,1.631-2.229,3.771-3.571,5.354
			c-4.655,5.506-10.618,9.295-16.422,13.209c-4.351,2.935-8.889,5.745-12.852,8.568c-1.478,1.053-2.904,2.568-4.999,2.856
			c-1.376,2.703-4.908,4.638-8.567,3.927c-0.035,0.561,0.048,1.238-0.714,1.071c-6.466,1.271-12.508,2.963-19.279,3.927
			c-1.263,3.854-6.203,4.032-7.497,7.854c-1.193,0.592-2.377,1.194-3.57,1.785c0.891,3.274,4.273,4.057,5.712,6.784
			c-1.27,0.294-1.563-2.213-2.499-1.071c8.106,9.388,12.917,22.07,19.278,33.201c1.155,0.442,0.273-1.155,1.429-0.714
			c-0.559,2.297,1.269,5.104,1.784,7.497c1.954,0.63,3.072,2.504,4.285,3.927c1.31,1.539,2.559,3.141,3.57,4.999
			c6.217,0.811,8.213-4.836,13.566-1.785c3.011,7.347,8.37,14.458,12.139,22.134c4.184-1.553,7.063-4.769,9.639-7.496
			c0.942-0.999,2.348-1.814,3.213-2.857c2.521-3.038,4.005-7.526,6.425-9.995c3.117-3.178,6.813-8.466,9.997-10.711
			c0.695-0.49,1.708-0.551,2.499-1.071c3.276-2.151,6.111-4.173,9.64-6.427C118.418,263.8,116.922,265.134,117.847,263.833
			 M142.123,161.372c-3.284-0.103-4.941,0.246-7.142,0.357c-1.509,0.078-3.035-0.353-4.641-0.357
			c-4.994-0.013-10.185,1.967-15.351,1.071c-1.234,6.745,0.743,13.838,2.498,19.635c2.873,2.717,2.232,7.354,3.213,11.782
			c0.301,1.349,1.062,2.28,1.072,3.57c0.01,1.158-0.755,2.093-1.072,3.57c-0.672,3.144-0.084,7.414-0.714,9.995
			c-0.414,1.705-1.792,3.111-2.499,4.285h-2.141c0.543,2.327-2.292,1.278-2.143,3.213c0.104,5.369,2.726,8.224,6.068,10.354
			c5.223,0.788,9.323,3.992,10.354,7.854c-1.169,1.567-2.071,3.403-3.214,4.998c-2.754,0.339-3.782,2.405-4.641,4.642
			c3.371,1.276,3.528,4.869,4.998,7.854c1.031,2.096,3.298,3.617,3.213,6.068c4.787-1.119,9.246-1.431,13.209-3.211
			c1.808-0.813,3.303-2.382,4.998-3.213c3.804-1.869,7.824-2.976,10.71-6.07c4.469-1.429,9.287-5.437,14.995-4.999
			c1.406,0.109,2.312,1.239,3.927,1.072c-0.399-6.046-0.513-14.92,1.07-19.993c4.756,1.329,9.904,1.084,14.282-0.356
			c1.888-4.055-0.487-8.362-3.213-9.997c-0.339-1.686-0.698-3.35-0.717-5.354c-2.083-3.792-6.66-1.667-7.854-6.784
			c-0.828-3.559,2.117-11.273-1.07-13.923c-1.078-0.897-3.521-0.962-4.998-1.429c-1.88-0.592-3.247-1.061-4.999-1.784
			c-2.358-5.413-0.271-13.479-1.427-19.636c-0.819-0.846-3.465,0.134-4.285-0.715c0.146-1.349,1.104-4.651-0.355-5.354
			C164.188,158.876,149.192,161.597,142.123,161.372 M154.618,157.445C152.331,157.033,153.835,158.535,154.618,157.445
			 M204.956,155.659c0.814,0.101,1.343-0.085,1.428-0.713C205.752,155.027,204.596,154.586,204.956,155.659 M234.944,152.446
			c-12.65,0.976-25.646,4.06-38.914,4.643c-11.055,0.485-21.524,1.014-30.345,1.427c0.248,1.796-0.607,2.488-0.358,4.285
			c1.282,1.015,3.181-0.372,4.285,0.356c1.339,5.457-0.374,13.832,1.071,18.92c2.086,2.674,6.624,2.898,10.353,3.928
			c2.468,3.779,1.125,9.16,1.429,14.995c1.345,3.025,5.531,3.347,7.14,6.068c0.798,1.353,0.179,2.771,1.428,4.285
			c4.271-2.084,2.784-8.071,5.356-11.425c2.426,0.562,3.763,3.758,6.782,4.285c2.41,0.418,5.322-0.986,8.212-0.717
			c2.922,0.275,5.261,2.143,7.496,0.358c1.173,1.669,2.717,2.517,2.856,4.641c0.155,2.371-2.457,4.318-1.785,6.427
			c2.654,0.705,5.599-0.423,8.211,0.714c1.234-1.383,1.353-3.884,3.213-4.642c2.088,0.889,1.944,4.006,4.283,4.642
			c5.208-2.599,15.816-2.96,22.137-2.143c-2.352-19.657-0.466-42.298-3.928-62.119C248.476,152.138,241.499,151.942,234.944,152.446
			 M278.142,151.376c-8.729-0.542-15.486-0.639-22.847,0c1.057,9.561,1.077,18.711,1.427,27.847
			c0.39,10.196,0.318,22.174,2.142,32.487c0.562,3.175,0.621,5.652,1.071,8.568c0.61,3.943,1.393,7.936,1.786,11.423
			c3.062-1.032,5.468-3.274,7.854-4.641c2.306-1.318,3.236-2.558,4.998-3.927c0.9-0.699,2.191-1.104,3.213-1.785
			c1.967-1.313,4.004-3.582,6.069-3.927c1.263-0.211,2.944,0.631,4.284,0.357c1.034-0.212,3.029-1.722,4.641-2.856
			c1.586-1.117,3.216-2.334,4.642-3.213c3.428-2.116,5.933-5.23,8.567-6.783c1.192-0.703,2.679-0.818,3.927-1.43
			c2.197-1.07,4.274-2.661,6.427-3.925c4.676-2.747,9.433-4.741,13.924-7.142c1.979-1.057,4.917-2.271,5.354-4.641
			c-2.525-4.434-7.256-6.723-10.353-10.709c-1.251-1.612-1.96-3.735-3.213-5.356c-1.356-1.753-2.811-3.126-3.927-4.997
			c-0.08-1.066,1.318-1.214,0.357-2.143c-1.117-3.706-3.436-7.908-2.856-12.14C304.534,155.552,292.032,152.238,278.142,151.376
			 M288.853,149.235c-1.547,0,3.902,0.165,2.354,0.165C291.565,150.867,288.314,149.911,288.853,149.235 M278.855,149.949
			c1.086-0.224-1.225,1.105-0.729,0.291C276.769,149.945,279.869,149.132,278.855,149.949 M273.144,148.877
			c-2.286-0.411-0.241,0.653,0.543-0.437L273.144,148.877z M108.564,109.25c-0.477-2.619-0.234-5.955-1.785-7.498
			C107.198,104.427,107.388,107.332,108.564,109.25 M206.384,79.261c0.578,0.851,2.468,0.388,2.5,1.785
			c-0.873,0.878-1.549-0.265-2.857,0c-1.882,16.395-3.133,31.791-2.498,48.553c1.406,1.632,0.318,1.983,0.356,3.213
			c9.578-0.032,23.002,0.594,32.845-0.357c1.558-0.488,0.759,1.382,2.142,1.07c7.702-21.167,9.752-47.703,11.425-73.543
			c-11.446,0.427-31.157,3.537-41.412-0.356C208.708,66.828,207.327,72.826,206.384,79.261 M251.01,56.055
			c0.577-0.1,0.614,0.337,1.07,0.358c1.533,1.89-0.101,4.26-0.356,6.068c-0.829,5.855-0.684,11.964-1.07,18.207
			c-0.32,5.131-1.479,10.401-2.143,15.71c-0.665,5.309-0.928,10.784-1.786,15.707c-1.077,6.187-3.953,11.935-4.64,17.494
			c-0.316,2.561,0.619,4.623-0.715,6.426c-1.526,0.196-2.729-1.174-4.283-1.428c-4.706-0.769-11.692,1.186-18.208,0.714
			c-5.371-0.39-12.492,0.439-17.137-1.072c-0.315-17.968,0.912-37.157,2.856-53.193c-12.836-0.179-26.606,1.195-40.341,0.714
			c-7.351-0.258-14.892,0.842-22.135,1.427c-11.454,0.928-23.606,3.373-36.415,2.144c-0.173,8.231,2.385,15.796,3.927,23.561
			c0.776,3.905,1.443,8.032,2.143,12.139c0.653,3.842,2.159,7.537,2.498,11.424c0.464,5.314-0.394,11.015,0.358,16.78
			c0.114,0.875-0.151,1.263,0.714,1.784c-0.38,2.544-0.912,5.939-0.714,9.997c1.26-0.72,2.913-1.241,4.284-1.428
			c9.65-1.325,20.56-0.084,30.346-1.429c1.884,0.17-0.83-0.961,0.355-1.07c10.676,0.862,21.071-1.749,31.773-2.857
			c-0.863,1.516-4.299,0.462-5.712,1.427c3.687,0.591,8.87-0.41,11.782-1.783h-1.785c3.042-0.06,6.102-1.354,9.282-1.43
			c0.927-0.02,1.496,0.626,2.498,0.716c1.673,0.148,4.241-0.511,6.784-0.716c6.081-0.488,12.656-0.183,19.636-0.714
			c13.431-1.019,27.617-3.534,40.342-3.211c9.633,0.243,23.222-0.736,32.843,0c1.126,0.084,2.411,0.635,3.571,0.714
			c4.628,0.31,10.23-1.063,13.565,1.07c0.69,0.442,0.925,0.237,0.714,1.427c1.835-1.472,0.639-4.027,0.715-6.068
			c0.041-1.114,0.707-2.441,0.714-3.569c0.027-3.863-0.347-8.767-0.356-13.21c-0.034-12.943,4.196-26.766,1.07-38.914
			c-4.541,0.57-9.226-0.35-13.923-0.357c-9.811-0.015-20.372,1.669-29.989,1.071c-6.705-0.417-12.841-2.002-18.563-1.785
			c-1.322,0.051-3.139,1.044-4.284,0c1.543-2.643,4.962-1.062,7.14-1.07c2.592-0.012,5.362-0.015,8.568,0.356
			c1.829,0.211,3.673,0.952,5.355,1.072c3.519,0.248,9.393,0.2,13.209,0c1.124-0.06,2.394-0.642,3.57-0.714
			c1.994-0.125,4.089,0.375,6.069,0.356c7.279-0.067,14.76-1.37,22.491-0.714c-0.101-3.148-1.225-8.271-1.786-12.139
			c0.853-0.597,0.835,0.131,2.143,0c0.459-0.045,0.935-0.69,1.429-0.713c3.736-0.17,8.028,0.465,12.495,0.357
			c3.357-0.081,6.757-0.866,10.354-1.071c3.237-0.185,6.655,0.147,9.994,0c5.96-0.262,12.258-0.785,17.852-0.358
			c6.859,0.526,16.479,0.288,23.206-1.07c1.417,0.487,2.11,1.697,3.927,1.785c1.201,9.215,1.611,21.87,2.141,33.559
			c0.121,2.652-0.086,5.423,0,7.854c0.07,1.955,1.083,4.402-0.714,5.712c-0.468-17.257-0.394-31.417-2.854-46.411
			c-3.53-0.647-7.332,0.442-11.067,0.714c-10.038,0.73-20.373-0.485-31.059,0c-2.712,0.122-5.448-0.104-8.212,0
			c-8.274,0.313-17.57,1.94-27.49,0.714c1.762,11.412,4.289,24.014,2.856,37.128c-0.418,3.811-1.191,7.349-1.428,11.067
			c-0.458,7.188-0.926,16.826-1.429,25.349c0.35,1.222,2.06-0.956,2.499,0.356c0.083,1.393-2.205,0.413-2.499,1.427
			c0.42,2.875,0.631,5.532,1.429,7.856c0.787,2.293,2.928,3.857,2.498,6.068c0.597,0.474,1.196,0.946,2.499,0.713
			c-0.081,1.393,0.768,1.852,1.071,2.857c4.25,3.833,8.301,11.094,13.209,15.708c2.329,2.188,2.06,1.444,4.998,0.356
			c2.975-1.1,6.787-1.293,9.282-3.213c-0.263,1.643-2.191,1.617-3.214,2.498c5.439,2.334,12.913-1.222,20.351,0
			c0.812,0.135,2.559,0.041,2.855,1.072c-1.104,2.088-3.469,0.42-5.354,0.357c-1.595-0.053-3.729,0.578-6.068,0.714
			c-1.937,0.112-4.167-0.188-6.071,0c-1.781,0.176-3.633,1.095-5.354,1.428c-2.292,0.442-3.796,0.125-4.999,0.714
			c-1.38,0.678-1.582,2.002-2.854,2.499c-0.909-3.687,4.338-4.198,7.495-4.997c-1.212-0.205-5.125-0.522-6.781,0.356
			c-1.638,0.868-1.252,2.606-2.5,3.927c-1.314,1.393-2.525,0.895-3.569,2.143c-1.229,0.156-2.002-0.142-2.857-0.356
			c-10.406,4.706-20.61,9.613-28.918,16.421c-4.369,3.721-10.892,5.291-14.279,9.996c-2.326,0.645-4.671,1.225-6.782,2.143
			c-2.04,0.886-3.507,2.557-5.355,3.569c-1.396,0.767-3.193,1.053-4.642,1.785c-3.863,1.954-7.896,4.859-11.781,7.498
			c-2.972,0.163-4.718,1.759-7.14,3.213c-4.487,2.691-10.185,4.73-13.566,8.568c-1.396-0.208-2.073,0.307-2.855,0.714
			c-0.53,0.541-0.575,1.566-0.714,2.499c-2.252-0.231-3.892,2.149-6.069,3.213c-2.824,1.377-6.033,2.272-9.282,3.927
			c-2.962,1.506-6.253,2.792-8.925,4.283c-2.738,1.53-3.334,2.63-6.784,3.571c-0.874,0.238-4.547,1.471-6.068,1.071
			c-1.987-0.523-2.237-3.123-4.285-3.927c-1.683-4.166-3.666-8.913-7.854-11.425c-1.825-1.095-4.846-1.749-7.497-2.499
			c-2.723-0.771-6.186-1.838-8.568-1.428c-1.576,0.27-2.848,2.114-4.283,2.854c-3.966,2.043-9.783,2.491-12.496,5.357
			c-4.757,0.478-8.322,2.147-11.067,4.64c-4.029,0.894-7.086,0.701-9.64,3.213c-1.116,0.073-2.619-0.241-3.213,0.357
			c-2.218-2.136-9.185-1.121-8.567,1.785c-5.717,2.137-9.593,6.114-14.994,8.567c-2.947,3.803-6.576,7.258-9.997,11.068
			c-3.354,3.737-5.718,9.769-9.638,13.564c-1.37,1.328-3.225,2.398-4.642,3.571c-1.309,1.083-3.606,1.887-3.927,4.284
			c-4.869-2.667-8.335-11.786-11.781-18.208c-1.25-2.329-2.79-5.084-4.641-5.355c-2.37-0.346-1.92,1.992-3.927,1.786
			c-1.474,0.668-2.533,1.752-3.928,2.499c-4.993-0.717-6.728-6.384-9.996-9.282c-0.603-0.535-1.748-1.752-2.855-1.07
			c-0.101-1.088,1.143-1.389,0.357-2.144c-3.217-7.334-6.899-14.215-11.068-20.707c-4.157-6.472-7.829-13.211-12.495-19.277
			c-0.078-1.944-1.004-3.042-1.428-4.642c-0.866-1.238-1.662,1.269-2.142-0.355c-0.974-4.363,4.434-4.959,6.783-7.141
			c1.127-1.372,2.016-2.983,3.57-3.927c-3.207-4.2-5.742-9.962-8.568-15.352c-3.625-6.915-8.207-13.624-12.138-20.706
			c-0.984-1.771-1.501-3.969-2.499-5.712c-0.897-1.566-2.811-2.646-2.5-4.642c0.634-0.082,1.789,0.359,1.429-0.714
			c2.209,0.89,2.902,3.53,3.927,5.355c2.206,3.927,4.307,7.864,6.783,11.78c0.661,1.045,1.24,1.778,1.785,2.856
			c4.352,8.609,10.101,17.832,14.994,26.419c5.168-1.058,10.344-1.935,15.351-2.856c3.627-0.667,8.027-1.594,11.067-3.214
			c4.307-2.294,7.865-6.515,12.139-9.281c4.388-2.843,9.209-5.046,13.208-7.854c5.96-4.182,10.242-9.761,14.996-15.351
			c1.582-1.861,3.417-3.248,4.641-5.355c3.476-2.474,6.741-5.158,9.639-8.211c-1.578-1.546-0.07-2.576,0-4.641
			c0.16-4.674-1.705-9.434-0.714-14.638c0.414-2.174,1.617-4.228,1.784-6.426c0.427-5.577-2.175-13.401-3.213-19.635
			c-0.79-4.744-1.537-9.308-2.142-13.924c-0.593-4.533-0.872-7.06-2.142-10.353c-7.482,6.151-14.975,11.833-22.492,18.207
			c-4.879,4.138-9.29,8.036-14.637,12.139c-2.381,1.827-5.036,3.553-7.497,5.712c-1.88,1.649-4.305,4.354-7.141,6.426
			c-2.54,1.855-6.428,4.384-8.567,4.641c-2.503,0.302-5.873-2.059-8.211-1.428c-3.397,0.916-3.753,9.291-6.07,11.781
			c-0.865,0.931-3.093,1.759-4.641,2.855c-3.897,2.763-8.235,5.277-12.138,8.57c-2.621,2.21-4.735,5.106-7.855,5.712
			c-0.615-1.502,1.26-2.163,2.143-2.857c2.891-2.268,6.202-4.74,9.639-7.14c1.083-0.756,2.333-1.279,3.57-2.141
			c1.059-0.739,1.757-2.017,2.856-2.857c2.254-1.723,5.078-2.686,6.426-4.641c2.281-3.308,1.954-7.553,4.641-11.067
			c3.977-0.144,6.048,1.769,9.283,1.428c3.09-0.326,6.343-2.806,8.924-4.641c2.799-1.989,4.828-4.861,7.498-6.069
			c3.249-3.582,7.429-6.164,11.066-9.283c10.526-9.023,22.662-17.465,32.489-27.846c-0.108-3.344-0.585-6.319-1.428-8.926
			c2.683-1.183,3.578,1.322,4.998,0c1.265-0.192,0.878,1.265,2.143,1.072c18.85,0.195,35.594-3.927,54.265-3.927
			c8.091,0,16.567,0.643,24.634,0c5.889-0.47,11.485-1.902,17.136-1.072c1.454-6.571,2.444-14.515,2.856-21.062
			c6.503-1.018,16.833,1.304,26.418,0.356c3.718-0.366,9.136-1.889,14.994-1.784C250.409,57.51,251.284,58.505,251.01,56.055"/>
	</g>
	
		<line clip-path="url(#SVGID_2_)" fill="none" stroke="#FFFFFF" stroke-width="0.75" stroke-miterlimit="10" stroke-dasharray="2.881,2.881" x1="23.73" y1="100.894" x2="23.73" y2="155.641"/>
	
		<line clip-path="url(#SVGID_2_)" fill="none" stroke="#FFFFFF" stroke-width="0.75" stroke-miterlimit="10" stroke-dasharray="2.8,2.8" x1="136.761" y1="284.64" x2="136.761" y2="259.44"/>
	
		<line clip-path="url(#SVGID_2_)" fill="none" stroke="#FFFFFF" stroke-width="0.75" stroke-miterlimit="10" stroke-dasharray="3.067,3.067" x1="189.061" y1="306.987" x2="189.061" y2="248.712"/>
	
		<line clip-path="url(#SVGID_2_)" fill="none" stroke="#FFFFFF" stroke-width="0.75" stroke-miterlimit="10" stroke-dasharray="2.905,2.905" x1="314.413" y1="222.171" x2="314.413" y2="201.839"/>
	
		<line clip-path="url(#SVGID_2_)" fill="none" stroke="#FFFFFF" stroke-width="0.75" stroke-miterlimit="10" stroke-dasharray="2.985,2.985" x1="282.96" y1="265.817" x2="282.96" y2="221.041"/>
	
		<line clip-path="url(#SVGID_2_)" fill="none" stroke="#FFFFFF" stroke-width="0.75" stroke-miterlimit="10" stroke-dasharray="2.985,2.985" x1="234.187" y1="294.42" x2="234.187" y2="249.644"/>
	
		<line clip-path="url(#SVGID_2_)" fill="none" stroke="#FFFFFF" stroke-width="0.75" stroke-miterlimit="10" stroke-dasharray="2.921,2.921" x1="173.213" y1="54.694" x2="173.213" y2="80.981"/>
	
		<line clip-path="url(#SVGID_2_)" fill="none" stroke="#FFFFFF" stroke-width="0.75" stroke-miterlimit="10" stroke-dasharray="2.872,2.872" x1="290.018" y1="29.44" x2="290.018" y2="89.76"/>
	<g clip-path="url(#SVGID_2_)">
		<defs>
			<rect id="SVGID_11_" x="-104.313" y="-31.06" width="688.517" height="384.95"/>
		</defs>
		<clipPath id="SVGID_12_">
			<use xlink:href="#SVGID_11_"  overflow="visible"/>
		</clipPath>
		<circle clip-path="url(#SVGID_12_)" fill="none" stroke="#98B954" stroke-miterlimit="10" cx="23.98" cy="86.017" r="14.376"/>
		<circle clip-path="url(#SVGID_12_)" fill="none" stroke="#FFD456" stroke-miterlimit="10" cx="136.511" cy="299.063" r="14.376"/>
		<circle clip-path="url(#SVGID_12_)" fill="none" stroke="#FFD456" stroke-miterlimit="10" cx="314.163" cy="237.048" r="14.377"/>
		<circle clip-path="url(#SVGID_12_)" fill="none" stroke="#FFD456" stroke-miterlimit="10" cx="282.71" cy="280.692" r="14.376"/>
		<circle clip-path="url(#SVGID_12_)" fill="none" stroke="#C04A48" stroke-miterlimit="10" cx="233.937" cy="309.297" r="14.376"/>
		<circle clip-path="url(#SVGID_12_)" fill="none" stroke="#98B954" stroke-miterlimit="10" cx="173.463" cy="39.817" r="14.376"/>
		<circle clip-path="url(#SVGID_12_)" fill="none" stroke="#98B954" stroke-miterlimit="10" cx="290.268" cy="14.876" r="14.376"/>
		<path clip-path="url(#SVGID_12_)" fill="#699EC0" d="M131.31,297.867c0-2.099,1.062-3.953,2.676-5.06l0.312,0.542
			c-1.427,0.995-2.361,2.646-2.361,4.518c0,3.044,2.466,5.512,5.509,5.512c0.838,0,1.629-0.193,2.339-0.527l0.312,0.539
			c-0.803,0.389-1.699,0.613-2.65,0.613C134.062,304.003,131.31,301.25,131.31,297.867 M142.238,303.47l-0.637-1.104
			c-0.219,0.202-0.455,0.385-0.701,0.554l-0.309-0.534c1.428-0.995,2.362-2.647,2.362-4.52c0-3.043-2.466-5.509-5.509-5.509
			c-0.838,0-1.628,0.192-2.339,0.526l-0.315-0.545c0.268-0.129,0.543-0.241,0.83-0.33l-0.634-1.099
			c-2.864,1.016-4.921,3.749-4.921,6.956c0,3.912,3.061,7.121,6.912,7.363v0.412c-1.053,0.207-3.497,0.775-3.331,1.573h7.602
			c0.064-0.812-2.312-1.37-3.338-1.573v-0.417C139.558,305.121,141.059,304.481,142.238,303.47"/>
		<path clip-path="url(#SVGID_12_)" fill="#C06C69" d="M177.955,33.194c-0.88,0-1.592,0.711-1.592,1.588
			c0,0.879,0.712,1.59,1.592,1.59c0.876,0,1.588-0.711,1.588-1.59C179.543,33.905,178.831,33.194,177.955,33.194"/>
		<path clip-path="url(#SVGID_12_)" fill="#C06C69" d="M180.831,42.249c-0.18,0.077-0.389-0.012-0.467-0.19l-0.74-3.093
			l-0.102,3.288h-0.003l0.295,5.436c0.019,0.327-0.227,0.61-0.553,0.633c-0.015,0.003-0.028,0.003-0.044,0.003
			c-0.309,0-0.571-0.238-0.589-0.552l-0.677-5.13l-0.671,5.13c-0.025,0.314-0.286,0.552-0.596,0.552c-0.013,0-0.026,0-0.044-0.003
			c-0.324-0.023-0.571-0.306-0.55-0.633l0.29-5.436l-0.1-3.288c0,0-1.976,1.99-2.098,2.044c-0.216,0.091-0.464-0.01-0.556-0.225
			l-1.604-3.491l1.216,5.897h-1.174l-0.362,4.827c0,0.231-0.191,0.423-0.421,0.423c-0.239,0-0.426-0.192-0.426-0.423l-0.361-4.827
			h-0.213h-0.214l-0.361,4.827c0,0.231-0.188,0.423-0.426,0.423c-0.231,0-0.421-0.192-0.421-0.423l-0.363-4.827h-1.172l1.214-5.897
			l-1.603,3.491c-0.092,0.215-0.342,0.316-0.557,0.225c-0.213-0.092-0.313-0.34-0.22-0.557c0,0,0.953-3.465,1.393-4.368
			c0.44-0.902,0.881-1.45,2.557-1.45h0.173h0.172c1.676,0,2.116,0.548,2.556,1.45c0.323,0.659,0.914,2.682,1.211,3.725
			c0.428-0.582,1.007-1.403,1.228-1.861c0.371-0.763,0.946-1.221,2.359-1.221h0.287c1.413,0,1.985,0.458,2.359,1.221
			c0.372,0.757,0.565,3.832,0.565,3.832C181.099,41.965,181.013,42.171,180.831,42.249"/>
		<path clip-path="url(#SVGID_12_)" fill="#C06C69" d="M172.986,33.433c0,0.456-0.386,0.826-0.865,0.826
			c-0.335,0-0.614-0.186-0.759-0.452c-0.327,0.269-0.728,0.452-1.184,0.452c-0.459,0-0.859-0.183-1.187-0.452
			c-0.144,0.266-0.426,0.452-0.759,0.452c-0.479,0-0.865-0.37-0.865-0.826c0-0.455,0.387-0.825,0.865-0.825
			c0.037,0,0.069,0.016,0.106,0.021c-0.014-0.088-0.054-0.166-0.054-0.259c0-1.042,0.847-1.888,1.893-1.888
			c1.044,0,1.889,0.846,1.889,1.888c0,0.093-0.039,0.171-0.052,0.259c0.036-0.005,0.067-0.021,0.105-0.021
			C172.601,32.608,172.986,32.978,172.986,33.433"/>
		<path clip-path="url(#SVGID_12_)" fill="#699EC0" d="M287.219,283.514c-0.404,0.366-2.136,1.271-3.896,1.621
			c-1.729-0.344-3.491-1.259-3.895-1.621v-2.691l3.917,1.621l3.873-1.603V283.514z M292.127,278.811l-0.025-0.011l0.002-0.001
			l-8.781-3.632l-5.889,2.437c-0.112-0.091-0.257-0.147-0.417-0.147c-0.349,0-0.631,0.261-0.643,0.586l-1.831,0.757l1.827,0.757
			v2.456h-0.349l-0.364,4.133h2.03l-0.364-4.133h-0.343v-2.204l0.479,0.198l-0.003,0.001l1.062,0.44v3.199
			c0,1.12,4.591,2.571,4.804,2.571s4.805-1.451,4.805-2.571v-3.182L292.127,278.811z"/>
		<path clip-path="url(#SVGID_12_)" fill="#C06C69" d="M294.276,17.698c-0.404,0.366-2.136,1.271-3.896,1.621
			c-1.729-0.344-3.491-1.259-3.895-1.621v-2.692l3.917,1.621l3.873-1.602V17.698z M299.185,12.995l-0.025-0.011l0.002-0.001
			l-8.781-3.632l-5.889,2.437c-0.112-0.091-0.257-0.148-0.417-0.148c-0.349,0-0.631,0.261-0.643,0.586l-1.831,0.757l1.828,0.757
			v2.456h-0.35l-0.364,4.133h2.03l-0.364-4.133h-0.343v-2.204l0.479,0.198l-0.003,0.001l1.062,0.44v3.2
			c0,1.12,4.591,2.571,4.804,2.571c0.214,0,4.805-1.451,4.805-2.571v-3.182L299.185,12.995z"/>
		<path clip-path="url(#SVGID_12_)" fill="#FFFFFF" d="M188.916,311.324c-1.018,0-1.844,0.824-1.844,1.842
			c0,1.017,0.826,1.84,1.844,1.84c1.015,0,1.838-0.823,1.838-1.84C190.754,312.148,189.931,311.324,188.916,311.324"/>
		<path clip-path="url(#SVGID_12_)" fill="#C06C69" d="M18.305,82.682c0,0.813-0.659,1.472-1.472,1.472s-1.472-0.659-1.472-1.472
			s0.659-1.472,1.472-1.472S18.305,81.869,18.305,82.682"/>
		<path clip-path="url(#SVGID_12_)" fill="#C06C69" d="M31.932,82.682c0,0.813-0.659,1.472-1.472,1.472s-1.472-0.659-1.472-1.472
			s0.659-1.472,1.472-1.472S31.932,81.869,31.932,82.682"/>
		<path clip-path="url(#SVGID_12_)" fill="#C06C69" d="M18.458,86.195c-0.04-0.862-0.752-1.549-1.625-1.549
			c-0.872,0-1.584,0.687-1.624,1.549h-0.002v5.329h3.253v-5.329H18.458z"/>
		<path clip-path="url(#SVGID_12_)" fill="#C06C69" d="M32.084,86.195c-0.04-0.862-0.752-1.549-1.625-1.549
			c-0.872,0-1.584,0.687-1.624,1.549h-0.002v5.329h3.253v-5.329H32.084z"/>
		<path clip-path="url(#SVGID_12_)" fill="#C06C69" d="M25.202,82.682c0,0.813-0.659,1.472-1.472,1.472s-1.472-0.659-1.472-1.472
			s0.659-1.472,1.472-1.472S25.202,81.869,25.202,82.682"/>
		<path clip-path="url(#SVGID_12_)" fill="#C06C69" d="M25.354,86.195c-0.04-0.862-0.752-1.549-1.625-1.549
			c-0.872,0-1.584,0.687-1.624,1.549h-0.002v5.329h3.253v-5.329H25.354z"/>
		<path clip-path="url(#SVGID_12_)" fill="#699EC0" d="M309.447,233.363c0,0.813-0.659,1.473-1.473,1.473
			c-0.812,0-1.472-0.659-1.472-1.473c0-0.812,0.659-1.472,1.472-1.472C308.788,231.891,309.447,232.55,309.447,233.363"/>
		<path clip-path="url(#SVGID_12_)" fill="#699EC0" d="M323.073,233.363c0,0.813-0.659,1.473-1.472,1.473
			c-0.813,0-1.472-0.659-1.472-1.473c0-0.812,0.658-1.472,1.472-1.472C322.414,231.891,323.073,232.55,323.073,233.363"/>
		<path clip-path="url(#SVGID_12_)" fill="#699EC0" d="M309.6,236.876c-0.04-0.862-0.752-1.549-1.625-1.549
			c-0.872,0-1.584,0.687-1.624,1.549h-0.002v5.329h3.253v-5.329H309.6z"/>
		<path clip-path="url(#SVGID_12_)" fill="#699EC0" d="M323.227,236.876c-0.04-0.862-0.752-1.549-1.625-1.549
			c-0.872,0-1.584,0.687-1.624,1.549h-0.002v5.329h3.253v-5.329H323.227z"/>
		<path clip-path="url(#SVGID_12_)" fill="#699EC0" d="M316.344,233.363c0,0.813-0.659,1.473-1.473,1.473
			c-0.812,0-1.472-0.659-1.472-1.473c0-0.812,0.659-1.472,1.472-1.472C315.685,231.891,316.344,232.55,316.344,233.363"/>
		<path clip-path="url(#SVGID_12_)" fill="#699EC0" d="M316.496,236.876c-0.04-0.862-0.752-1.549-1.625-1.549
			c-0.872,0-1.584,0.687-1.624,1.549h-0.002v5.329h3.253v-5.329H316.496z"/>
		<path clip-path="url(#SVGID_12_)" fill="#C06C69" d="M203.486,81.21h2.601v1.68l4.3,6.87c0,0,1.138,19.13,2.399,21.13
			c1.263,2,9.301,19.1,11.4,19.1s11.1-12.9,11.1-12.9l7.801-17.4l0.456-9.93h4.044h4.199v11.134c0,0-2.699,21.149-4.199,27.373
			c-1.5,6.223,0.6,11.023-3.9,12.223c-4.5,1.2-9.962-0.6-19.8-1.5c-9.838-0.9-26.7-1.5-26.7-1.5s-4.7,4.8-3.1-5.1
			c1.6-9.9,3.699-19.5,3.699-19.5l4.301-16.2L203.486,81.21z"/>
		<path clip-path="url(#SVGID_12_)" fill="#C06C69" d="M102.387,97.89l-0.3-1.5l6.9-3.5l7.5,23.6c0,0,3.601,17.001,3.601,20.7
			c0,3.7,3,15.3,3,15.3l-13.801,12.4l0.9,3.5l0.3,4.5c0,0-69.17,52.65-70.4,52.65h-9.4l-1.8-13.534l22.8-48.716
			c0,0,14.4-16.4,15-17.4S102.387,97.89,102.387,97.89"/>
		<path clip-path="url(#SVGID_12_)" fill="#699EC0" d="M167.087,159.215c0,0,0.04-1.435-2.36,0s-0.257,10.795-0.257,10.795l1.697,12
			c0,0,0.199,5.92,1.42,7.88c1.22,1.96,4.939,6.521,7.22,12.28s12.24,13.92,12.24,13.92l3.04-2.4c0,0,0.56-1.68,1.279-3.6
			c0.721-1.92,0.121-8.4-1.279-13.2c-1.401-4.8-5.2-16.068-5.2-16.068l-12.24-16.571L167.087,159.215z"/>
		<path clip-path="url(#SVGID_12_)" fill="#699EC0" d="M253.286,152.01c0,0,0.96-0.729,3.36-0.729s5.04,12.729,5.04,12.729
			l4.32,12.96c0,0,0.474,7.876,0.474,9.12s-0.234,1.244-0.234,1.244l-0.72,5.476c0,0-1.2,6.3-2.399,9.03
			c-1.2,2.729-3.145,11.61-3.145,11.61l-3.336,0.106c0,0-3.662-5.867-3.662-6.827s-1.618-10.319-1.618-10.319
			s-1.199-10.495-1.199-12.24v-14.64c0-0.961,2.64-17.28,2.64-17.28"/>
	</g>
	<g clip-path="url(#SVGID_2_)">
		<text transform="matrix(1 0 0 1 43.7866 84.981)"><tspan x="0" y="0" fill="#FFFFFF" font-family="'MyriadPro-Bold'" font-size="8">3</tspan><tspan x="4.76" y="0" fill="#FFFFFF" font-family="'MyriadPro-Bold'" font-size="8">7</tspan><tspan x="9.512" y="0" fill="#FFFFFF" font-family="'MyriadPro-Bold'" font-size="8">% </tspan></text>
	</g>
	<g clip-path="url(#SVGID_2_)">
		<text transform="matrix(1 0 0 1 43.7866 92.981)"><tspan x="0" y="0" fill="#FFFFFF" font-family="'MyriadPro-Bold'" font-size="6">C</tspan><tspan x="3.792" y="0" fill="#FFFFFF" font-family="'MyriadPro-Bold'" font-size="6">hild</tspan><tspan x="15.138" y="0" fill="#FFFFFF" font-family="'MyriadPro-Bold'" font-size="6">r</tspan><tspan x="17.61" y="0" fill="#FFFFFF" font-family="'MyriadPro-Bold'" font-size="6">e</tspan><tspan x="21.018" y="0" fill="#FFFFFF" font-family="'MyriadPro-Bold'" font-size="6">n</tspan></text>
	</g>
	<g clip-path="url(#SVGID_2_)">
		<text transform="matrix(1 0 0 1 194.0869 39.3691)"><tspan x="0" y="0" fill="#FFFFFF" font-family="'MyriadPro-Bold'" font-size="8">27</tspan><tspan x="9.519" y="0" fill="#FFFFFF" font-family="'MyriadPro-Bold'" font-size="8">% </tspan></text>
	</g>
	<g clip-path="url(#SVGID_2_)">
		<text transform="matrix(1 0 0 1 194.0869 47.3691)"><tspan x="0" y="0" fill="#FFFFFF" font-family="'MyriadPro-Bold'" font-size="6">Sin</tspan><tspan x="9.107" y="0" fill="#FFFFFF" font-family="'MyriadPro-Bold'" font-size="6">gl</tspan><tspan x="14.748" y="0" fill="#FFFFFF" font-family="'MyriadPro-Bold'" font-size="6">e </tspan><tspan x="19.596" y="0" fill="#FFFFFF" font-family="'MyriadPro-Bold'" font-size="6">P</tspan><tspan x="23.214" y="0" fill="#FFFFFF" font-family="'MyriadPro-Bold'" font-size="6">a</tspan><tspan x="26.616" y="0" fill="#FFFFFF" font-family="'MyriadPro-Bold'" font-size="6">r</tspan><tspan x="29.088" y="0" fill="#FFFFFF" font-family="'MyriadPro-Bold'" font-size="6">e</tspan><tspan x="32.496" y="0" fill="#FFFFFF" font-family="'MyriadPro-Bold'" font-size="6">n</tspan><tspan x="36.21" y="0" fill="#FFFFFF" font-family="'MyriadPro-Bold'" font-size="6">t</tspan><tspan x="38.651" y="0" fill="#FFFFFF" font-family="'MyriadPro-Bold'" font-size="6">s</tspan></text>
	</g>
	<g clip-path="url(#SVGID_2_)">
		<text transform="matrix(1 0 0 1 309.7861 15.7339)"><tspan x="0" y="0" fill="#FFFFFF" font-family="'MyriadPro-Bold'" font-size="8">33</tspan><tspan x="9.519" y="0" fill="#FFFFFF" font-family="'MyriadPro-Bold'" font-size="8">% </tspan></text>
	</g>
	<g clip-path="url(#SVGID_2_)">
		<text transform="matrix(1 0 0 1 309.7861 23.7339)"><tspan x="0" y="0" fill="#FFFFFF" font-family="'MyriadPro-Bold'" font-size="6">C</tspan><tspan x="3.696" y="0" fill="#FFFFFF" font-family="'MyriadPro-Bold'" font-size="6">ol</tspan><tspan x="9.276" y="0" fill="#FFFFFF" font-family="'MyriadPro-Bold'" font-size="6">l</tspan><tspan x="11.167" y="0" fill="#FFFFFF" font-family="'MyriadPro-Bold'" font-size="6">eg</tspan><tspan x="18.318" y="0" fill="#FFFFFF" font-family="'MyriadPro-Bold'" font-size="6">e</tspan><tspan x="21.727" y="0" fill="#FFFFFF" font-family="'MyriadPro-Bold'" font-size="6">/</tspan><tspan x="23.947" y="0" fill="#FFFFFF" font-family="'MyriadPro-Bold'" font-size="6">Uni</tspan><tspan x="33.918" y="0" fill="#FFFFFF" font-family="'MyriadPro-Bold'" font-size="6">v</tspan><tspan x="37.242" y="0" fill="#FFFFFF" font-family="'MyriadPro-Bold'" font-size="6">ersi</tspan><tspan x="47.897" y="0" fill="#FFFFFF" font-family="'MyriadPro-Bold'" font-size="6">t</tspan><tspan x="50.369" y="0" fill="#FFFFFF" font-family="'MyriadPro-Bold'" font-size="6">y </tspan></text>
	</g>
	<g clip-path="url(#SVGID_2_)">
		<text transform="matrix(1 0 0 1 309.7861 31.7319)"><tspan x="0" y="0" fill="#FFFFFF" font-family="'MyriadPro-Bold'" font-size="6">G</tspan><tspan x="4.35" y="0" fill="#FFFFFF" font-family="'MyriadPro-Bold'" font-size="6">r</tspan><tspan x="6.804" y="0" fill="#FFFFFF" font-family="'MyriadPro-Bold'" font-size="6">adu</tspan><tspan x="17.754" y="0" fill="#FFFFFF" font-family="'MyriadPro-Bold'" font-size="6">a</tspan><tspan x="21.108" y="0" fill="#FFFFFF" font-family="'MyriadPro-Bold'" font-size="6">t</tspan><tspan x="23.521" y="0" fill="#FFFFFF" font-family="'MyriadPro-Bold'" font-size="6">e</tspan><tspan x="26.929" y="0" fill="#FFFFFF" font-family="'MyriadPro-Bold'" font-size="6">s</tspan></text>
	</g>
	<g clip-path="url(#SVGID_2_)">
		<text transform="matrix(1 0 0 1 334.8867 236.2622)"><tspan x="0" y="0" fill="#FFFFFF" font-family="'MyriadPro-Bold'" font-size="8">30</tspan><tspan x="9.52" y="0" fill="#FFFFFF" font-family="'MyriadPro-Bold'" font-size="8">% </tspan></text>
	</g>
	<g clip-path="url(#SVGID_2_)">
		<text transform="matrix(1 0 0 1 334.8867 244.2622)"><tspan x="0" y="0" fill="#FFFFFF" font-family="'MyriadPro-Bold'" font-size="6">C</tspan><tspan x="3.792" y="0" fill="#FFFFFF" font-family="'MyriadPro-Bold'" font-size="6">hi</tspan><tspan x="9.432" y="0" fill="#FFFFFF" font-family="'MyriadPro-Bold'" font-size="6">l</tspan><tspan x="11.315" y="0" fill="#FFFFFF" font-family="'MyriadPro-Bold'" font-size="6">d</tspan><tspan x="15.132" y="0" fill="#FFFFFF" font-family="'MyriadPro-Bold'" font-size="6">r</tspan><tspan x="17.604" y="0" fill="#FFFFFF" font-family="'MyriadPro-Bold'" font-size="6">e</tspan><tspan x="21.013" y="0" fill="#FFFFFF" font-family="'MyriadPro-Bold'" font-size="6">n</tspan></text>
	</g>
	<g clip-path="url(#SVGID_2_)">
		<text transform="matrix(1 0 0 1 303.7861 280.2485)"><tspan x="0" y="0" fill="#FFFFFF" font-family="'MyriadPro-Bold'" font-size="8">33</tspan><tspan x="9.519" y="0" fill="#FFFFFF" font-family="'MyriadPro-Bold'" font-size="8">% </tspan></text>
	</g>
	<g clip-path="url(#SVGID_2_)">
		<text transform="matrix(1 0 0 1 303.7861 288.2485)"><tspan x="0" y="0" fill="#FFFFFF" font-family="'MyriadPro-Bold'" font-size="6">C</tspan><tspan x="3.696" y="0" fill="#FFFFFF" font-family="'MyriadPro-Bold'" font-size="6">ol</tspan><tspan x="9.276" y="0" fill="#FFFFFF" font-family="'MyriadPro-Bold'" font-size="6">l</tspan><tspan x="11.167" y="0" fill="#FFFFFF" font-family="'MyriadPro-Bold'" font-size="6">eg</tspan><tspan x="18.318" y="0" fill="#FFFFFF" font-family="'MyriadPro-Bold'" font-size="6">e</tspan><tspan x="21.727" y="0" fill="#FFFFFF" font-family="'MyriadPro-Bold'" font-size="6">/</tspan><tspan x="23.947" y="0" fill="#FFFFFF" font-family="'MyriadPro-Bold'" font-size="6">Uni</tspan><tspan x="33.918" y="0" fill="#FFFFFF" font-family="'MyriadPro-Bold'" font-size="6">v</tspan><tspan x="37.242" y="0" fill="#FFFFFF" font-family="'MyriadPro-Bold'" font-size="6">ersi</tspan><tspan x="47.897" y="0" fill="#FFFFFF" font-family="'MyriadPro-Bold'" font-size="6">t</tspan><tspan x="50.369" y="0" fill="#FFFFFF" font-family="'MyriadPro-Bold'" font-size="6">y </tspan></text>
	</g>
	<g clip-path="url(#SVGID_2_)">
		<text transform="matrix(1 0 0 1 303.7861 296.2466)"><tspan x="0" y="0" fill="#FFFFFF" font-family="'MyriadPro-Bold'" font-size="6">G</tspan><tspan x="4.35" y="0" fill="#FFFFFF" font-family="'MyriadPro-Bold'" font-size="6">r</tspan><tspan x="6.804" y="0" fill="#FFFFFF" font-family="'MyriadPro-Bold'" font-size="6">adu</tspan><tspan x="17.754" y="0" fill="#FFFFFF" font-family="'MyriadPro-Bold'" font-size="6">a</tspan><tspan x="21.108" y="0" fill="#FFFFFF" font-family="'MyriadPro-Bold'" font-size="6">t</tspan><tspan x="23.521" y="0" fill="#FFFFFF" font-family="'MyriadPro-Bold'" font-size="6">e</tspan><tspan x="26.929" y="0" fill="#FFFFFF" font-family="'MyriadPro-Bold'" font-size="6">s</tspan></text>
	</g>
	<g clip-path="url(#SVGID_2_)">
		<defs>
			<rect id="SVGID_13_" x="-104.313" y="-31.06" width="688.517" height="384.95"/>
		</defs>
		<clipPath id="SVGID_14_">
			<use xlink:href="#SVGID_13_"  overflow="visible"/>
		</clipPath>
		<path clip-path="url(#SVGID_14_)" fill="#FFFFFF" d="M241.468,313.762l-1.501,0.675l-2.105-4.674l-0.204-0.451l-0.494,0.007
			l-4.55,0.063l-0.042-0.971h3.771v-1.51h-3.833l-0.132-3.136c0.566-0.247,0.963-0.812,0.963-1.468c0-0.885-0.717-1.601-1.6-1.601
			c-0.886,0-1.603,0.716-1.603,1.601c0,0.56,0.288,1.052,0.724,1.335l0.274,6.547l0.03,0.733l0.734-0.01l4.789-0.068l2.212,4.905
			l0.31,0.688l0.687-0.308l2.188-0.983L241.468,313.762z"/>
		<path clip-path="url(#SVGID_14_)" fill="#FFFFFF" d="M236.779,313.354l-0.203-0.048c-0.442,1.813-2.062,3.08-3.931,3.08
			c-2.233,0-4.049-1.815-4.049-4.048c0-1.375,0.688-2.627,1.816-3.374l-0.19-1.311l-0.132-0.254
			c-1.854,0.96-3.004,2.852-3.004,4.938c0,3.063,2.493,5.558,5.559,5.558c2.109,0,3.982-1.175,4.923-2.979L236.779,313.354z"/>
		<path clip-path="url(#SVGID_14_)" fill="#C06C69" d="M316.286,89.76h6.9l1.8,14.43c0,0,2.101,28.5,2.101,31.5s-1.5,12.3-1.5,12.3
			l-3.65,2.9l-4.75,0.391l-0.9-1.791c0,0-3.3,2.1-3.6-3.6c-0.3-5.7-0.499-11.6-0.499-15.3c0-3.7-0.5-18.3-0.5-23.7
			S316.286,89.76,316.286,89.76"/>
	</g>
</g>
</svg>
