<?xml version="1.0" encoding="utf-8"?>
<!-- Generator: Adobe Illustrator 16.0.0, SVG Export Plug-In . SVG Version: 6.00 Build 0)  -->
<!DOCTYPE svg PUBLIC "-//W3C//DTD SVG 1.1//EN" "http://www.w3.org/Graphics/SVG/1.1/DTD/svg11.dtd">
<svg version="1.1" id="Layer_1" xmlns="http://www.w3.org/2000/svg" xmlns:xlink="http://www.w3.org/1999/xlink" x="0px" y="0px"
	 width="34.766px" height="49.666px" viewBox="0 0 34.766 49.666" enable-background="new 0 0 34.766 49.666" xml:space="preserve">
<path fill="#BF69C0" d="M17.383,0C7.798,0,0,7.798,0,17.383c0,9.311,16.036,31.028,16.718,31.948
	c0.157,0.21,0.403,0.335,0.665,0.335c0.263,0,0.509-0.125,0.665-0.335c0.683-0.92,16.718-22.637,16.718-31.948
	C34.766,7.798,26.969,0,17.383,0z M17.383,24.833c-4.108,0-7.45-3.341-7.45-7.45c0-4.108,3.341-7.45,7.45-7.45s7.45,3.341,7.45,7.45
	C24.833,21.492,21.491,24.833,17.383,24.833z"/>
</svg>
